<?xml version="1.0" encoding="UTF-8"?>
<svg width="341px" height="228px" viewBox="0 0 341 228" version="1.1" xmlns="http://www.w3.org/2000/svg" xmlns:xlink="http://www.w3.org/1999/xlink">
    <!-- Generator: Sketch 46.2 (44496) - http://www.bohemiancoding.com/sketch -->
    <title>arrow</title>
    <desc>Created with Sketch.</desc>
    <defs></defs>
    <g id="Page-1" stroke="none" stroke-width="1" fill="none" fill-rule="evenodd">
        <g id="arrow">
            <path d="M190.886176,34.1722804 C191.695544,36.4655769 199.721615,60.4248291 184.354553,75.8141859 C176.144535,84.0353814 162.323624,88.7438212 151.694449,83.6222908 C134.868734,75.5140266 134.407374,46.8047283 141.644957,29.4876156 C143.195087,25.7787162 150.039917,9.4036877 162.748195,8.14658479 C176.100785,6.82509126 186.972571,23.0762916 190.886176,34.1722804 Z" id="Fill-1" fill="#6D5866"></path>
            <path d="M1.00884956,152.388487 C1.00884956,152.388487 1.42517429,140.081741 21.7621884,138.293693 C42.0992025,136.506648 152.656882,164.771448 152.656882,164.771448 C152.656882,164.771448 179.575221,160.46529 179.575221,177.688917 C179.575221,194.913548 128.528018,196.725664 128.528018,196.725664 L27.8602975,182.906649 L1.00884956,152.388487 Z" id="Fill-3" fill="#527ACC"></path>
            <path d="M128.158113,95.1350479 C128.641886,100.063199 133.816378,102.235944 136.727961,105.125273 C141.572651,109.932495 144.299466,120.839191 134.680614,147.735644 C156.975927,148.260341 179.27124,148.785038 201.566553,149.309735 C190.338433,125.475511 192.349024,113.560398 196.44769,107.071149 C199.323512,102.517781 203.990388,98.8319111 203.780786,92.9363188 C203.543369,86.2731701 196.758617,85.5595826 195.075839,78.3947239 C192.872533,69.014146 204.343036,64.2928749 199.549008,59.4696627 C194.523523,54.4125858 183.929176,53.1383223 171.420596,53.5370918 C149.93687,54.2216961 142.098147,57.4258441 139.021664,59.0968782 C138.557758,59.3487326 138.138553,59.6045847 138.138553,59.6045847 C137.0369,60.8028921 135.531937,62.5678719 133.969358,64.870541 C131.972674,67.8098421 130.891881,69.4009224 130.424995,71.451737 C129.448507,75.7452553 132.304461,77.0195188 132.523997,81.790761 C132.821016,88.2450304 127.657452,90.0369946 128.158113,95.1350479" id="Fill-5" fill="#E5B958"></path>
            <path d="M136.822243,104.641298 C141.720022,109.443949 144.476717,120.341274 134.752462,147.212158 C135.907362,147.238118 137.063266,147.265077 138.218166,147.292035 C138.913114,145.698474 139.597015,144.09992 140.241751,142.486389 C144.443577,131.962492 140.614331,126.590712 144.915579,120.427143 C146.661988,117.924972 148.416431,117.054304 148.294916,114.923564 C148.155324,112.485295 145.73606,111.525764 143.6713,108.68511 C141.482012,105.674717 141.191781,102.613401 140.807149,98.5635977 C139.836029,88.3282594 143.472457,83.8351346 143.995677,74.2508002 C144.312019,68.4496768 143.344916,62.9251302 141.668805,57.5044248 C140.591233,57.927777 139.761714,58.323172 139.140077,58.6566617 C138.672091,58.9082767 138.248293,59.1638855 138.248293,59.1638855 C137.134568,60.3610537 135.613114,62.125354 134.032408,64.4248354 C132.014848,67.3613421 130.922213,68.9509098 130.45021,71.0007732 C129.462018,75.2892112 132.350271,76.5632617 132.572213,81.3289694 C132.872487,87.7771027 127.65234,89.5673634 128.158488,94.6605699 C128.646558,99.5840363 133.878756,101.754715 136.822243,104.641298" id="Fill-7" fill="#E2B150"></path>
            <path d="M171.237134,136.104327 C170.7755,131.911014 170.343161,127.707742 170.094667,123.481567 C169.83304,119.040299 169.787584,114.580111 170.053251,110.136852 C170.287603,106.223358 170.960356,102.363638 171.027025,98.4302278 C171.082583,95.1480712 170.578523,92.0839948 169.585556,89.1852211 C169.361305,89.3803979 168.982503,89.4082803 168.81381,89.0657251 C166.330888,84.0080572 165.173268,78.4295859 162.625697,73.4057752 C160.25389,68.7304944 155.857765,66.2170954 152.767749,62.1303324 C152.625319,61.943122 152.4839,61.7379872 152.34248,61.539823 C152.311166,62.55056 152.393997,63.5533305 152.695019,64.4963531 C153.258676,66.2629022 154.502158,67.3254207 155.651696,68.359061 C157.516413,70.0359882 159.245771,71.8493399 159.774074,74.9084373 C160.238738,77.5990887 160.159947,80.4062488 160.6832,83.0829591 C161.228675,85.8741863 162.440842,88.0848622 163.7318,90.3443323 C165.444996,93.3426859 167.0693,96.5750525 166.426851,100.503483 C166.040978,102.861538 165.167207,105.014457 164.402532,107.181318 C163.472194,109.821183 162.928739,112.239981 162.654991,115.128797 C162.172145,120.221318 162.025675,125.879453 162.86106,130.914218 C163.554015,135.085624 164.89346,138.95829 166.185428,142.845893 C166.78343,144.646299 167.301632,146.422806 167.72488,148.191347 C168.902702,148.227196 170.079514,148.26404 171.257337,148.300885 C171.28057,147.842817 171.304813,147.386741 171.329057,146.934647 C171.518963,143.286036 171.637149,139.737005 171.237134,136.104327" id="Fill-9" fill="#E2B150"></path>
            <path d="M190.092997,79.7272822 C190.05762,84.2360281 190.38682,88.7427799 190.901749,93.2196196 C191.748826,100.582974 193.540267,102.735646 192.145832,105.775709 C189.777554,110.937535 182.402479,111.211729 182.605896,113.528917 C182.77197,115.414375 187.608761,114.763289 190.556825,118.232092 C193.656224,121.87937 190.232538,126.749055 192.287339,133.585957 C193.866519,138.839513 195.85548,144.090078 197.980051,149.223987 C199.183844,149.251905 200.386655,149.28082 201.590448,149.309735 C190.483124,125.531634 192.472085,113.64358 196.526656,107.169612 C199.371538,102.626965 203.988207,98.9497749 203.780859,93.0680651 C203.545997,86.4206062 196.834237,85.7096961 195.169563,78.5607115 C192.989961,69.2022222 204.337061,64.4920684 199.594608,59.6802135 C198.311217,58.3780414 196.654405,57.331119 194.698856,56.4955752 C191.559167,63.7861435 190.155889,71.6510236 190.092997,79.7272822" id="Fill-11" fill="#E2B150"></path>
            <path d="M118.638584,180.066339 C118.437854,168.133056 118.236129,156.199772 118.035398,144.265487 C148.973783,144.605178 179.911173,144.943867 210.849558,145.282556 C209.055898,163.167952 207.261246,181.053348 205.467586,198.937741 L140.869027,203.787611 L118.638584,180.066339 Z" id="Fill-13" fill="#527ACC"></path>
            <path d="M338.973451,153.345133 C340.99115,157.380531 339.565976,140.081741 319.228962,138.293693 C298.891948,136.506648 188.334269,164.771448 188.334269,164.771448 C188.334269,164.771448 161.415929,160.46529 161.415929,177.688917 C161.415929,194.912545 212.463132,196.725664 212.463132,196.725664 L313.130853,182.906649 L338.973451,153.345133 Z" id="Fill-15" fill="#527ACC"></path>
            <g id="Group-19" transform="translate(131.150442, 145.274336)" fill="#3D62A3">
                <path d="M0.45905153,58.6644871 C1.67312991,69.2012329 89.3755542,64.5424115 109.423336,63.4773109 C170.820728,60.2144469 188.573252,52.9336102 198.987347,39.0068242 C208.829875,25.8421018 211.983481,6.82131335 205.656284,1.69154264 C197.791255,-4.68415728 183.496106,16.5095555 153.04722,16.4370253 C138.367364,16.4022506 129.237295,11.4374115 110.217733,15.5646762 C106.441599,16.3843665 104.511065,17.0768805 94.1649185,20.7282281 C48.7773726,36.7494469 52.2777155,35.29785 45.9774981,37.7191653 C15.3767274,49.4839562 0.0793397724,55.3658548 0.45905153,58.6644871" id="Fill-17"></path>
            </g>
            <path d="M186.395111,178.566372 C186.395111,178.566372 202.908193,210.49627 199.213222,210.579259 C195.518251,210.662248 132.086589,210.579259 132.086589,210.579259 L140.336174,226.99115 L108.955752,199.626666 L186.395111,178.566372 Z" id="Fill-20" fill="#462F35"></path>
            <path d="M207.80956,205.038351 C206.600358,215.672959 119.177228,210.970867 99.1935181,209.895875 C37.9933433,206.602706 20.2965592,199.254247 9.91674337,185.198113 C0.10567096,171.911121 -3.03885245,152.713673 3.26911928,147.536259 C10.8450601,141.316944 23.6771459,160.153386 55.7090523,162.418693 C69.6885854,163.407446 78.7247325,161.892227 100.328017,165.948521 C105.535355,166.926243 109.636085,167.910984 116.633322,169.592666 C120.78983,170.59245 145.325479,176.488866 153.810812,180.490006 C154.552868,180.83998 157.821897,182.424391 162.436587,183.898495 C163.86492,184.354765 164.936668,184.640561 165.137869,184.700729 C175.908136,187.938744 208.581497,198.252458 207.80956,205.038351" id="Fill-22" fill="#3D62A3"></path>
            <path d="M152.57834,179.575221 C152.57834,179.575221 136.065258,211.505119 139.760229,211.588108 C143.4552,211.671098 206.886862,211.588108 206.886862,211.588108 L198.637278,228 L230.017699,200.635516 L152.57834,179.575221 Z" id="Fill-24" fill="#462F35"></path>
            <path d="M152.952707,178.566372 C152.952707,178.566372 151.868599,180.647104 150.318584,183.739707 C151.126155,185.136528 152.089027,186.43836 153.296375,187.459229 C156.228077,189.935911 159.226909,189.103018 161.831976,186.67433 C162.081461,186.44236 162.537348,186.924298 162.565402,187.159268 C162.793847,189.024028 164.230641,190.531834 165.116363,192.188622 C166.491037,191.051768 168.070108,190.192878 169.403702,189.000031 C169.70629,188.728066 170.128111,189.329989 170.147148,189.580957 C170.308461,191.632693 171.363513,193.307478 172.161064,195.129244 C174.611831,193.60344 177.492433,192.958523 179.88709,191.324733 C180.214727,191.100761 180.611499,191.616695 180.631538,191.905658 C180.746762,193.636436 180.498279,198.000875 182.684531,198.692786 C184.122327,199.148727 186.17532,198.510809 187.635159,198.357829 C189.068948,198.206848 190.285313,197.940883 191.605882,197.333961 C192.853308,196.759034 194.109751,196.036127 195.504464,195.890146 C196.871122,195.747164 197.861047,196.122116 198.747771,197.144985 C200.416016,199.066738 201.014179,201.163469 204.057097,201.346445 C205.854593,201.455431 207.636058,200.910501 209.418524,200.757521 C212.114768,200.525551 214.229882,201.408437 214.844076,204.224075 C215.686715,208.088579 211.10781,210.80723 208.294338,212.435021 C207.530853,212.875964 206.787407,213.352903 206.051977,213.84384 L199.388017,226.99115 L231.026549,199.626666 L152.952707,178.566372 Z" id="Fill-26" fill="#6D5866"></path>
            <path d="M139.728849,58.5732892 C136.424847,57.5238488 129.426197,70.4705879 125.595673,79.1550301 C116.469953,99.8370486 103.228968,146.652814 124.156978,164.323525 C133.274705,172.022069 148.253114,167.573116 168.439797,162.607883 C170.6408,162.066781 187.971075,157.804484 187.641374,154.428801 C187.125842,149.146849 144.539484,158.033832 134.358722,139.984847 C130.217479,132.642735 134.760357,127.403476 139.227304,96.2479027 C140.229395,89.2602379 144.415596,60.0625614 139.728849,58.5732892" id="Fill-28" fill="#F4BE9A"></path>
            <path d="M134.784504,140.106623 C130.676351,132.748386 135.18293,127.497619 139.614185,96.2726235 C140.608268,89.2706065 144.76003,60.0088025 140.111722,58.5162594 C140.105775,58.5142694 140.10082,58.5142694 140.094873,58.5132743 C136.952062,65.0237471 134.440588,71.8377037 132.455394,78.7989244 C129.709027,88.4327923 128.315526,98.2397952 126.691096,108.099535 C124.201427,123.20805 120.162652,140.777272 126.35511,155.499717 C129.397819,162.733575 135.055077,166.571401 141.645961,168.477876 C149.172453,167.808222 158.182638,165.365426 168.593261,162.779347 C170.776677,162.237056 187.968478,157.965398 187.641411,154.5823 C187.129007,149.288748 144.883918,158.19525 134.784504,140.106623" id="Fill-30" fill="#EFBC9A"></path>
            <path d="M196.790387,58.5732892 C200.272962,57.5238488 207.648875,70.4705879 211.688066,79.1550301 C221.306321,99.8370486 235.263407,146.652814 213.204127,164.323525 C203.593809,172.022069 187.805148,167.573116 166.527711,162.607883 C164.207979,162.066781 145.939843,157.804484 146.288101,154.428801 C146.831819,149.146849 191.719323,158.033832 202.450811,139.984847 C206.815439,132.642735 202.027147,127.403476 197.319223,96.2479027 C196.262544,89.2602379 191.850291,60.0625614 196.790387,58.5732892" id="Fill-32" fill="#EFBC9A"></path>
            <path d="M148.463553,31.126189 C150.061514,40.8534331 150.014633,42.8959333 150.560254,44.8188774 C150.560254,44.8188774 150.816606,45.6266345 151.117844,46.3630599 C152.446486,49.6081537 154.992052,52.1590185 158.405425,55.0283646 C162.773384,58.7004444 164.957863,60.5369867 166.527895,60.5309587 C168.692424,60.5239259 170.587634,58.8360753 174.291272,55.460374 C178.433802,51.6848128 180.505565,49.7970322 181.383347,47.3315646 C182.505511,44.1799054 181.774359,43.2355128 182.091557,35.4764231 C182.1534,33.9714229 182.358881,32.2222872 182.848643,30.072287 C184.885495,21.1377299 188.504348,19.8989681 187.460985,15.8139676 C185.748314,9.11380331 174.27232,5.63763469 165.581287,6.09275156 C164.694529,6.1399712 150.218119,7.06828906 146.729935,15.554762 C145.718492,18.0142015 146.47857,19.044996 148.463553,31.126189" id="Fill-34" fill="#F6C5A2"></path>
            <path d="M151.624017,46.6551976 C152.091842,45.39935 152.536724,44.1749969 153.452424,43.0982749 C153.67686,42.8354917 154.083837,42.9909963 154.234459,43.2311428 C155.627958,45.4564339 156.204509,50.3489251 159.865312,49.2840135 C163.023378,48.3657487 164.39992,44.0736236 165.461253,41.4005184 C166.468722,38.8632338 167.354497,36.311186 168.875675,34.0140477 C169.678658,32.8015051 171.049214,30.7090819 172.833731,31.1687063 C174.481591,31.5928994 175.289561,34.0219214 175.852148,35.3446951 C177.030188,38.1112999 178.245136,40.8493627 179.651602,43.5126259 C180.183267,44.5204534 180.752836,45.5341863 181.372279,46.5183929 C181.375272,46.5085508 181.380259,46.499693 181.383252,46.4898509 C183.703423,40.3346227 180.8067,38.3612884 182.84857,29.5831495 C184.885453,20.8305999 188.504361,19.6170732 187.460982,15.615289 C185.749283,9.05063084 174.272117,5.64527591 165.580953,6.09210572 C164.695178,6.13737923 150.217551,7.04678615 146.729314,15.3603795 C145.718853,17.7697173 146.478943,18.7795133 148.462959,30.614598 C150.461937,42.5353087 149.88738,42.675066 151.11729,45.5410757 C151.220032,45.7812221 151.391601,46.1670311 151.624017,46.6551976" id="Fill-36" fill="#F4BE9A"></path>
            <path d="M182.452104,40.3539823 C183.316884,49.4356536 180.282569,56.4253952 177.248253,64.4136713 C172.191061,75.3975508 178.259692,87.3799649 176.236815,99.362379 C174.213938,106.352121 167.133869,112.343328 168.145307,120.331604 C170.168184,129.318414 173.2025,138.305225 171.179623,147.292035 C164.099554,138.305225 166.12243,126.322811 166.12243,115.338931 C166.12243,110.346259 170.168184,107.350655 171.179623,102.357983 C172.191061,97.36531 170.168184,92.3726375 165.110992,88.3784994 C159.042361,82.3872924 160.0538,72.4019473 152.973731,66.4107403 C149.939415,63.4151368 150.950854,59.4209987 150.950854,55.4268607 C150.950854,53.4297917 152.973731,50.4341882 148.300885,49.171042" id="Stroke-38" stroke="#462F35"></path>
            <path d="M170.470669,147.292035 C170.470669,147.292035 175.264298,151.877061 172.83519,154.988429 C170.407091,158.100746 157.380531,154.988429 157.380531,154.988429" id="Stroke-40" stroke="#462F35"></path>
            <polygon id="Fill-42" fill="#B7ACAB" points="126.106195 160.40708 158.389381 160.40708 158.389381 144.265487 126.106195 144.265487"></polygon>
            <polygon id="Fill-44" fill="#545252" points="130.141593 159.39823 155.362832 159.39823 155.362832 145.274336 130.141593 145.274336"></polygon>
            <path d="M128.355929,154.353982 L128.355929,154.353982 C128.227805,154.353982 128.123894,154.252197 128.123894,154.12888 L128.123894,149.534837 C128.123894,149.41152 128.227805,149.309735 128.355929,149.309735 C128.484053,149.309735 128.587965,149.41152 128.587965,149.534837 L128.587965,154.12888 C128.587965,154.252197 128.484053,154.353982 128.355929,154.353982" id="Fill-45" fill="#545252"></path>
            <path d="M158.389381,152.336283 C158.389381,152.894104 157.937216,153.345133 157.380531,153.345133 C156.82271,153.345133 156.371681,152.894104 156.371681,152.336283 C156.371681,151.778462 156.82271,151.327434 157.380531,151.327434 C157.937216,151.327434 158.389381,151.778462 158.389381,152.336283" id="Fill-46" fill="#545252"></path>
            <path d="M190.238748,16.7405166 C186.466793,4.61443432 159.99664,-3.42537082 149.77506,6.44796902 C144.750086,11.3007974 145.0497,19.0172137 145.511025,29.8876691 C146.184659,45.7656604 150.679853,58.1522503 154.010324,65.5752212 C153.248393,58.6213637 153.003345,52.8303085 152.927946,48.696122 C152.536067,27.2306906 156.204844,22.6333793 158.973788,20.6760786 C159.416263,20.363669 159.798221,20.1450821 160.026403,20.021316 C158.341822,32.443838 156.637398,46.3585399 157.528302,46.5182381 C157.902323,46.5841136 158.52536,44.1966258 159.422216,41.6175002 C162.534426,32.6754004 169.379898,20.3047803 173.30662,20.5662861 C176.413869,20.7738937 180.116377,29.0552423 182.965681,63.3973373 C183.628402,48.8049163 186.07293,37.389491 188.362691,29.3047707 C190.153427,22.9837172 191.36081,20.3467011 190.238748,16.7405166" id="Fill-47" fill="#6D5866"></path>
            <path d="M190.238748,16.7405166 C186.466793,4.61443432 159.99664,-3.42537082 149.77506,6.44796902 C144.750086,11.3007974 145.0497,19.0172137 145.511025,29.8876691 C146.184659,45.7656604 150.679853,58.1522503 154.010324,65.5752212 C153.248393,58.6213637 153.003345,52.8303085 152.927946,48.696122 C152.536067,27.2306906 156.204844,22.6333793 158.973788,20.6760786 C159.416263,20.363669 159.798221,20.1450821 160.026403,20.021316 C158.341822,32.443838 156.637398,46.3585399 157.528302,46.5182381 C157.902323,46.5841136 158.52536,44.1966258 159.422216,41.6175002 C162.534426,32.6754004 169.379898,20.3047803 173.30662,20.5662861 C176.413869,20.7738937 180.116377,29.0552423 182.965681,63.3973373 C183.628402,48.8049163 186.07293,37.389491 188.362691,29.3047707 C190.153427,22.9837172 191.36081,20.3467011 190.238748,16.7405166" id="Fill-48" fill="#6D5866"></path>
            <path d="M189.273813,15.749035 C187.575343,9.89617151 181.261789,4.94049815 173.909346,2.22534339 C174.405517,1.80868554 174.27479,0.850569041 173.476558,0.767040935 C172.853621,0.702183818 172.321797,1.11982435 171.83553,1.52468999 C163.391708,-1.04306224 154.0526,-0.618542931 148.880933,4.73609997 C144.660012,9.1060939 144.080651,15.8748185 144.307444,23.3658155 C146.559526,21.2333921 148.964123,19.2778518 151.497468,17.510004 C154.430918,15.4650394 157.405964,13.5635467 160.948487,13.1419754 C164.417723,12.7282656 167.916669,13.5468411 171.117517,14.9648535 C177.631124,17.8509952 182.754264,22.8597335 187.642688,28.2477876 C189.357994,21.5576777 190.218618,19.0056484 189.273813,15.749035" id="Fill-49" fill="#462F35"></path>
            <path d="M187.981625,23.8995534 C186.802551,23.2227093 185.981626,22.1158822 185.288467,20.9655509 C183.671767,22.3860128 183.206979,19.6745898 182.583237,18.4979537 C182.16875,17.7148785 182.28545,17.5681784 181.288468,17.8585435 C180.95044,17.9576925 180.78042,18.301679 180.388066,18.272339 C180.10034,18.2510928 179.81865,18.2055651 179.566135,18.0507712 C178.849838,17.613706 178.707987,16.6009693 178.622474,15.7157099 C178.357886,15.8573514 178.088268,15.9908991 177.804566,16.1345641 C177.615432,16.230678 177.317645,15.9625708 177.234144,15.8189059 C176.959496,15.3474421 176.758289,14.8962127 176.593299,14.4115964 C175.855875,14.7191608 175.104366,15.0064907 174.356882,14.5977538 C173.355876,14.0493989 173.705976,13.1671747 172.40819,13.4170708 C171.713019,13.5516302 171.386058,14.0261292 170.689881,13.6558379 C170.150646,13.368508 169.818654,12.5874563 169.560103,11.9419758 C167.590285,12.5692452 166.877005,12.4468265 166.156683,10.6398857 C165.397126,11.0789743 164.645618,11.4674767 163.767348,11.6829742 C163.469562,11.7558184 163.051051,11.356187 163.08928,11.0546929 C163.149642,10.7339761 163.181835,10.4112358 163.182842,10.0884956 C161.034955,11.6748804 159.167752,12.9577476 157.702964,10.3829075 C156.719061,11.7113025 155.878015,14.0544575 154.258298,14.427784 C152.995723,14.7191608 152.218057,13.6770841 151.486669,12.7766489 C150.454476,13.9876837 150.009808,16.1021889 148.676811,16.8933578 C147.968562,17.3142354 147.387073,16.918651 146.68486,17.0754683 C145.776409,17.2778133 145.033955,18.2622217 144.351863,19.180868 C144.245223,20.9311523 144.246229,22.7563041 144.306591,24.6320423 C146.595323,22.6116275 149.036972,20.759159 151.611417,19.0847542 C154.590289,17.1462891 157.612421,15.3454186 161.212017,14.9457872 C164.736161,14.5542497 168.289479,15.329231 171.541993,16.6738135 C178.157685,19.4074944 183.361908,24.1524846 188.327701,29.2566372 C188.864924,27.3009728 189.319653,25.7196466 189.663717,24.3750641 C189.187862,24.4155331 188.702953,24.3133489 187.981625,23.8995534" id="Fill-50" fill="#B53B35"></path>
        </g>
    </g>
</svg>