<?xml version="1.0" encoding="UTF-8"?>
<svg width="192px" height="128px" viewBox="0 0 192 128" version="1.1" xmlns="http://www.w3.org/2000/svg" xmlns:xlink="http://www.w3.org/1999/xlink">
    <!-- Generator: Sketch 46.2 (44496) - http://www.bohemiancoding.com/sketch -->
    <title>arrow</title>
    <desc>Created with Sketch.</desc>
    <defs></defs>
    <g id="Page-1" stroke="none" stroke-width="1" fill="none" fill-rule="evenodd">
        <g id="arrow">
            <polygon id="Combined-Shape" fill="#D8D8D8" points="64 64 0 64 0 128 192 128 192 64 128 64 128 0 64 0"></polygon>
            <g>
                <path d="M107.164169,19.1844381 C107.618551,20.4719028 112.124416,33.9227111 103.497293,42.56235 C98.8881597,47.177758 91.1290522,49.8210926 85.1617962,46.9458475 C75.7157806,42.3938395 75.4567715,26.2763387 79.5199761,16.5544508 C80.3902242,14.4722617 84.2329361,5.27926327 91.3674075,4.57352128 C98.8635985,3.83163018 104.967058,12.9551111 107.164169,19.1844381 Z" id="Fill-1" fill="#6D5866"></path>
                <path d="M0.566371681,85.5514313 C0.566371681,85.5514313 0.800097849,78.6423811 12.2173689,77.6385646 C23.63464,76.6353111 85.7021091,92.5032688 85.7021091,92.5032688 C85.7021091,92.5032688 100.814159,90.0857769 100.814159,99.7551817 C100.814159,109.42515 72.1560803,110.442478 72.1560803,110.442478 L15.6408688,102.684434 L0.566371681,85.5514313 Z" id="Fill-3" fill="#527ACC"></path>
                <path d="M71.9484142,53.4091497 C72.2200065,56.1758312 75.1249841,57.3956174 76.7595568,59.0176974 C79.4793832,61.7164883 81.0102267,67.8395457 75.6101694,82.9393091 C88.1268363,83.2338757 100.643503,83.5284423 113.16017,83.8230088 C106.856664,70.4423921 107.985417,63.7532058 110.286423,60.1101186 C111.900919,57.5538417 114.52092,55.4845817 114.403248,52.1747754 C114.269962,48.4340604 110.460978,48.0334499 109.516261,44.0110731 C108.279317,38.7447837 114.718898,36.0942455 112.027513,33.3864773 C109.206188,30.5474166 103.258485,29.8320406 96.2361239,30.0559112 C84.1750852,30.4402504 79.7743982,32.2390704 78.0472499,33.1771948 C77.7868113,33.3185867 77.5514685,33.462223 77.5514685,33.462223 C76.9329966,34.134957 76.0881049,35.1258228 75.2108675,36.4185493 C74.089922,38.0686833 73.4831614,38.9619213 73.2210498,40.1132559 C72.6728461,42.5236521 74.2761885,43.2390281 74.3994368,45.9176202 C74.5661844,49.5410697 71.6673413,50.5470847 71.9484142,53.4091497" id="Fill-5" fill="#E5B958"></path>
                <path d="M76.8124876,58.7459918 C79.5621177,61.442217 81.1097361,67.5600137 75.6505053,82.6454218 C76.29887,82.659996 76.9477985,82.6751308 77.5961632,82.6902655 C77.9863096,81.7956344 78.3702542,80.8982006 78.7322109,79.9923586 C81.0911308,74.0842061 78.941379,71.0684697 81.3561146,67.6082206 C82.3365548,66.2034929 83.3215054,65.714697 83.2532861,64.5184923 C83.1749186,63.1496394 81.8167355,62.610955 80.6575722,61.0162022 C79.4284982,59.3261567 79.2655613,57.6075233 79.0496277,55.3339496 C78.5044375,49.5877947 80.5459407,47.0653387 80.8396781,41.6846597 C81.0172736,38.4278887 80.4743386,35.3263889 79.5333641,32.2831858 C78.9284117,32.5208573 78.4627167,32.7428334 78.1137273,32.9300557 C77.8509987,33.0713132 77.613077,33.2148129 77.613077,33.2148129 C76.9878279,33.8869073 76.1336779,34.8773917 75.246264,36.1683287 C74.113599,37.8168938 73.5001896,38.7092827 73.2352058,39.8600832 C72.6804311,42.2676273 74.3019067,42.9828838 74.4265055,45.6583688 C74.5950803,49.2783735 71.6644718,50.2834321 71.9486247,53.1427761 C72.2226293,55.9068274 75.1600033,57.1254539 76.8124876,58.7459918" id="Fill-7" fill="#E2B150"></path>
                <path d="M96.1331278,76.4094469 C95.8739651,74.0553059 95.6312481,71.6955745 95.4917426,69.322985 C95.3448648,66.8296417 95.3193455,64.3256766 95.4684917,61.8312152 C95.6000579,59.634166 95.9777436,57.4673053 96.0151719,55.2590753 C96.0463622,53.416461 95.7633814,51.6962778 95.2059264,50.0688961 C95.0800311,50.178469 94.8673702,50.1941223 94.7726653,50.0018106 C93.378744,47.1624181 92.7288524,44.0306447 91.298637,41.2102597 C89.9670963,38.5855407 87.4990959,37.1745097 85.7643501,34.8801866 C85.6843896,34.775086 85.6049963,34.6599226 85.5256029,34.5486726 C85.5080229,35.1161038 85.5545247,35.6790627 85.7235193,36.2084789 C86.0399586,37.2002258 86.7380534,37.7967274 87.3834084,38.3770167 C88.430267,39.3184495 89.4011348,40.3364715 89.6977259,42.0538595 C89.9585899,43.5644007 89.9143564,45.1403502 90.208112,46.6430647 C90.5143437,48.2100695 91.1948585,49.4511507 91.9196068,50.7196251 C92.8814011,52.4029114 93.793291,54.2175734 93.4326181,56.4230082 C93.2159876,57.7468281 92.7254498,58.9554847 92.2961584,60.1719679 C91.7738632,61.6539977 91.4687657,63.0119194 91.3150828,64.6337107 C91.0440111,67.4926698 90.9617822,70.6691668 91.4307703,73.4957013 C91.819798,75.8375432 92.5717669,78.0116715 93.2970823,80.1941855 C93.6328029,81.2049399 93.923723,82.2022772 94.1613361,83.1951422 C94.8225697,83.2152678 95.4832362,83.2359525 96.1444697,83.2566372 C96.1575129,82.9994762 96.1711232,82.7434333 96.1847335,82.4896266 C96.2913475,80.4412836 96.3576977,78.4488451 96.1331278,76.4094469" id="Fill-9" fill="#E2B150"></path>
                <path d="M106.718875,44.759176 C106.699015,47.2904018 106.883829,49.820508 107.172912,52.3338215 C107.648464,56.4676345 108.654185,57.676152 107.871344,59.3828542 C106.541785,62.2807215 102.401392,62.434655 102.515591,63.7355326 C102.608825,64.794035 105.324217,64.428513 106.97927,66.3759112 C108.719284,68.423506 106.797215,71.1573642 107.950787,74.9956249 C108.837344,77.9449899 109.953954,80.8926756 111.146696,83.7748697 C111.822509,83.7905429 112.497771,83.8067759 113.173585,83.8230088 C106.937894,70.4738996 108.054504,63.7999048 110.330754,60.1653959 C111.927881,57.6151384 114.519695,55.5507508 114.40329,52.2487383 C114.271437,48.5168316 110.503431,48.1177241 109.568878,44.1042591 C108.345241,38.8503704 114.715543,36.2060735 112.053113,33.5046813 C111.332613,32.7736373 110.402473,32.1858914 109.304621,31.7168142 C107.541989,35.8097648 106.754183,40.225136 106.718875,44.759176" id="Fill-11" fill="#E2B150"></path>
                <path d="M66.6041176,101.089875 C66.4914266,94.3904875 66.3781777,87.6911002 66.2654867,80.9911504 C83.6344042,81.1818543 101.002764,81.3719956 118.371681,81.5621369 C117.364715,91.6030608 116.35719,101.643985 115.350224,111.684346 L79.084366,114.40708 L66.6041176,101.089875 Z" id="Fill-13" fill="#527ACC"></path>
                <path d="M190.300885,86.0884956 C191.433628,88.3539823 190.63353,78.6423811 179.216259,77.6385646 C167.798988,76.6353111 105.731519,92.5032688 105.731519,92.5032688 C105.731519,92.5032688 90.619469,90.0857769 90.619469,99.7551817 C90.619469,109.424587 119.277548,110.442478 119.277548,110.442478 L175.79276,102.684434 L190.300885,86.0884956 Z" id="Fill-15" fill="#527ACC"></path>
                <g id="Group-19" transform="translate(73.628319, 81.557522)" fill="#3D62A3">
                    <path d="M0.257713139,32.9344489 C0.939301003,38.849815 50.1757497,36.2343363 61.4306446,35.6363851 C95.8993563,33.8046018 105.865685,29.7171145 111.712195,21.898568 C117.237825,14.5078466 119.00827,3.82950925 115.45616,0.949637973 C111.040704,-2.62970233 103.015358,9.26852239 85.9212466,9.2278037 C77.6799237,9.20828104 72.5542707,6.42100295 61.8766219,8.73806382 C59.7566873,9.19824082 58.6728784,9.58702065 52.8645157,11.6369 C27.3837882,20.6312684 29.3488929,19.8163368 25.8119287,21.1756718 C8.63254871,27.7804666 0.0445416266,31.0825851 0.257713139,32.9344489" id="Fill-17"></path>
                </g>
                <path d="M104.642869,100.247788 C104.642869,100.247788 113.913372,118.173344 111.839002,118.219935 C109.764632,118.266525 74.1538746,118.219935 74.1538746,118.219935 L78.7852203,127.433628 L61.1681416,112.071111 L104.642869,100.247788 Z" id="Fill-20" fill="#462F35"></path>
                <path d="M116.665016,115.10925 C115.986166,121.079556 66.9065141,118.439785 55.6875891,117.83628 C21.3295962,115.987484 11.3945595,111.862034 5.56729452,103.970871 C0.0593240477,96.5115065 -1.70602243,85.733992 1.83529503,82.8273734 C6.08845477,79.335828 13.2924328,89.910673 31.2752574,91.1824242 C39.1234164,91.7375135 44.196341,90.8868645 56.3245006,93.1640817 C59.2479188,93.7129783 61.5500827,94.2658157 65.4783561,95.2099179 C67.8118344,95.7711998 81.586234,99.0814686 86.3499295,101.327722 C86.7665222,101.524199 88.6017668,102.413693 91.19247,103.24126 C91.9943411,103.497412 92.5960239,103.657859 92.7089793,103.691637 C98.7554447,105.50947 117.098384,111.299626 116.665016,115.10925" id="Fill-22" fill="#3D62A3"></path>
                <path d="M85.6580155,100.814159 C85.6580155,100.814159 76.3875132,118.739716 78.4618829,118.786307 C80.5362527,118.832897 116.14701,118.786307 116.14701,118.786307 L111.515665,128 L129.132743,112.637482 L85.6580155,100.814159 Z" id="Fill-24" fill="#462F35"></path>
                <path d="M85.8681864,100.247788 C85.8681864,100.247788 85.2595641,101.415918 84.3893805,103.152116 C84.8427535,103.936296 85.3833136,104.66715 86.061123,105.240269 C87.7069907,106.630687 89.3905456,106.163098 90.8530391,104.799624 C90.9931009,104.669395 91.2490373,104.939957 91.2647872,105.07187 C91.3930367,106.118753 92.199658,106.96524 92.6969058,107.895367 C93.4686524,107.257133 94.3551484,106.774949 95.1038325,106.105281 C95.2737068,105.952599 95.5105182,106.29052 95.5212057,106.431414 C95.6117678,107.583266 96.2040776,108.523496 96.6518256,109.546242 C98.0276944,108.68965 99.6448747,108.327592 100.989244,107.410376 C101.17318,107.284638 101.395929,107.574285 101.407179,107.73651 C101.471867,108.708174 101.332367,111.158386 102.559737,111.546827 C103.366921,111.802794 104.519478,111.444665 105.339037,111.358781 C106.143971,111.27402 106.826843,111.124706 107.568214,110.783978 C108.268524,110.461212 108.973895,110.05537 109.756892,109.973415 C110.524138,109.893145 111.079886,110.103644 111.577696,110.677886 C112.514255,111.756765 112.850066,112.933877 114.55837,113.036601 C115.567491,113.097786 116.567611,112.79186 117.568294,112.705977 C119.081975,112.575748 120.269407,113.071403 120.614218,114.652112 C121.087279,116.821658 118.516665,118.347918 116.937172,119.261766 C116.508549,119.509313 116.091176,119.777068 115.678303,120.052682 L111.937132,127.433628 L129.699115,112.071111 L85.8681864,100.247788 Z" id="Fill-26" fill="#6D5866"></path>
                <path d="M78.4442661,32.8832501 C76.5893877,32.2940906 72.6603213,39.5624353 70.5098515,44.4379116 C65.3866406,56.0488694 57.9531049,82.3314046 69.7021633,92.2518033 C74.8208872,96.573793 83.2298185,94.0761356 94.5626932,91.2886362 C95.7983439,90.9848595 105.527621,88.5919911 105.342526,86.6968705 C105.053104,83.7315642 81.1449734,88.7207478 75.4294578,78.5879841 C73.1045498,74.4660969 75.6549374,71.5247583 78.162697,54.0339103 C78.7252742,50.1110108 81.0754225,33.7193327 78.4442661,32.8832501" id="Fill-28" fill="#F4BE9A"></path>
                <path d="M75.6684933,78.6563496 C73.3621621,74.5254094 75.8921713,71.5776107 78.3798931,54.0477886 C78.9379752,50.1168317 81.2687886,33.6891523 78.6592124,32.8512334 C78.6558739,32.8501161 78.6530918,32.8501161 78.6497533,32.8495575 C76.8853682,36.5045598 75.4754181,40.3299389 74.3609231,44.2379927 C72.8191032,49.6464799 72.0367867,55.1521657 71.124826,60.687458 C69.727117,69.1694318 67.4597346,79.0328545 70.9362021,87.2980866 C72.6443895,91.3592002 75.820394,93.513769 79.5205394,94.5840708 C83.7459386,94.2081245 88.8042877,92.8367306 94.6488482,91.3848964 C95.8746257,91.0804525 105.526163,88.6823286 105.342547,86.7830458 C105.054881,83.8112267 81.3383402,88.8113682 75.6684933,78.6563496" id="Fill-30" fill="#EFBC9A"></path>
                <path d="M110.478814,32.8832501 C112.433943,32.2940906 116.574807,39.5624353 118.842423,44.4379116 C124.242145,56.0488694 132.077702,82.3314046 119.693545,92.2518033 C114.298279,96.573793 105.434469,94.0761356 93.4892411,91.2886362 C92.1869355,90.9848595 81.9311401,88.5919911 82.126653,86.6968705 C82.4318983,83.7315642 107.631901,88.7207478 113.656596,78.5879841 C116.106913,74.4660969 113.418749,71.5247583 110.775704,54.0339103 C110.182481,50.1110108 107.705427,33.7193327 110.478814,32.8832501" id="Fill-32" fill="#EFBC9A"></path>
                <path d="M83.3479597,17.4743517 C84.2450607,22.9352607 84.2187412,24.0819275 84.5250547,25.1614751 C84.5250547,25.1614751 84.6689717,25.6149527 84.8380881,26.0283845 C85.5839923,27.8501915 87.0130819,29.282256 88.9293612,30.893117 C91.3815492,32.9546355 92.6079231,33.9856767 93.4893444,33.9822926 C94.7045186,33.9783444 95.768496,33.0307791 97.8477319,31.1356485 C100.173363,29.0160353 101.336458,27.9562286 101.829247,26.5721065 C102.459234,24.8027539 102.048763,24.2725686 102.226839,19.9165884 C102.261558,19.071676 102.376916,18.0897051 102.65187,16.8826874 C103.795366,11.8667957 105.827002,11.1713505 105.241255,8.87801691 C104.279755,5.11652116 97.8370921,3.1649879 92.9579157,3.42049211 C92.4600863,3.44700137 84.3329788,3.96816228 82.3747004,8.73249795 C81.8068725,10.1132359 82.2335834,10.6919276 83.3479597,17.4743517" id="Fill-34" fill="#F6C5A2"></path>
                <path d="M85.1222553,26.1923916 C85.3848937,25.4873544 85.6346522,24.7999983 86.148729,24.1955227 C86.2747283,24.0479953 86.5032069,24.1352962 86.5877664,24.2701152 C87.3700816,25.5194015 87.6937597,28.2660632 89.7489472,27.6682181 C91.5218965,27.152701 92.2946918,24.743087 92.8905282,23.2423963 C93.4561248,21.8179558 93.9534017,20.3852272 94.8073966,19.0956057 C95.2581938,18.4148801 96.0276292,17.2401863 97.0294631,17.4982211 C97.9545775,17.7363646 98.4081747,19.100026 98.7240128,19.8426358 C99.3853688,21.3958175 100.067445,22.9329756 100.85704,24.4281408 C101.155518,24.9939388 101.475276,25.5630519 101.823034,26.115589 C101.824714,26.1100636 101.827514,26.1050908 101.829194,26.0995654 C103.131746,22.6439987 101.505516,21.5361619 102.651829,16.6080839 C103.795342,11.6943719 105.82701,11.0130937 105.241253,8.76647806 C104.280299,5.08105591 97.8369782,3.1692777 92.9577278,3.42012953 C92.4604508,3.44554623 84.3326601,3.95609047 82.3743519,8.62337096 C81.8070754,9.97598166 82.2337928,10.5428847 83.347626,17.1871427 C84.4698592,23.8794715 84.1473012,23.9579318 84.837777,25.5669197 C84.8954566,25.7017387 84.9917761,25.9183333 85.1222553,26.1923916" id="Fill-36" fill="#F4BE9A"></path>
                <path d="M102.429251,22.6548673 C102.914742,27.7533494 101.211267,31.6774149 99.5077914,36.1620611 C96.6686659,42.3284496 100.075616,49.0554189 98.9399663,55.7823882 C97.8043161,59.7064537 93.8295404,63.0699383 94.3973655,67.5545845 C95.5330157,72.5998115 97.236491,77.6450385 96.1008408,82.6902655 C92.1260652,77.6450385 93.2617153,70.9180692 93.2617153,64.7516806 C93.2617153,61.9487768 95.5330157,60.2670344 96.1008408,57.4641306 C96.6686659,54.6612267 95.5330157,51.8583228 92.6938902,49.6159997 C89.2869397,46.252515 89.8547648,40.6467073 85.8799891,37.2832226 C84.1765138,35.6014803 84.7443389,33.3591572 84.7443389,31.1168341 C84.7443389,29.9956725 85.8799891,28.3139302 83.2566372,27.6047955" id="Stroke-38" stroke="#462F35"></path>
                <path d="M95.702832,82.6902655 C95.702832,82.6902655 98.3939919,85.2643148 97.030282,87.0110481 C95.6671387,88.7583138 88.3539823,87.0110481 88.3539823,87.0110481" id="Stroke-40" stroke="#462F35"></path>
                <polygon id="Fill-42" fill="#B7ACAB" points="70.7964602 90.0530973 88.920354 90.0530973 88.920354 80.9911504 70.7964602 80.9911504"></polygon>
                <polygon id="Fill-44" fill="#545252" points="73.0619469 89.4867257 87.2212389 89.4867257 87.2212389 81.5575221 73.0619469 81.5575221"></polygon>
                <path d="M72.059469,86.6548673 L72.059469,86.6548673 C71.9875398,86.6548673 71.9292035,86.5977246 71.9292035,86.5284941 L71.9292035,83.949382 C71.9292035,83.8801515 71.9875398,83.8230088 72.059469,83.8230088 C72.1313982,83.8230088 72.1897345,83.8801515 72.1897345,83.949382 L72.1897345,86.5284941 C72.1897345,86.5977246 72.1313982,86.6548673 72.059469,86.6548673" id="Fill-45" fill="#545252"></path>
                <path d="M88.920354,85.5221239 C88.920354,85.8352866 88.6665072,86.0884956 88.3539823,86.0884956 C88.0408196,86.0884956 87.7876106,85.8352866 87.7876106,85.5221239 C87.7876106,85.2089612 88.0408196,84.9557522 88.3539823,84.9557522 C88.6665072,84.9557522 88.920354,85.2089612 88.920354,85.5221239" id="Fill-46" fill="#545252"></path>
                <path d="M106.8007,9.39818475 C104.683112,2.59055962 89.8226753,-1.9230152 84.0842443,3.61991243 C81.2632064,6.34430731 81.4314105,10.6763305 81.6904001,16.7790423 C82.0685807,25.6930023 84.5921982,32.6468774 86.4619365,36.8141593 C86.0341858,32.9102393 85.8966149,29.6591206 85.8542855,27.3381737 C85.6342835,15.2874053 87.6939475,12.7064586 89.2484424,11.607623 C89.4968497,11.4322352 89.7112819,11.3095198 89.8393844,11.2400371 C88.8936544,18.2140845 87.9367851,26.025847 88.4369414,26.1155021 C88.646918,26.1524848 88.9966933,24.8121408 89.5001915,23.3642107 C91.2473969,18.3440844 95.0904693,11.3991749 97.2949447,11.5459852 C99.0393653,11.6625368 101.117966,16.311715 102.717575,35.5914876 C103.089629,27.3992513 104.461996,20.9905914 105.747476,16.4518011 C106.752801,12.9031395 107.43063,11.4227094 106.8007,9.39818475" id="Fill-47" fill="#6D5866"></path>
                <path d="M106.8007,9.39818475 C104.683112,2.59055962 89.8226753,-1.9230152 84.0842443,3.61991243 C81.2632064,6.34430731 81.4314105,10.6763305 81.6904001,16.7790423 C82.0685807,25.6930023 84.5921982,32.6468774 86.4619365,36.8141593 C86.0341858,32.9102393 85.8966149,29.6591206 85.8542855,27.3381737 C85.6342835,15.2874053 87.6939475,12.7064586 89.2484424,11.607623 C89.4968497,11.4322352 89.7112819,11.3095198 89.8393844,11.2400371 C88.8936544,18.2140845 87.9367851,26.025847 88.4369414,26.1155021 C88.646918,26.1524848 88.9966933,24.8121408 89.5001915,23.3642107 C91.2473969,18.3440844 95.0904693,11.3991749 97.2949447,11.5459852 C99.0393653,11.6625368 101.117966,16.311715 102.717575,35.5914876 C103.089629,27.3992513 104.461996,20.9905914 105.747476,16.4518011 C106.752801,12.9031395 107.43063,11.4227094 106.8007,9.39818475" id="Fill-48" fill="#6D5866"></path>
                <path d="M106.258983,8.8415635 C105.305456,5.55574541 101.761005,2.773613 97.6333172,1.24931559 C97.9118694,1.01540241 97.8384784,0.477512444 97.3903486,0.430619472 C97.0406294,0.394208459 96.7420615,0.628673317 96.4690692,0.855966308 C91.7286782,-0.585578803 86.4856702,-0.347252172 83.582278,2.65886314 C81.2126385,5.11219307 80.887383,8.9121788 81.0147052,13.1176508 C82.2790319,11.9205008 83.6289814,10.8226536 85.0512099,9.83017768 C86.6980593,8.6821274 88.3682603,7.6146227 90.3570451,7.37795111 C92.3046863,7.14569298 94.2690074,7.6052441 96.0659747,8.40132125 C99.7227366,10.0216113 102.598885,12.8335346 105.343263,15.8584071 C106.306242,12.1025559 106.7894,10.6698377 106.258983,8.8415635" id="Fill-49" fill="#462F35"></path>
                <path d="M105.533544,13.4172931 C104.871608,13.0373105 104.410737,12.4159339 104.021595,11.7701338 C103.113975,12.5675861 102.853041,11.0453838 102.50287,10.3848161 C102.270175,9.94519496 102.335691,9.862837 101.775982,10.025849 C101.586212,10.0815116 101.490762,10.2746268 101.270493,10.2581552 C101.108963,10.2462275 100.950821,10.2206681 100.809058,10.1337663 C100.406926,9.88839636 100.327291,9.31984242 100.279283,8.82285471 C100.130743,8.90237274 99.9793788,8.97734689 99.8201074,9.05800089 C99.7139265,9.11195956 99.5467481,8.96144328 99.4998703,8.88078928 C99.3456821,8.61610782 99.2327237,8.36278608 99.1400978,8.09072081 C98.7261052,8.26338854 98.3042056,8.42469655 97.8845651,8.19523023 C97.322597,7.88738184 97.5191446,7.39209808 96.7905629,7.53239061 C96.4002916,7.60793275 96.2167342,7.87431816 95.8258981,7.6664353 C95.5231695,7.50512729 95.3367881,7.06664213 95.1916366,6.70426709 C94.0857738,7.05641838 93.6853362,6.98769208 93.2809451,5.97326916 C92.8545271,6.21977507 92.4326274,6.43788167 91.939564,6.55886268 C91.7723855,6.59975767 91.537432,6.37540322 91.5588941,6.2061434 C91.5927817,6.02609185 91.610855,5.84490433 91.6114198,5.66371681 C90.4055888,6.5543188 89.3573347,7.27452499 88.5349975,5.82900073 C87.9826309,6.57476629 87.5104647,7.89022177 86.6011495,8.09980858 C85.8923355,8.26338854 85.4557513,7.678363 85.0451474,7.1728555 C84.4656708,7.85273469 84.2160327,9.03982534 83.4676832,9.48399036 C83.0700696,9.72027252 82.7436198,9.49819001 82.349395,9.58622784 C81.8393878,9.69982503 81.4225712,10.2524754 81.0396422,10.7682066 C80.9797743,11.7508223 80.9803391,12.775469 81.0142266,13.828515 C82.2991285,12.694247 83.6698788,11.6542647 85.1151816,10.7142479 C86.7875309,9.62598685 88.4841662,8.61497185 90.5049922,8.3906174 C92.4834587,8.17080683 94.4783042,8.60588407 96.3042769,9.36073741 C100.018349,10.8954355 102.940019,13.5592896 105.727832,16.4247788 C106.029431,15.3268619 106.284717,14.4390999 106.477876,13.6842465 C106.210729,13.706966 105.9385,13.6495994 105.533544,13.4172931" id="Fill-50" fill="#B53B35"></path>
            </g>
        </g>
    </g>
</svg>