<?xml version="1.0" encoding="UTF-8"?>
<svg width="128px" height="192px" viewBox="0 0 128 192" version="1.1" xmlns="http://www.w3.org/2000/svg" xmlns:xlink="http://www.w3.org/1999/xlink">
    <!-- Generator: Sketch 46.2 (44496) - http://www.bohemiancoding.com/sketch -->
    <title>leftZag</title>
    <desc>Created with Sketch.</desc>
    <defs>
        <polygon id="path-1" points="0 11.1239824 0 0.243327887 27.2634345 0.243327887 27.2634345 11.1239824 2.63986606e-16 11.1239824"></polygon>
        <polygon id="path-3" points="60.672967 0.413783439 60.672967 83.9586309 0.398156474 83.9586309 0.398156474 0.413783439 60.672967 0.413783439"></polygon>
    </defs>
    <g id="Page-1" stroke="none" stroke-width="1" fill="none" fill-rule="evenodd">
        <g id="leftZag">
            <polygon id="Combined-Shape" fill="#D8D8D8" points="64 64 64 0 128 0 128 128 64 128 64 192 0 192 0 64"></polygon>
            <g transform="translate(2.000000, 3.000000)">
                <path d="M105.53125,85.1670959 C102.491546,78.8705574 97.6832763,73.7668216 92.2430217,69.6820951 C88.940266,69.3321908 85.5068119,68.8832243 81.9470711,68.3166575 C78.7921094,67.8138149 76.0799785,67.3017034 73.8343914,66.8411507 C73.8343914,66.8411507 68.1432178,65.6732583 57.9950612,66.0897834 C56.5948781,66.1471353 53.7393648,66.3197702 52.1560936,68.4406302 C51.6079321,69.1751974 51.3586675,69.9474198 51.2340352,70.5000831 L51.0873441,71.4901268 C50.4812782,75.5707981 53.094696,79.2557996 56.8948779,79.6781178 C63.4755731,80.8407963 70.0557168,82.0028955 76.636412,83.1655741 C81.0967038,84.4076183 97.5426514,88.7877938 106,86.1918982 C105.848346,85.8489457 105.695037,85.5059932 105.53125,85.1670959" id="Fill-1" fill="#634D5D"></path>
                <path d="M40.6881251,74.5529946 C41.8312199,76.3619215 44.1409785,76.5235158 47.5922249,76.8978567 C49.8419898,77.1419921 52.1512127,76.8978567 53.2975215,76.693248 C53.459826,76.6641843 55.4197997,76.3107693 55.4203354,76.3107693 C55.7053056,75.5213982 56.3336328,73.4671734 55.7781551,70.9705985 C55.4090865,69.3122218 54.6709494,68.1438596 54.1942135,67.5050387 C51.9589114,66.0262759 50.2362343,65.0102077 49.0395737,64.4446274 C48.0041462,63.9551941 47.5595498,63.9185738 47.4304561,64.101094 C47.1899455,64.441721 48.1402034,65.4275629 47.7973821,66.352371 C47.504377,67.1446484 46.4325247,67.4370296 45.5063715,67.5556096 C45.3462097,67.4881818 41.6260627,65.9204839 40.6393802,65.6060142 C40.6008128,65.5938075 40.5172501,65.5688127 40.4256525,65.6002015 C39.9258833,65.7728401 39.9714142,67.38704 40.0453351,68.7495479 C40.2349581,72.2406838 40.3297697,73.9862517 40.6881251,74.5529946" id="Fill-3" fill="#F6C5A2"></path>
                <g id="Group-7" transform="translate(0.000000, 147.000000)">
                    <mask id="mask-2" fill="white">
                        <use xlink:href="#path-1"></use>
                    </mask>
                    <g id="Clip-6"></g>
                    <path d="M17.4153796,0.529163158 C13.1003468,2.45724737 3.53528192,6.79766842 0.381640427,8.78265789 C-3.73812921,11.3746368 26.8417793,11.1168895 26.8417793,11.1168895 L27.2634345,6.54773158 C27.1417487,6.03167895 26.36296,2.94707895 23.367793,1.24215263 C20.6380706,-0.311584211 17.9802278,0.370163158 17.4153796,0.529163158" id="Fill-5" fill="#F6C5A2" mask="url(#mask-2)"></path>
                </g>
                <path d="M27,153.358761 C26.8810746,152.836966 26.1156688,149.716632 23.1397169,147.999652 C20.4286698,146.435365 17.7824399,147.132923 17.2193763,147.295503 C16.8101829,147.4828 16.350263,147.693715 15.8559619,147.921108 C17.9797094,149.25196 19.6322645,151.139759 19.7855711,153.646572 C19.7945892,153.791576 19.6931363,153.982718 19.5353206,153.982718 C16.675476,153.983816 13.9633016,155.128469 11.1203657,155.331695 C10.9991859,155.339934 10.8639153,155.277868 10.8244614,155.147144 C10.3977956,153.735002 9.92153056,152.164125 8.9008016,151.187544 C7.27135521,151.971885 5.65487224,152.766111 4.22325902,153.49992 C5.00951904,154.067853 5.63965431,154.841208 6.26753507,155.659602 C6.43493236,155.877657 6.22582665,156.146244 5.99868487,156.140752 C3.99668086,156.09022 1.99749499,156.231929 0,156.413184 C2.01045842,158.266929 26.5665706,157.98461 26.5665706,157.98461 L27,153.358761 Z" id="Fill-8" fill="#050404"></path>
                <path d="M9.92757614,101 C8.95152571,106.169963 7.97605044,111.339927 7,116.50989 C16.5896812,143.535477 23.180466,156.688854 26.7723546,155.972231 C29.8632769,155.355614 30.7340726,144.470899 29.385317,123.315876 C22.8992117,115.87725 16.4131063,108.438625 9.92757614,101" id="Fill-10" fill="#050404"></path>
                <path d="M31.4336228,117.977212 C46.1854493,121.184603 58.6092815,122.266855 67.4818801,122.631671 C88.5435368,123.497695 106.202065,124.002782 113.830031,113.502942 C116.90294,109.273732 117.477808,104.456269 117.480002,101.052055 C117.986851,97.684987 118.4937,94.3184737 119,90.9514059 C118.449817,91.287392 117.266621,91.9028119 115.667633,91.9249892 C113.022035,91.9621361 111.277137,90.3465202 110.918941,90 L10.1914972,90 C8.34237631,90 6.66165655,90.737395 5.4428056,91.9249892 C4.42142825,92.9207497 3.89099222,94.1815289 3.46752105,96.5533905 C3.10548612,98.5831674 2.78020321,101.640862 3.19215509,105.496939 C3.73081919,107.926462 4.46531128,110.994136 5.4428056,114.512564 C15.7158212,151.485995 37.7039581,183.772809 43.1789137,181.924332 C45.8102495,181.036131 44.460298,166.778903 31.4336228,117.977212" id="Fill-12" fill="#2D1E22"></path>
                <path d="M31.3652693,173.646749 C26.0405499,176.459207 14.247427,182.772977 10.4340624,185.512245 C5.45206858,189.089976 45,185.090861 45,185.090861 L44.9273335,179.610172 C44.7001151,179.011731 43.274984,175.439382 39.166615,173.775371 C35.4226632,172.258817 32.0751234,173.389505 31.3652693,173.646749" id="Fill-14" fill="#F6C5A2"></path>
                <path d="M44.9268068,179.08306 C44.6984878,178.441607 43.2641197,174.614196 39.1308894,172.831136 C35.3641712,171.205636 31.9961921,172.417332 31.2822854,172.693201 C30.7715717,172.980285 30.1991354,173.303255 29.5830017,173.652017 C32.5484183,175.057718 34.9730793,177.223183 35.521482,180.356434 C35.5537088,180.538104 35.4466501,180.790985 35.2396336,180.81061 C31.4958565,181.17395 28.1032976,182.955889 24.4092264,183.570428 C24.2524619,183.59622 24.0667478,183.535103 23.9968319,183.3753 C23.2425051,181.653919 22.4013297,179.738531 20.9298188,178.638977 C18.9044431,179.831048 16.8987312,181.034333 15.1257081,182.137812 C16.2339841,182.753472 17.166378,183.646124 18.1015029,184.595968 C18.3505782,184.848848 18.1146121,185.21331 17.815831,185.235178 C15.187977,185.424698 12.590165,185.855324 10,186.335292 C12.8889461,188.413286 45,184.955383 45,184.955383 L44.9268068,179.08306 Z" id="Fill-16" fill="#2D1E22"></path>
                <polygon id="Fill-18" fill="#F6C5A2" points="93.5338231 33.8793575 89.9364452 30 83 34.8862931 89.5832907 42 95 34.3814565"></polygon>
                <path d="M88.4772375,32.1738911 C86.9447967,33.8478196 85.6051612,35.2770152 84.5272296,36.4149954 C82.5752846,38.4742243 82.0991055,38.9239281 81.2795442,39.3254693 C79.1703545,40.359284 77.0961697,39.943742 76.2032646,39.7650925 C72.6055292,39.0443344 70.319092,36.4149954 69.5284237,35.4125424 C68.8344358,34.2342401 67.9765357,32.6224748 67.1658645,30.6153287 C66.0745977,27.9126258 65.2500357,25.9984446 65.0883459,23.4452696 C64.9783302,21.7030175 65.2611484,21.2605941 65.4372846,19.0131952 C65.5906398,17.0564518 65.6250892,14.2187817 65,10.6665139 C71.9204315,9.44452926 78.840863,8.22198462 85.7612945,7 C86.206358,8.2690271 86.8497831,10.1680875 87.5487717,12.5022909 C89.0817681,17.6187215 89.8479885,20.1769368 89.9791184,23.113172 C90.0669087,25.0923167 89.9335563,28.2744049 88.4772375,32.1738911" id="Fill-20" fill="#F6C5A2"></path>
                <path d="M67.0576258,27.2225774 C67.0960957,27.2007606 67.4099876,27.0614686 67.4099876,27.0614686 C67.6112575,27.0402112 67.8075096,27.0430082 68.0015316,27.0569933 C68.7096004,27.0872012 69.3301363,27.269008 70.0482407,27.5442356 C71.3740576,28.0521758 72.5142156,28.5343834 73.9459642,28.7262596 C76.530694,29.0719722 79.3434553,29.4299918 81.8846975,28.6669626 C83.9983106,28.0320372 87.4639449,26.502063 88.4251343,24.3891882 C89.4766443,22.0777244 89.8613431,19.7578695 90.118924,17.2315939 C90.1373227,17.0509059 90.3681419,16.9569258 90.5064105,17.044193 C90.5091982,17.0296485 90.5114283,17.0145445 90.514216,17 C90.5197913,17.0229356 90.5253667,17.0497871 90.530942,17.0732821 C90.554916,17.0956584 90.5827927,17.1113217 90.595616,17.1493613 C90.886649,18.0460884 90.9691641,18.9802957 90.9128531,19.9139436 C90.9178709,20.5594976 90.8977997,21.3857397 90.9619162,22.9901148 C90.9619162,22.9901148 91.1052025,26.5775828 90.8359134,28.2714628 C90.8175147,28.3867004 90.8030188,28.4443192 90.7846202,28.5287894 C90.3781776,30.4089515 87.5771244,33.4028901 87.5771244,33.4028901 C85.0843878,36.1137695 85.6553031,36.285507 84.2720601,37.2750955 C82.6953526,38.4022977 81.1827616,38.7301094 80.5092599,38.8694014 C78.4987906,39.2833615 78.2116604,38.5600501 75.9831951,38.7910846 C75.9831951,38.7910846 75.2483647,38.8677231 73.9855491,38.6926292 C73.5322736,38.6294164 73.2445858,38.557253 72.9747391,38.3541888 C72.7573007,38.190283 72.6759006,38.0358871 72.3753896,37.8182783 C72.1323045,37.6420655 71.9037154,37.5391349 71.7459331,37.4787191 C71.5965139,37.4283726 71.3188617,37.3176103 71.0439972,37.0876946 C70.4357271,36.5786355 70.2773873,35.8452548 70.2260942,35.6326807 C69.7165077,33.510296 66.5357735,27.5229782 67.0576258,27.2225774" id="Fill-22" fill="#6D5866"></path>
                <path d="M82.2812616,14.8242256 C81.0008968,14.9312898 80.4723317,15.3037364 78.4401673,16.1705004 C72.1749831,18.8419789 70.3638039,17.7946864 68.6819546,19.9484983 C67.0130381,22.0869339 66.9494979,25.4850818 68.0212481,26.2356699 C68.47334,26.5523064 69.0288957,26.3245104 69.2436956,26.6724689 C69.6193143,27.2795454 68.4739023,28.7106742 67.2458317,30 C66.3860699,27.6331988 66.0857999,25.6832644 65.9699654,24.3438235 C65.8260157,22.6826206 65.9963936,22.3164385 65.7889037,20.3146805 C65.5285572,17.7998118 65.1490025,17.3180231 65.0303565,15.5395053 C64.9566947,14.4375418 64.9803115,12.7928541 65.5274326,10.7284522 C72.5309211,9.48525516 79.5344096,8.24262758 86.5378981,7 C86.9888654,8.29046475 87.6394504,10.221606 88.3468281,12.595241 C89.0564549,14.9751405 89.6018892,16.8071904 90,18.3846782 C89.6373143,18.0355808 89.19928,17.8112016 88.7286321,17.6602867 C87.0906424,15.8424741 84.763831,14.6169312 82.2812616,14.8242256" id="Fill-24" fill="#F4BE9A"></path>
                <path d="M90.9884088,18.5945942 C90.906054,17.6628628 90.4113724,17.0975554 90.7126031,16.2564326 C90.8292263,15.9316088 91.0215718,15.6859964 90.9436387,15.3218519 C90.8640475,14.9485894 90.6075869,14.9451702 90.4887527,14.5149211 C90.3809729,14.1222832 90.5727657,14.0476307 90.455037,13.5039783 C90.4185577,13.3352978 90.3865001,13.2817304 90.2947491,12.9027693 C90.2151579,12.5722468 90.2278704,12.567118 90.1891802,12.4235117 C90.0681352,11.9812954 89.842074,11.6513428 89.6442013,11.3635603 C89.398795,11.0056843 89.3352326,11.0022651 89.2982006,10.8295956 C89.2401653,10.5566296 89.3777918,10.4580427 89.4214564,10.0169662 C89.4468814,9.75596739 89.4728591,9.49439874 89.3567885,9.23681916 C89.2495615,8.99975477 89.1102768,8.95929426 88.9472253,8.81511808 C89.1141458,8.51251905 89.1467561,8.10335503 89.094248,7.6959006 C89.0190785,7.10779854 88.7377456,6.56870499 88.3784797,6.07634048 C88.3259716,5.89626272 88.2563292,5.72302335 88.165131,5.56061145 C88.1656837,5.55776212 88.1656837,5.55491279 88.1662364,5.55149359 C88.1955304,4.96111207 88.026399,4.49838061 87.963942,4.33368924 C87.7246156,3.69771841 87.325554,3.33300395 86.8214762,2.88280955 C86.437338,2.53975002 85.8249277,2.06562123 84.9588203,1.6650052 C84.9588203,1.6650052 84.9588203,1.6650052 84.9588203,1.66443533 C84.7029124,1.37038431 84.3265122,1.42566134 83.9058947,1.36069658 C83.7107856,1.33049366 83.0768193,1.23247665 82.7114735,0.774873988 C82.5987192,0.63468687 82.6374094,0.609612751 82.5019938,0.45745844 C82.1565457,0.0710890668 81.7320592,-0.0274978088 81.5806148,0.00612430483 C81.5706658,0.00783390383 81.5198159,0.0169517652 81.418116,0.0437354828 C81.363397,0.0574122748 81.2882275,0.0756479974 81.1815532,0.0967330517 C81.0212653,0.128645566 80.7974149,0.167966343 80.4453343,0.214695383 C78.6158414,0.459168039 78.5450936,0.259714823 77.775159,0.473984564 C76.3170919,0.880299259 76.3883924,1.64505988 75.3216488,1.64107081 C74.5848772,1.63879135 74.3433399,1.31282781 73.2793599,1.27350703 C72.9173304,1.2604001 72.5000291,1.30655928 71.9616829,1.46441225 C70.2908197,1.95392743 69.8757294,2.80815706 68.7973787,3.31932716 C68.3402819,3.53644624 68.0174952,3.63788244 67.5570821,3.67321416 C66.8833202,3.72564186 66.5925911,3.52675851 65.9166184,3.6504195 C65.6745284,3.69486908 65.3241059,3.75926397 64.9593127,4.00772569 C64.0793874,4.60779494 63.8389556,5.79197718 63.7847893,6.11965032 C63.7079617,6.58409138 63.7687606,6.77043767 63.7239905,7.01946926 C63.7195687,7.04340365 63.7123834,7.07759563 63.7018818,7.11748627 C63.6537954,7.2964243 63.5764151,7.4149565 63.5150635,7.51183377 C63.4459739,7.62124811 63.3547756,7.76941335 63.234836,7.97399537 C63.1088166,8.34611808 62.9341581,9.02254942 63.0253563,9.85683373 C63.0546503,10.1258106 63.1309253,10.814779 63.5681243,11.5305312 C63.6162107,11.6086028 63.6377667,11.6490633 63.674246,11.6969321 C64.0379337,12.1761897 64.4928197,12.0411314 65.1212588,12.3933088 C65.5921735,12.656587 65.5335856,12.8423634 65.9276727,12.9791314 C66.3123636,13.1119102 66.6871057,13.044666 66.9490935,12.9626052 C67.2619312,13.2549467 67.732846,13.5928774 68.3176205,13.6122529 C68.9875133,13.6344777 69.372757,13.2241739 69.860806,12.9415202 C71.5897044,11.9391253 72.7669914,13.6076939 75.2310032,12.831536 C75.7776402,12.6594364 75.7743239,12.6503185 77.5944206,11.8274315 C78.0122746,11.6382359 78.5423301,11.4325141 79.2851815,11.2125457 C79.9163842,11.0256296 80.6520504,10.8780342 81.5872474,10.7988228 C82.8081989,10.695677 83.4261364,10.5919613 84.0882912,10.7908447 C84.5271484,10.9224838 85.4739525,11.292327 86.2278583,12.2240585 C86.9209653,13.0794278 86.7695208,13.5894582 87.600807,14.4664825 C88.1922141,15.0899163 88.3851123,14.9691046 88.7736722,15.5030694 C89.2948843,16.2193913 89.2882517,16.9060803 89.5016004,18.0828542 C89.6276198,18.778661 89.8553392,19.7867546 90.300829,21 C90.9552458,19.9508761 91.0370479,19.1422358 90.9884088,18.5945942" id="Fill-26" fill="#6D5866"></path>
                <path d="M91.8033181,17.6064586 C91.7790663,17.456297 91.747741,17.3042662 91.7093422,17.1491201 C91.0171538,14.389512 88.045796,17.2319893 88.0003237,19.0831511 C87.9811243,19.8682281 88.8213501,20.1106051 89.0800366,19.3921973 C89.0871101,19.3728819 89.0977203,19.3498281 89.105299,19.3298896 C89.1078252,19.6264743 89.1123724,19.9230589 89.1143934,20.2196436 C89.1138882,20.2969051 89.1406663,20.3517359 89.179065,20.3878744 C88.888548,20.5099975 88.67786,20.9019129 88.8385285,21.3137668 C88.8637909,21.3791899 88.894611,21.4439899 88.9284625,21.5075438 C88.8284236,21.549913 88.7273742,21.5922822 88.6248091,21.6184515 C88.0164916,21.7729746 88.0250808,22.9393747 88.6702813,22.9879747 C90.1582338,23.1013748 91.308176,22.4197285 91.7937184,20.6458283 C92.0079432,19.8607512 92.1196028,18.5248741 91.8033181,17.6064586" id="Fill-28" fill="#F6C5A2"></path>
                <path d="M110.254064,114.513562 L85.7615574,114.515796 C69.5823562,115.7347 65.4030879,114.45661 65.0270682,112.849086 C64.5818391,110.945072 69.720775,109.631247 73.6858755,103.574138 C76.6618807,99.0279566 75.1027613,97.6716958 78.0155516,86.2330962 C79.909819,78.7957172 80.8858353,78.1267998 84.3528459,65.5765018 C85.3828129,61.8483202 85.1762746,62.3424704 86.1746341,58.7773303 C89.0122205,48.6419472 90.643274,44.7792003 89.8236601,44.2917505 C88.5021416,43.5061354 82.8454974,52.7213384 81.5583111,51.9541493 C80.5021862,51.3248755 82.4553088,44.9880276 85.8874423,39.855566 C88.0492831,36.623768 90.4405504,34.4026048 92.1849548,33 C93.323913,35.0056355 94.602925,35.733181 95.3560543,36.0369298 C97.3331549,36.8342704 98.7740188,35.4484164 99.8731953,36.3261612 C101.328228,37.4869953 99.8078005,40.4357039 101.148937,41.4541558 C102.510783,42.4882419 104.724394,39.9409954 106.649179,40.954422 C107.865521,41.594863 107.148359,42.6886938 109.190309,46.1617041 C110.890027,49.0523431 112.807183,50.7425042 113.143421,51.0797547 C115.438231,53.381322 117.395168,66.187908 116.931411,107.670839 C116.929776,108.131487 116.878005,110.548077 114.970114,112.50346 C113.062222,114.458285 110.703653,114.511887 110.254064,114.513562" id="Fill-30" fill="#634D5D"></path>
                <g id="Group-34" transform="translate(65.000000, 31.000000)">
                    <mask id="mask-4" fill="white">
                        <use xlink:href="#path-3"></use>
                    </mask>
                    <g id="Clip-33"></g>
                    <path d="M47.6213004,59.7032726 C46.6837637,63.6838516 44.8976619,68.2234411 40.7310178,69.6951674 C40.3868095,69.8167884 40.2644738,69.2600095 40.6059017,69.1395042 C46.3317705,67.1165779 47.4622639,59.0349147 47.9938683,53.8621147 C48.5638417,48.32222 48.3124973,42.7879042 48.302488,37.2340621 C48.301932,36.8664095 48.869681,36.8876095 48.8702371,37.2541463 C48.8741296,39.49242 48.9569842,41.7301358 48.9675496,43.9684095 C48.9914607,49.2170832 48.8296439,54.5739884 47.6213004,59.7032726 M30.2001347,30.8087884 C29.3927189,35.4231358 28.6676015,40.0352516 28.2600011,44.7048305 C27.8368307,49.5585147 27.4998513,54.4350726 26.2920639,59.1715989 C26.2008681,59.5286516 25.6575862,59.3623989 25.7482259,59.0081358 C27.0533258,53.8888937 27.326913,48.60842 27.8106953,43.3681147 C28.1799268,39.36522 28.865563,35.4281568 29.517835,31.4654305 C30.0444347,28.2659042 30.6794684,24.7333147 32.797545,22.1586305 C35.2331384,19.1973253 42.6922821,15.3227463 45.2752345,20.0324937 C45.4515092,20.3538411 44.9477084,20.6177253 44.7719897,20.2963779 C42.8596597,16.8100937 37.7932918,18.9931358 35.3488012,20.6467358 C31.9183958,22.9675779 30.8796542,26.9280726 30.2001347,30.8087884 M54.8624641,21.3329463 C50.1820099,13.4521253 42.7490014,8.18671474 35.4210905,2.99606211 C33.3525044,1.53103053 30.3002276,-0.335127368 27.9157928,0.725988421 C27.3180159,0.992104211 26.8270047,1.32739895 26.1041117,2.31654632 C24.1823284,4.94423053 22.7226406,7.22099895 21.7117025,8.87738842 C16.8455204,16.8530516 16.9033518,19.4188095 17.293714,20.9658516 C17.7730477,22.8632516 18.9129944,22.3923884 19.3278238,24.0917358 C20.1118847,27.3035358 16.7309696,29.1512832 15.2857397,35.4716726 C14.9676667,36.8630621 14.7952846,38.2047989 14.7491306,38.6667358 C14.4138195,42.0118726 15.0077039,44.1698095 13.679249,55.2155674 C12.2723879,66.9123884 10.9411526,70.0293463 9.26126047,72.5421042 C5.21528387,78.5947042 -0.029026935,79.9074305 0.425839594,81.8098516 C0.809528965,83.4154726 5.07348562,84.6924937 21.5826939,83.4751674 L46.5753298,83.4729358 C47.0335327,83.4712621 49.4407665,83.4177042 51.387573,81.4639568 C53.3343795,79.5102095 53.3872063,77.0956411 53.3883184,76.6353779 C62.7775866,56.0222832 62.897142,34.8607779 54.8624641,21.3329463" id="Fill-32" fill="#82697C" mask="url(#mask-4)"></path>
                </g>
                <path d="M47.5608702,102.439087 C46.7081062,102.733605 44.9099703,103.355066 42.7948729,102.733605 C41.3175571,102.300204 40.3479307,101.455017 39.8556759,100.950282 C39.5651738,100.229388 39.437838,99.6354875 39.374997,99.2572069 C39.1440286,97.865675 39.4312232,97.2339465 39.2046647,95.3139026 C39.1930887,95.2177113 39.1787565,95.1177371 39.1787565,95.1177371 C39.1186717,94.6762297 39.061343,94.3509085 39.0525232,94.3001108 C39.005668,94.0277488 38.8998305,93.1912084 38.6627985,90.9971814 L38.6627985,90.996641 C37.699787,80.8852024 38.2306285,81.9238527 38.0073774,78.9408405 C37.9875328,78.6717209 38.0013138,77.9578515 38.1292008,77.2018309 C38.4191516,75.4882201 39.3011312,74.0469713 39.3496401,73.9691535 C39.5574565,73.6351859 39.7228277,73.4260508 39.7939373,73.0488511 C39.8562271,72.7192066 39.849061,72.2447347 39.8567784,71.611385 C39.8584321,71.4606132 39.8622907,71.4638556 39.9003261,71.1547464 C39.9311954,70.9002176 40.0690047,69.8005021 40.1153086,69.1471576 C40.1737398,68.3122384 40.2035066,67.8945086 40.1296408,67.5708086 C39.9008773,66.572148 39.286799,66.2797912 39.4692586,65.8172081 C39.6010043,65.4832405 40.0331743,65.3497615 40.6395353,65.1633232 C40.8892457,65.0865863 41.3947303,64.9595921 42.0429853,65.0125514 C42.6366678,65.0611875 42.9354384,65.0838843 43.1107319,65.2935598 C43.4563576,65.706426 42.9431557,66.3289677 42.9084278,67.4065268 C42.8858271,68.0971589 43.0704915,68.6645797 43.2275942,69.0325926 C43.4497428,69.6886392 43.7303225,70.405751 44.0880755,71.162312 C44.5108745,72.0577561 44.9623378,72.8418776 45.397264,73.5146765 C45.397264,73.5146765 45.4104937,73.5249441 45.4286845,73.5395349 C45.4435679,73.5514238 45.46231,73.566555 45.4843595,73.5849286 C45.6828049,73.74867 46.1381269,74.138299 46.6436114,74.7111238 C46.8558378,74.9510617 47.0752302,75.2380145 47.3227357,75.6260223 C47.9798105,76.6544049 48.2361359,77.5784902 48.3601642,78.0524217 C49.3496351,81.8319845 49.8650419,87.4559352 50.1334945,90.2152215 C50.2790211,91.7132124 50.4862863,93.2079609 50.5447175,94.7118962 C50.6836293,98.2936724 51.4283508,99.3690699 50.6516575,100.566598 C49.9741869,101.611733 48.81273,102.006766 47.5608702,102.439087" id="Fill-35" fill="#D1493B"></path>
                <path d="M39.2712477,98.7452601 C39.3912423,98.4760375 39.5321056,98.213435 39.7251405,97.9657281 C39.8770177,97.7715347 40.1912066,97.7588459 40.3216356,97.9850371 C40.9355213,99.0486873 41.363908,100.203917 42.3522697,101 C42.6281994,100.271223 42.7876126,99.5176203 42.9481851,98.7546388 C43.0078926,98.473279 43.4548292,98.4666588 43.5812004,98.6983668 C43.7626416,99.0315851 43.996834,99.3234268 44.215375,99.6257507 C44.8999822,98.4203172 45.4901008,97.175714 46.0158744,95.9007681 C46.1109427,95.6712668 46.5317935,95.5592746 46.6488897,95.8444962 C46.976991,96.6449923 47.2697316,97.4537637 47.6500045,98.231089 C47.9102827,97.5850649 48.1438955,96.9357307 48.3166414,96.2577089 C48.4030144,95.9195255 48.8841523,96.001175 48.9803799,96.2792246 C49.1084901,96.6516125 49.2690627,97.0052431 49.431954,97.3588737 C50.0441006,96.1738526 50.5524837,94.9551787 51,93.7177474 C50.9066708,92.7241613 50.7831981,91.7327819 50.6840721,90.7397475 C50.4017658,87.9233914 49.859761,82.1814456 48.8192277,78.3229551 C48.6887987,77.8396784 48.4192455,76.895744 47.7282618,75.8458859 C47.4679836,75.4497755 47.2372692,75.1568303 47.0140908,74.9118818 C46.4825203,74.3270949 46.0037011,73.9293294 45.7950147,73.7627203 C45.7718273,73.743963 45.7521181,73.7279641 45.7364666,73.715827 C45.717337,73.7009315 45.7034246,73.6904495 45.7034246,73.6904495 C45.2460537,73.0036006 44.7712923,72.2031045 44.3266744,71.2895128 C43.9504593,70.516601 43.6554,69.7850657 43.4217872,69.1147674 C43.2565772,68.7396211 43.0618033,68.1597993 43.0855703,67.4547448 C43.1226701,66.3546834 43.6617765,65.7191413 43.2988941,65.2976534 C43.1145545,65.0835993 42.8003656,65.0604285 42.1760457,65.0107767 C41.9406938,64.9925711 41.7320075,64.999743 41.5372336,65.0151902 C42.2722733,70.7306551 44.5544903,76.6452786 39.9680282,81.5006653 C39.3680549,82.1356557 38.7048961,82.749682 38,83.3410892 C38.0434763,84.8041599 38.1889771,87.1333774 38.6214216,91.5374851 L38.6214216,91.5380368 C38.8376438,93.9406285 39.0544457,96.3426685 39.2712477,98.7452601" id="Fill-37" fill="#BF3E37"></path>
                <path d="M105.467599,99.7445687 C102.039043,94.1751113 96.9567844,89.8306673 91.325283,86.4692259 C88.0559046,86.3874871 84.6517962,86.2240095 81.1151307,85.9611632 C77.9804825,85.7282343 75.2799043,85.4541689 73.0421893,85.1934596 C73.0421893,85.1934596 67.3693996,84.5331383 57.4292508,85.6523722 C56.0575027,85.8067677 53.2651124,86.1727224 51.8591385,88.2386306 C51.3718284,88.9539786 51.1816851,89.6816142 51.098022,90.1992933 L51.0230512,91.1203239 C50.7144758,94.9171714 53.5405486,98.1156694 57.3037562,98.2283941 C63.8495753,98.8197984 70.3959377,99.4106684 76.9417568,100.002073 C81.4106678,100.819995 97.8743617,103.654141 106,100.653312 C105.827241,100.348261 105.652309,100.044278 105.467599,99.7445687" id="Fill-39" fill="#634D5D"></path>
                <path d="M39.2512738,94.3389198 C40.5629626,95.9329175 42.9635586,95.9085445 46.5602858,95.9946626 C48.9036586,96.0509914 51.2748097,95.6491069 52.4453849,95.3717957 C52.6114988,95.3327988 54.6131992,94.8556285 54.6137548,94.8556285 C54.8520921,94.1006054 55.3548784,92.1442616 54.6015323,89.866735 C54.1009684,88.3539807 53.2537319,87.323813 52.7153895,86.7664824 C50.2970154,85.5619119 48.4430953,84.7483935 47.1647404,84.3140115 C46.0586107,83.9375832 45.5958251,83.9370416 45.4758231,84.116319 C45.2513749,84.4510422 46.3047259,85.2948916 46.0169433,86.1804459 C45.7702725,86.9387187 44.683032,87.2913156 43.733016,87.4716762 C43.5630131,87.4213052 39.6029464,86.2470656 38.5595955,86.0293329 C38.5190393,86.0212086 38.4307044,86.0038766 38.3384807,86.0401654 C37.8334721,86.2383996 37.9968082,87.7349052 38.1707001,88.9952629 C38.6168187,92.2249635 38.8401558,93.8395429 39.2512738,94.3389198" id="Fill-41" fill="#F6C5A2"></path>
            </g>
        </g>
    </g>
</svg>