<?xml version="1.0" encoding="UTF-8"?>
<svg width="220px" height="342px" viewBox="0 0 220 342" version="1.1" xmlns="http://www.w3.org/2000/svg" xmlns:xlink="http://www.w3.org/1999/xlink">
    <!-- Generator: Sketch 46.2 (44496) - http://www.bohemiancoding.com/sketch -->
    <title>leftHook</title>
    <desc>Created with Sketch.</desc>
    <defs></defs>
    <g id="Page-1" stroke="none" stroke-width="1" fill="none" fill-rule="evenodd">
        <g id="leftHook">
            <g id="Group-3" transform="translate(114.000000, 248.047000)" fill="#56373F">
                <path d="M13.7406,0.6868 C15.2176,0.6838 14.5806,8.9698 18.7416,10.7968 C19.8656,11.2908 20.3176,10.8818 24.5926,11.1428 C26.9596,11.2868 28.9256,11.5478 29.8596,11.6908 C31.7166,11.9728 34.0356,12.4258 36.6776,13.1768 C38.4856,13.8778 40.9356,14.8938 43.7626,16.2738 C43.7626,16.2738 54.0666,23.6188 65.5126,31.0118 C72.5876,35.5808 81.9556,45.5188 91.9466,69.1178 C92.7416,69.2608 100.8176,70.8578 103.9106,78.0498 C105.3056,81.2968 105.1016,84.3238 104.8576,85.9418 C102.0946,86.7138 97.9206,87.7298 92.7756,88.3888 C80.1046,90.0098 75.0336,87.7338 61.3916,87.2238 C45.7656,86.6398 44.9436,89.3468 29.9166,88.5378 C20.2236,88.0158 12.3776,86.4478 7.2966,85.2168 C5.4506,81.3218 3.6516,76.5538 2.4496,70.9778 C-0.8984,55.4548 2.2386,42.2818 4.6076,35.0828 C7.2046,30.9238 8.2426,27.2868 8.7076,24.8968 C9.2856,21.9258 8.9656,20.9448 8.4626,20.3398 C6.8226,18.3658 3.1016,20.1978 1.9166,18.4428 C1.0106,17.0998 1.9736,14.2228 3.7676,13.1358 C5.8846,11.8538 7.9356,13.8038 9.5796,12.5238 C10.7246,11.6338 10.2366,10.2948 11.0336,6.7888 C11.1516,6.2668 12.4186,0.6888 13.7406,0.6868" id="Fill-1"></path>
            </g>
            <path d="M133.0616,259.2049 C131.5586,261.6249 126.3696,270.9159 122.7016,268.9429" id="Stroke-4" stroke="#D6A45C"></path>
            <path d="M128.6599,266.3106 C128.6599,266.3106 132.4519,273.6406 129.3819,272.0016 C126.3129,270.3626 128.6599,266.3106 128.6599,266.3106 Z" id="Stroke-6" stroke="#D6A45C"></path>
            <path d="M129.1194,265.3106 C129.1194,265.3106 137.3694,265.5326 134.4514,267.4286 C131.5334,269.3236 129.1194,265.3106 129.1194,265.3106 Z" id="Stroke-8" stroke="#D6A45C"></path>
            <polyline id="Fill-10" fill="#F6C5A2" points="177.6518 41.111 184.0518 41.111 179.7978 66.922 157.5538 59.584 171.8918 35.492"></polyline>
            <path d="M187.8993,335.2244 C186.1923,334.8044 183.7863,333.9994 181.5843,332.3254 C173.7113,326.3384 175.5683,314.6564 176.1923,309.4034 C178.7643,287.7404 170.3283,291.3834 170.9763,259.1164 C171.2293,246.4754 172.8583,229.2514 178.7053,209.1044 C163.0873,198.8264 162.3043,181.4094 171.8073,173.4154 C179.7423,166.7394 194.9143,166.5804 202.7643,172.4724 C212.0523,179.4434 209.3753,193.6004 208.0903,200.6694 C202.8493,229.5124 196.3023,275.1334 187.8993,335.2244" id="Fill-12" fill="#F6C5A2"></path>
            <path d="M160.8347,172.4768 C166.1417,165.4978 171.8587,166.6098 178.5757,159.5378 C183.4537,154.4008 182.0507,152.1538 185.5037,150.4458 C192.9867,146.7428 206.7597,153.7488 210.6587,163.7628 C212.9587,169.6678 211.3307,175.3788 210.6587,177.8208 C208.8707,184.3238 208.4497,206.2588 207.6067,250.1288 C207.1657,273.1038 207.9907,292.0698 201.9847,293.5718 L201.9847,293.5718 C199.9857,294.3218 198.8957,294.1878 191.7627,294.0828 C184.0567,293.9688 180.2027,293.9118 178.4747,294.0828 C172.7407,294.6498 171.3047,295.7338 169.3597,294.5988 C166.0137,292.6468 165.7557,286.9158 165.9487,284.8078 C167.3327,269.6708 163.3857,254.9248 165.9727,239.7438 C171.4877,207.3778 146.3097,191.5758 160.8347,172.4768" id="Fill-14" fill="#D6A45C"></path>
            <path d="M178.2234,49.2816 C181.9204,50.7266 184.8274,52.8666 191.3664,60.3286 C202.0294,72.4976 206.6694,79.1666 209.5164,85.0136 C215.5004,97.3006 223.1354,121.1316 214.1404,129.0446 C210.2834,132.4366 205.1124,131.3696 204.2904,134.5926 C203.3964,138.1006 209.5614,140.2556 214.1404,149.6716 C216.3344,154.1846 217.6534,156.8956 217.8234,160.7216 C218.1324,167.6696 214.5574,176.1176 208.2464,179.1386 C201.6214,182.3106 197.4374,176.8886 187.0414,176.1786 C168.6964,174.9246 159.4624,191.0906 153.3414,186.7276 C144.8074,180.6456 158.0234,163.3986 154.8784,132.3756 C151.6144,100.1746 135.6864,89.7196 143.4204,69.3576 C144.1134,67.5346 150.3924,51.6386 163.4724,48.3516 C170.8254,46.5026 177.4544,48.9806 178.2234,49.2816" id="Fill-16" fill="#E6B45E"></path>
            <path d="M150.7858,31.0072 C150.8018,33.4352 151.5338,39.6832 156.1838,43.7352 C157.8558,45.1912 160.3778,46.6412 179.2238,46.3472 C190.1878,46.1762 193.1838,45.8172 193.7468,44.1742 C194.7538,41.2382 186.8148,37.8752 187.4008,32.1102 C187.6968,29.1922 189.8778,28.6032 190.8878,25.6492 C191.8828,22.7402 191.6178,17.9082 184.9548,9.7582 C174.6228,4.9692 163.2568,7.0632 156.4058,14.0332 C153.0078,17.4912 150.7328,22.8472 150.7858,31.0072" id="Fill-18" fill="#F6C5A2"></path>
            <path d="M186.4598,3.0923 C187.4668,4.8383 187.3228,7.6843 186.0268,9.4573 C184.2338,11.9103 181.4288,10.5693 179.2678,12.6363 C175.3878,16.3503 179.4398,24.3873 176.7518,25.9433 C174.5538,27.2153 170.9158,21.3673 167.7748,22.5703 C165.1538,23.5733 163.7738,29.0803 165.7368,31.9983 C167.4128,34.4903 170.4198,33.4493 171.8918,35.4913 C174.5088,39.1223 170.2098,49.4883 164.2878,51.2153 C156.0458,53.6193 140.3018,39.5213 141.4158,25.0293 C142.5878,9.7883 161.6038,3.3143 164.6298,2.2833 C172.2048,-0.2957 183.8158,-1.4897 186.4598,3.0923" id="Fill-20" fill="#CEC0A7"></path>
            <path d="M175.5587,321.6537 C183.8347,325.7417 190.6537,327.0977 195.5617,327.5337 C199.3767,327.8727 204.3997,327.8657 207.1027,331.3267 C208.5407,333.1677 208.8407,335.3727 208.8597,336.9847 C197.4307,337.1407 186.0017,337.2967 174.5727,337.4537 L175.5587,321.6537 Z" id="Fill-22" fill="#CEC0A7"></path>
            <path d="M153.7998,292.8227 C152.0408,291.9757 149.2538,290.7397 145.6978,289.6307 C138.5708,287.4067 134.8778,287.7257 133.5538,285.0917 C132.0788,282.1537 134.9968,278.3377 133.7748,277.5987 C132.6158,276.8967 130.8028,280.2837 127.3898,280.3307 C123.8658,280.3777 122.2768,276.8157 119.8048,277.6177 C117.9068,278.2337 117.8778,280.6467 116.4278,280.7367 C114.2738,280.8717 112.6788,275.6567 111.7578,275.9207 C110.8988,276.1667 113.5418,281.8487 111.0938,284.9267 C109.7258,286.6467 107.9718,286.0547 104.7278,288.1567 C102.6508,289.5017 101.2628,291.1087 100.3908,292.3097 C98.9368,295.4257 96.8468,299.9657 94.3938,305.5047 C92.0308,310.8407 90.8928,313.5757 90.2788,315.6367 C88.8458,320.4477 85.4538,331.8387 90.8298,336.8317 C91.8288,337.7587 93.9978,339.2707 98.4028,339.2227 C100.7068,339.3777 104.2458,339.6177 108.5848,339.9147 C117.8268,340.5477 118.0998,340.5807 119.2998,340.5857 C127.5638,340.6207 127.3338,339.2067 134.5108,339.3147 C139.6498,339.3927 141.2658,340.2977 145.9908,339.5957 C148.9308,339.1587 151.2908,338.3647 152.8708,337.7367 C155.2788,335.4247 160.1668,330.0587 161.9778,321.7557 C165.3538,306.2787 155.0608,294.2487 153.7998,292.8227" id="Fill-24" fill="#B2A590"></path>
            <path d="M111.0942,284.9266 C111.0942,284.9266 132.3192,294.2116 133.5542,285.0916" id="Stroke-26" stroke="#56373F"></path>
            <path d="M126.5444,289.0283 C126.5444,289.0283 132.1234,295.1093 131.6404,291.6643 C131.1564,288.2183 126.5444,289.0283 126.5444,289.0283 Z" id="Stroke-28" stroke="#56373F"></path>
            <path d="M127.3437,289.2733 C127.3437,289.2733 122.2307,295.7513 122.4577,292.2793 C122.6837,288.8073 127.3437,289.2733 127.3437,289.2733 Z" id="Stroke-30" stroke="#56373F"></path>
            <path d="M129.3235,296.3511 C129.3235,296.3511 129.7865,290.5111 127.3435,289.2731 C127.3435,289.2731 125.5415,295.4751 126.8195,296.4441" id="Stroke-32" stroke="#56373F"></path>
            <path d="M91.2928,247.3193 C89.8158,247.3163 90.4528,256.1143 86.2918,258.0533 C85.1678,258.5773 84.7158,258.1433 80.4408,258.4203 C78.0738,258.5743 76.1078,258.8513 75.1738,259.0023 C73.3168,259.3033 70.9978,259.7833 68.3558,260.5813 C66.5478,261.3253 64.0978,262.4043 61.2708,263.8683 C61.2708,263.8683 50.9668,271.6683 39.5208,279.5173 C32.4458,284.3683 23.0778,294.9203 13.0868,319.9763 C12.2918,320.1293 4.2158,321.8243 1.1228,329.4603 C-0.2722,332.9073 -0.0682,336.1213 0.1758,337.8403 C2.9388,338.6593 7.1128,339.7383 12.2578,340.4373 C24.9288,342.1593 29.9998,339.7423 43.6418,339.2013 C59.2678,338.5813 60.0898,341.4553 75.1168,340.5953 C84.8098,340.0413 92.6558,338.3773 97.7368,337.0703 C99.5828,332.9343 101.3818,327.8713 102.5838,321.9523 C105.9318,305.4693 102.7948,291.4833 100.4258,283.8393 C97.8288,279.4233 96.7908,275.5623 96.3258,273.0253 C95.7478,269.8703 96.0678,268.8283 96.5708,268.1853 C98.2108,266.0903 101.9318,268.0353 103.1158,266.1713 C104.0228,264.7453 103.0598,261.6913 101.2658,260.5373 C99.1488,259.1763 97.0978,261.2463 95.4538,259.8883 C94.3088,258.9423 94.7968,257.5213 93.9998,253.7983 C93.8818,253.2443 92.6148,247.3213 91.2928,247.3193" id="Fill-34" fill="#CEC0A7"></path>
            <path d="M85.9718,258.4372 C87.4748,261.0072 92.6638,270.8712 96.3318,268.7772" id="Stroke-36" stroke="#D6A45C" stroke-width="1.03"></path>
            <path d="M90.3735,265.9818 C90.3735,265.9818 86.5815,273.7648 89.6515,272.0248 C92.7205,270.2848 90.3735,265.9818 90.3735,265.9818 Z" id="Stroke-38" stroke="#D6A45C" stroke-width="1.03"></path>
            <path d="M89.914,264.92 C89.914,264.92 81.664,265.156 84.582,267.169 C87.5,269.181 89.914,264.92 89.914,264.92 Z" id="Stroke-40" stroke="#D6A45C" stroke-width="1.03"></path>
            <path d="M198.271,195.6106 C194.892,196.8716 182.749,186.7556 184.748,178.9216 C185.691,175.2296 189.782,172.0176 192.96,173.2066 C199.059,175.4886 202.203,194.1436 198.271,195.6106" id="Fill-42" fill="#F6C5A2"></path>
            <path d="M164.427,69.3573 C166.309,66.8243 171.982,59.1863 178.749,59.8093 C186.565,60.5283 191.241,71.9863 192.117,74.1313 C202.9,100.5473 174.641,119.5143 184.478,143.8333 C189.078,155.2043 197.968,157.8803 198.67,171.0353 C199.055,178.2643 196.948,188.2663 191.303,190.1893 C183.037,193.0053 171.406,177.0573 170.156,175.3423 C166.669,170.5613 161.424,160.2263 157.743,120.9173 C155.035,91.9933 157.027,79.3173 164.427,69.3573" id="Fill-44" fill="#D6A45C"></path>
        </g>
    </g>
</svg>