<?xml version="1.0" encoding="UTF-8"?>
<svg width="128px" height="192px" viewBox="0 0 128 192" version="1.1" xmlns="http://www.w3.org/2000/svg" xmlns:xlink="http://www.w3.org/1999/xlink">
    <!-- Generator: Sketch 46.2 (44496) - http://www.bohemiancoding.com/sketch -->
    <title>leftHook</title>
    <desc>Created with Sketch.</desc>
    <defs></defs>
    <g id="Page-1" stroke="none" stroke-width="1" fill="none" fill-rule="evenodd">
        <g id="leftHook">
            <polygon id="Combined-Shape" fill="#D8D8D8" points="64 128 64 0 128 0 128 192 0 192 0 128"></polygon>
            <g transform="translate(2.000000, 0.000000)">
                <g id="Group-3" transform="translate(64.000000, 139.254456)" fill="#56373F">
                    <path d="M7.71402105,0.38557193 C8.54321404,0.383887719 8.1856,5.03567719 10.5216,6.0613614 C11.1526175,6.33869474 11.4063719,6.1090807 13.8063719,6.25560702 C15.135214,6.33644912 16.2389333,6.48297544 16.7632842,6.56325614 C17.8058105,6.72157193 19.1077053,6.97588772 20.5909333,7.39750175 C21.6059509,7.79104561 22.9813895,8.36143158 24.5684772,9.13616842 C24.5684772,9.13616842 30.3531789,13.2596772 36.7790035,17.4101333 C40.7509333,19.975186 46.0101614,25.554414 51.6191439,38.8029754 C52.0654596,38.8832561 56.5993544,39.7798175 58.3357754,43.8174316 C59.1189333,45.6403088 59.004407,47.3396772 58.8674246,48.2480281 C57.3162667,48.6814316 54.9729684,49.2518175 52.0845474,49.6217825 C44.9710035,50.5318175 42.1241263,49.2540632 34.4654596,48.9677474 C25.6929684,48.6398877 25.2314947,50.159607 16.7952842,49.7054316 C11.3536,49.4123789 6.94882807,48.5320982 4.09633684,47.8410105 C3.05998596,45.6543439 2.05002105,42.9775719 1.37521404,39.847186 C-0.504364912,31.1325193 1.25675789,23.7371509 2.58672281,19.695607 C4.04468772,17.3607298 4.62742456,15.3189053 4.88847719,13.9771509 C5.21296842,12.3092211 5.0333193,11.7584842 4.75093333,11.4188351 C3.83023158,10.3106246 1.74124912,11.3391158 1.07598596,10.3538526 C0.567354386,9.59988772 1.10798596,7.98472982 2.11514386,7.37448421 C3.30363509,6.65476491 4.45507368,7.74950175 5.37802105,7.03090526 C6.02082807,6.53125614 5.74686316,5.77953684 6.19430175,3.81125614 C6.26054737,3.51820351 6.97184561,0.386694737 7.71402105,0.38557193" id="Fill-1"></path>
                </g>
                <path d="M74.7012491,145.51854 C73.8574596,146.877137 70.9443368,152.093137 68.8851088,150.985488" id="Stroke-4" stroke="#D6A45C"></path>
                <path d="M72.2301193,149.507705 C72.2301193,149.507705 74.3589614,153.622793 72.6354526,152.702653 C70.9125053,151.782512 72.2301193,149.507705 72.2301193,149.507705 Z" id="Stroke-6" stroke="#D6A45C"></path>
                <path d="M72.4880842,148.946302 C72.4880842,148.946302 77.1196632,149.070933 75.4814877,150.135354 C73.8433123,151.199214 72.4880842,148.946302 72.4880842,148.946302 Z" id="Stroke-8" stroke="#D6A45C"></path>
                <polyline id="Fill-10" fill="#F6C5A2" points="99.7343439 23.0798596 103.327326 23.0798596 100.939116 37.5702456 88.4512561 33.4506667 96.5006596 19.9253333"></polyline>
                <path d="M105.487326,188.196154 C104.529011,187.960365 103.178274,187.508435 101.942063,186.568646 C97.5221333,183.207523 98.5646596,176.649207 98.9149754,173.700154 C100.358905,161.53847 95.6229053,163.583663 95.9866947,145.468856 C96.1287298,138.372154 97.0432561,128.70254 100.325782,117.391944 C91.5577825,111.621839 91.1182035,101.843874 96.4532211,97.356014 C100.907958,93.6080842 109.425572,93.5188211 113.832589,96.8266105 C119.046905,100.740154 117.544028,108.687944 116.822625,112.656505 C113.880309,128.849067 110.2048,154.460856 105.487326,188.196154" id="Fill-12" fill="#F6C5A2"></path>
                <path d="M90.2931649,96.8290807 C93.2725333,92.9110456 96.4820772,93.5353263 100.253025,89.5650807 C102.991551,86.6811509 102.203902,85.4196772 104.142428,84.4608 C108.343411,82.3819228 116.075621,86.3151158 118.264533,91.9370105 C119.555761,95.2520982 118.641796,98.4582737 118.264533,99.8292211 C117.260744,103.480028 117.024393,115.794414 116.55113,140.423186 C116.303551,153.321432 116.766709,163.969011 113.394919,164.812239 L113.394919,164.812239 C112.272674,165.233291 111.660744,165.158063 107.656253,165.099116 C103.330077,165.035116 101.166428,165.003116 100.196323,165.099116 C96.9772351,165.417432 96.1710596,166.025993 95.0791298,165.3888 C93.2006737,164.29294 93.0558316,161.075537 93.1641825,159.892098 C93.9411649,151.394133 91.7253053,143.115677 93.1776561,134.593011 C96.2737965,116.422625 82.1387789,107.551326 90.2931649,96.8290807" id="Fill-14" fill="#D6A45C"></path>
                <path d="M100.055242,27.6668632 C102.130751,28.4780912 103.762751,29.6794947 107.433768,33.8686877 C113.420014,40.700407 116.024926,44.444407 117.623242,47.7269333 C120.982681,54.6248982 125.268996,68.0037053 120.219172,72.4460912 C118.053839,74.3503719 115.150821,73.7513544 114.689347,75.5607579 C114.187453,77.5301614 117.648505,78.739986 120.219172,84.0261614 C121.450891,86.5597754 122.191382,88.0817404 122.286821,90.2296702 C122.460295,94.1303018 120.453277,98.8730386 116.91026,100.569039 C113.190961,102.349811 110.842049,99.3058807 105.005698,98.9072842 C94.7067509,98.2032842 89.5227509,107.278933 86.0864,104.82953 C81.2953825,101.415074 88.7148912,91.7325474 86.9492772,74.3161263 C85.1168561,56.2383719 76.1748211,50.3688982 80.5167158,38.9376 C80.9057684,37.9141614 84.4308211,28.9900912 91.7739789,27.1447579 C95.9019789,26.1067228 99.6235228,27.4978807 100.055242,27.6668632" id="Fill-16" fill="#E6B45E"></path>
                <path d="M84.6516772,17.4075509 C84.6606596,18.7706386 85.071607,22.2782877 87.6821333,24.5530947 C88.6208,25.3704982 90.0366596,26.1845333 100.61687,26.0194807 C106.772098,25.9234807 108.454063,25.7219368 108.770133,24.7995509 C109.335467,23.1512702 104.878484,21.2632702 105.207467,18.0267789 C105.373642,16.3886035 106.598063,16.0579368 107.165081,14.3995509 C107.723677,12.7664281 107.574905,10.0537263 103.834274,5.47828772 C98.0338526,2.78972632 91.6529404,3.96530526 87.8067649,7.87828772 C85.8991158,9.81962105 84.6219228,12.8264982 84.6516772,17.4075509" id="Fill-18" fill="#F6C5A2"></path>
                <path d="M104.679186,1.73602807 C105.244519,2.7162386 105.163677,4.31399298 104.436098,5.3093614 C103.429502,6.68648421 101.854765,5.93364211 100.641572,7.09406316 C98.4633263,9.17911579 100.738133,13.6911158 99.2290807,14.5646596 C97.9951158,15.2787649 95.9527298,11.9956772 94.1893614,12.6710456 C92.7179228,13.2341333 91.943186,16.3257825 93.0452211,17.9639579 C93.9861333,19.3629754 95.6742737,18.7785544 96.5006596,19.9249404 C97.9698526,21.9633965 95.5563789,27.7829053 92.2317474,28.7524491 C87.6046596,30.1020632 78.7659228,22.1873965 79.3913263,14.0515368 C80.0492912,5.49518596 90.7249404,1.86065965 92.4237474,1.28185263 C96.6763789,-0.166007018 103.194835,-0.836322807 104.679186,1.73602807" id="Fill-20" fill="#CEC0A7"></path>
                <path d="M98.5592702,180.577516 C103.205446,182.872533 107.033656,183.633796 109.789025,183.878568 C111.930779,184.068884 114.750709,184.064954 116.268182,186.007972 C117.075481,187.041516 117.243902,188.279411 117.254568,189.184393 C110.838288,189.271972 104.422007,189.359551 98.0057263,189.447691 L98.5592702,180.577516 Z" id="Fill-22" fill="#CEC0A7"></path>
                <path d="M86.3437474,164.391691 C85.3562386,163.916182 83.791607,163.222288 81.7952561,162.599691 C77.7941333,161.35113 75.7208702,161.530218 74.9775719,160.051481 C74.1495018,158.402077 75.7876772,156.259761 75.1016421,155.844884 C74.4509754,155.450779 73.4331509,157.352253 71.5170807,157.378639 C69.5386947,157.405025 68.6466246,155.405305 67.2588351,155.855551 C66.1932912,156.201375 66.1770105,157.556042 65.3629754,157.606568 C64.1537123,157.682358 63.2582737,154.754639 62.7412211,154.902849 C62.2589754,155.040954 63.7427649,158.230849 62.3684491,159.958849 C61.6004491,160.924463 60.6157474,160.592112 58.7945544,161.772182 C57.6285193,162.52727 56.8492912,163.429446 56.3597474,164.103691 C55.5434667,165.853025 54.3701333,168.401796 52.9930105,171.511411 C51.666414,174.50706 51.0275368,176.042498 50.6828351,177.199551 C49.8783439,179.900463 47.9740632,186.295411 50.9921684,189.098498 C51.5530105,189.618919 52.7706947,190.467761 55.2436772,190.440814 C56.5371509,190.527832 58.5239579,190.662568 60.9598877,190.829305 C66.1483789,191.184674 66.3016421,191.2032 66.9753263,191.206007 C71.6147649,191.225656 71.4856421,190.431832 75.5148351,190.492463 C78.3998877,190.536253 79.3071158,191.044323 81.9597474,190.650218 C83.6102737,190.404884 84.935186,189.95913 85.8222035,189.606568 C87.1740632,188.308604 89.9182035,185.296112 90.9349053,180.634779 C92.8302035,171.945937 87.0516772,165.192253 86.3437474,164.391691" id="Fill-24" fill="#B2A590"></path>
                <path d="M62.3686737,159.958793 C62.3686737,159.958793 74.2844632,165.171425 74.9777965,160.051425" id="Stroke-26" stroke="#56373F"></path>
                <path d="M71.0424702,162.261502 C71.0424702,162.261502 74.1745404,165.675396 73.9033825,163.741361 C73.6316632,161.806765 71.0424702,162.261502 71.0424702,162.261502 Z" id="Stroke-28" stroke="#56373F"></path>
                <path d="M71.4912,162.399046 C71.4912,162.399046 68.6207439,166.035818 68.7481825,164.086625 C68.8750596,162.137432 71.4912,162.399046 71.4912,162.399046 Z" id="Stroke-30" stroke="#56373F"></path>
                <path d="M72.6026667,166.372547 C72.6026667,166.372547 72.8625965,163.093951 71.4910877,162.398933 C71.4910877,162.398933 70.4794386,165.880758 71.1969123,166.424758" id="Stroke-32" stroke="#56373F"></path>
                <path d="M51.2520982,138.845923 C50.4229053,138.844239 50.7805193,143.783467 48.4445193,144.872028 C47.8135018,145.166204 47.5597474,144.922554 45.1597474,145.078063 C43.8309053,145.164519 42.727186,145.320028 42.2028351,145.4048 C41.1603088,145.573782 39.858414,145.843256 38.375186,146.291256 C37.3601684,146.70894 35.9847298,147.314695 34.3976421,148.136589 C34.3976421,148.136589 28.6129404,152.515537 22.1871158,156.921993 C18.215186,159.645361 12.9559579,165.569291 7.34697544,179.635818 C6.90065965,179.721712 2.36676491,180.673291 0.63034386,184.960168 C-0.152814035,186.895326 -0.0382877193,188.699677 0.0986947368,189.66473 C1.64985263,190.124519 3.99315088,190.730274 6.88157193,191.122695 C13.9951158,192.089432 16.841993,190.732519 24.5006596,190.4288 C33.2731509,190.08073 33.7346246,191.694204 42.1708351,191.211396 C47.6125193,190.900379 52.0172912,189.966204 54.8697825,189.232449 C55.9061333,186.910484 56.9160982,184.068098 57.5909053,180.745151 C59.4704842,171.491537 57.7093614,163.639747 56.3793965,159.348379 C54.9214316,156.869221 54.3386947,154.701642 54.0776421,153.277361 C53.7531509,151.506133 53.9328,150.921151 54.215186,150.560168 C55.1358877,149.384028 57.2248702,150.475958 57.8895719,149.429502 C58.3987649,148.62894 57.8581333,146.914414 56.8509754,146.266554 C55.6624842,145.502484 54.5110456,146.664589 53.5880982,145.902204 C52.9452912,145.371116 53.2192561,144.573361 52.7718175,142.483256 C52.7055719,142.172239 51.9942737,138.847046 51.2520982,138.845923" id="Fill-34" fill="#CEC0A7"></path>
                <path d="M48.2648702,145.087551 C49.1086596,146.530358 52.0217825,152.068042 54.0810105,150.892463" id="Stroke-36" stroke="#D6A45C" stroke-width="1.03"></path>
                <path d="M50.736,149.323116 C50.736,149.323116 48.6071579,153.692519 50.3306667,152.715677 C52.053614,151.738835 50.736,149.323116 50.736,149.323116 Z" id="Stroke-38" stroke="#D6A45C" stroke-width="1.03"></path>
                <path d="M50.4780351,148.727018 C50.4780351,148.727018 45.8464561,148.859509 47.4846316,149.989614 C49.122807,151.119158 50.4780351,148.727018 50.4780351,148.727018 Z" id="Stroke-40" stroke="#D6A45C" stroke-width="1.03"></path>
                <path d="M111.310035,109.816477 C109.413053,110.524407 102.59593,104.845249 103.718175,100.447214 C104.247579,98.3745123 106.544281,96.5712842 108.328421,97.238793 C111.752421,98.5199158 113.517474,108.992898 111.310035,109.816477" id="Fill-42" fill="#F6C5A2"></path>
                <path d="M92.3098947,38.9374316 C93.3664561,37.5153965 96.5512982,33.2273965 100.350316,33.5771509 C104.738246,33.9808 107.363368,40.4133614 107.855158,41.6175719 C113.908772,56.447607 98.0440702,67.0957474 103.566596,80.7485193 C106.149053,87.1322386 111.13993,88.6345544 111.534035,96.0198175 C111.750175,100.078204 110.567298,105.693361 107.398175,106.77294 C102.757614,108.353853 96.2279298,99.4005895 95.5261754,98.4377825 C93.5685614,95.7537123 90.624,89.951607 88.5574737,67.8833965 C87.037193,51.6453614 88.1555088,44.5290105 92.3098947,38.9374316" id="Fill-44" fill="#D6A45C"></path>
            </g>
        </g>
    </g>
</svg>