<?xml version="1.0" encoding="UTF-8"?>
<svg width="224px" height="333px" viewBox="0 0 224 333" version="1.1" xmlns="http://www.w3.org/2000/svg" xmlns:xlink="http://www.w3.org/1999/xlink">
    <!-- Generator: Sketch 46.2 (44496) - http://www.bohemiancoding.com/sketch -->
    <title>leftZag</title>
    <desc>Created with Sketch.</desc>
    <defs>
        <polygon id="path-1" points="0 19.6479962 0 0.429783616 47.4667597 0.429783616 47.4667597 19.6479962 4.59611529e-16 19.6479962"></polygon>
        <polygon id="path-3" points="107.516419 0.730854753 107.516419 148.293911 0.705559005 148.293911 0.705559005 0.730854753 107.516419 0.730854753"></polygon>
    </defs>
    <g id="Page-1" stroke="none" stroke-width="1" fill="none" fill-rule="evenodd">
        <g id="leftZag">
            <path d="M188.928155,151.368258 C183.496659,140.658003 174.905002,131.976675 165.184083,125.028657 C159.282554,124.433478 153.147487,123.669798 146.786764,122.706082 C141.149321,121.850759 136.303149,120.97967 132.290622,120.196281 C132.290622,120.196281 122.121348,118.209725 103.988114,118.918224 C101.486197,119.015778 96.3838234,119.309426 93.5547551,122.916956 C92.5752727,124.166437 92.1298743,125.479968 91.9071751,126.420034 L91.6450601,128.104074 C90.5621113,135.045194 95.2318969,141.31329 102.022252,142.031643 C113.780967,144.00933 125.538697,145.986032 137.297413,147.963719 C145.267285,150.076406 174.653727,157.526975 189.76574,153.111421 C189.494757,152.528068 189.220817,151.944714 188.928155,151.368258" id="Fill-1" fill="#634D5D"></path>
            <path d="M73.3456888,132.869344 C75.4485211,135.935893 79.6975432,136.209832 86.0464414,136.844427 C90.1850993,137.258292 94.433136,136.844427 96.5418807,136.497568 C96.8404553,136.448298 100.446015,135.849178 100.447,135.849178 C100.97123,134.511012 102.127098,131.028627 101.105244,126.796357 C100.426307,123.985025 99.0684328,122.004382 98.1914315,120.921433 C94.0793793,118.414589 90.9103498,116.692119 88.708978,115.73333 C86.80421,114.903628 85.9863324,114.841548 85.7488522,115.150962 C85.30641,115.728403 87.0545002,117.399632 86.4238476,118.967395 C85.8848367,120.310488 83.9130618,120.806142 82.2093144,121.007162 C81.9146813,120.892857 75.0711149,118.235247 73.2560179,117.702149 C73.1850694,117.681455 73.0313479,117.639083 72.8628454,117.692295 C71.9434721,117.984957 72.0272306,120.721398 72.1632151,123.031163 C72.5120448,128.949444 72.6864597,131.908584 73.3456888,132.869344" id="Fill-3" fill="#F6C5A2"></path>
            <g id="Group-7" transform="translate(0.000000, 259.845634)">
                <mask id="mask-2" fill="white">
                    <use xlink:href="#path-1"></use>
                </mask>
                <g id="Clip-6"></g>
                <path d="M30.3208914,0.9346469 C22.808242,4.34017108 6.15507109,12.0065421 0.664451666,15.5125765 C-6.50823657,20.0907204 46.7326406,19.6354681 46.7326406,19.6354681 L47.4667597,11.5650852 C47.2548998,10.6535951 45.8989967,5.20534765 40.6842878,2.19398136 C35.931729,-0.550342956 31.3043154,0.653809403 30.3208914,0.9346469" id="Fill-5" fill="#F6C5A2" mask="url(#mask-2)"></path>
            </g>
            <path d="M47.4454752,271.096772 C47.2375569,270.160647 45.8993908,264.56262 40.6965067,261.482276 C35.956758,258.675872 31.3303298,259.927323 30.3459205,260.219 C29.6305239,260.555019 28.8264418,260.933411 27.9622506,261.341364 C31.6752179,263.728976 34.5643953,267.115778 34.8324227,271.613119 C34.848189,271.873263 34.6708179,272.216181 34.3949074,272.216181 C29.3950145,272.218151 24.6532951,274.271714 19.6829641,274.63631 C19.4711042,274.651091 19.2346095,274.539741 19.1656319,274.305218 C18.419688,271.771768 17.5870295,268.953539 15.8024796,267.201507 C12.9537035,268.608651 10.1275914,270.033531 7.62468879,271.350019 C8.99931444,272.368917 10.1009857,273.756353 11.1987155,275.224591 C11.4913777,275.615793 11.1257963,276.097651 10.7286822,276.087797 C7.22856011,275.99714 3.73336501,276.251372 0.24112609,276.576552 C3.75602909,279.90226 46.6877066,279.395767 46.6877066,279.395767 L47.4454752,271.096772 Z" id="Fill-8" fill="#050404"></path>
            <path d="M16.3849465,180.993067 C14.7127316,190.213405 13.0415022,199.433744 11.3692873,208.654082 C27.7987736,256.852694 39.0904118,280.311001 45.2442019,279.032944 C50.5397132,277.933244 52.0316008,258.520968 49.7208501,220.792174 C38.6085538,207.525805 27.4962574,194.259436 16.3849465,180.993067" id="Fill-10" fill="#050404"></path>
            <path d="M56.4634136,209.321687 C82.963634,215.022195 105.281839,216.945686 121.220599,217.594076 C159.055815,219.133262 190.777642,220.030957 204.480541,201.369551 C210.000722,193.85296 211.033416,185.290866 211.037358,179.240542 C211.947862,173.25624 212.858367,167.272923 213.767887,161.288621 C212.779536,161.88577 210.654039,162.979558 207.781614,163.018974 C203.029055,163.084995 199.894514,160.213555 199.251051,159.597684 L18.3040027,159.597684 C14.9822371,159.597684 11.9629876,160.908259 9.77344054,163.018974 C7.93863555,164.788743 6.98575885,167.029531 6.22503412,171.245049 C5.5746736,174.852579 4.99033453,180.287031 5.73036597,187.140452 C6.69802359,191.458451 8.01746713,196.91064 9.77344054,203.163955 C28.227913,268.876974 67.7274607,326.26045 77.5626855,322.975144 C82.289624,321.396542 79.8645676,296.057116 56.4634136,209.321687" id="Fill-12" fill="#2D1E22"></path>
            <path d="M55.3674576,308.314737 C45.6918667,313.46441 24.2624876,325.025061 17.3331918,330.04072 C8.28037045,336.591624 80.1432372,329.269156 80.1432372,329.269156 L80.0111943,319.233896 C79.5983139,318.138137 77.0086966,311.597087 69.5433461,308.550246 C62.7401809,305.773404 56.6573393,307.843718 55.3674576,308.314737" id="Fill-14" fill="#F6C5A2"></path>
            <path d="M79.9390634,318.849789 C79.5271684,317.722498 76.9395219,310.996193 69.48304,307.862638 C62.6877579,305.005979 56.611814,307.135417 55.3239031,307.620231 C54.402559,308.124753 53.3698654,308.69234 52.2583401,309.305256 C57.6080481,311.77564 61.9822153,315.581235 62.9715516,321.087621 C63.0296899,321.406888 62.8365525,321.851301 62.4630879,321.88579 C55.7091925,322.524326 49.5889058,325.655911 42.9246812,326.735903 C42.641873,326.781231 42.3068387,326.673823 42.1807082,326.392986 C40.8198781,323.367824 39.3023702,320.001716 36.6477168,318.069357 C32.9938732,320.164306 29.3755037,322.278963 26.1769124,324.21822 C28.1762783,325.300183 29.8583471,326.868931 31.5453429,328.53819 C31.9946829,328.982603 31.5689924,329.62311 31.0299815,329.66154 C26.2892474,329.994604 21.6027101,330.751387 16.9299683,331.594885 C22.141721,335.246757 80.0711063,329.169828 80.0711063,329.169828 L79.9390634,318.849789 Z" id="Fill-16" fill="#2D1E22"></path>
            <polygon id="Fill-18" fill="#F6C5A2" points="165.099734 59.7551247 158.745908 52.773603 146.494496 61.5672656 158.122153 74.3695139 167.689351 60.6587316"></polygon>
            <path d="M158.560063,55.0093651 C155.842344,57.95471 153.466558,60.4694373 151.554892,62.4717594 C148.0932,66.0950558 147.248717,66.8863278 145.79526,67.5928558 C142.054701,69.4118945 138.376223,68.6807316 136.792693,68.3663907 C130.412262,67.0981877 126.357363,62.4717594 124.955146,60.7079028 C123.724388,58.6346323 122.202939,55.7986663 120.765248,52.2670116 C118.829933,47.5114966 117.367607,44.1434174 117.080857,39.6510029 C116.885749,36.5854399 117.387315,35.806978 117.699685,31.852589 C117.971654,28.4096198 118.032748,23.4166247 116.924179,17.166266 C129.197271,15.0161347 141.470362,12.865018 153.743453,10.7148867 C154.532755,12.9477911 155.673842,16.2892646 156.913468,20.3963899 C159.632172,29.3989561 160.991032,33.9002392 161.223585,39.0666638 C161.379277,42.5490488 161.142782,48.1480616 158.560063,55.0093651" id="Fill-20" fill="#F6C5A2"></path>
            <path d="M119.902436,49.0942376 C119.970429,49.0558072 120.525206,48.810444 120.525206,48.810444 C120.880933,48.772999 121.227792,48.7779259 121.57071,48.8025608 C122.822161,48.8557721 123.918905,49.1760254 125.188094,49.6608396 C127.531362,50.555578 129.546495,51.4049883 132.076988,51.7429787 C136.645278,52.3519526 141.616595,52.9826052 146.108024,51.6385268 C149.843655,50.5201038 155.968869,47.8250492 157.667689,44.1032133 C159.526144,40.0315623 160.206066,35.9451304 160.661319,31.4950878 C160.693837,31.1768053 161.10179,31.011259 161.346168,31.1649805 C161.351095,31.1393603 161.355037,31.1127546 161.359963,31.0871344 C161.369817,31.1275355 161.379671,31.1748345 161.389525,31.2162211 C161.431897,31.2556369 161.481167,31.2832279 161.503831,31.3502348 C162.018207,32.9298225 162.164046,34.5754317 162.064521,36.2200555 C162.073389,37.357201 162.037915,38.812629 162.151235,41.6387411 C162.151235,41.6387411 162.404482,47.9580775 161.928536,50.9418528 C161.896018,51.1448441 161.870398,51.2463397 161.83788,51.3951343 C161.119527,54.707046 156.168904,59.9808786 156.168904,59.9808786 C151.763204,64.7561015 152.772248,65.0586176 150.327484,66.8017809 C147.540788,68.7873513 144.867412,69.3647926 143.677055,69.6101559 C140.123722,70.339348 139.616243,69.0652326 135.677621,69.4722006 C135.677621,69.4722006 134.37887,69.6071997 132.146951,69.2987712 C131.345825,69.1874216 130.837362,69.0603056 130.360431,68.7026073 C129.976127,68.4138867 129.832259,68.1419177 129.301131,67.7585992 C128.871499,67.4481999 128.467487,67.2668872 128.188621,67.1604646 C127.924535,67.0717791 127.433808,66.8766709 126.948009,66.4716737 C125.872943,65.5749645 125.593091,64.283112 125.502435,63.908662 C124.601784,60.1700744 118.980107,49.6233946 119.902436,49.0942376" id="Fill-22" fill="#6D5866"></path>
            <path d="M146.283917,24.253619 C144.040173,24.4388732 143.113902,25.0833214 139.552685,26.5830921 C128.573417,31.2055788 125.399461,29.3934379 122.452145,33.1202008 C119.527494,36.820358 119.416144,42.7002083 121.294306,43.9989586 C122.086564,44.546838 123.060134,44.1526802 123.436555,44.7547563 C124.094798,45.8051871 122.087549,48.2814841 119.935447,50.5124177 C118.428779,46.4171172 117.902578,43.0431257 117.699587,40.7254773 C117.447325,37.8510809 117.7459,37.2174721 117.382289,33.7538096 C116.926052,29.4023065 116.26091,28.5686625 116.052992,25.4912748 C115.923905,23.584536 115.965292,20.738716 116.924081,17.1666601 C129.197172,15.0155434 141.470264,12.8654121 153.743355,10.7152808 C154.533641,12.9481853 155.673743,16.2896588 156.91337,20.396784 C158.156938,24.5147486 159.112771,27.6847634 159.81043,30.4143068 C159.174851,29.8102599 158.407228,29.4220144 157.582453,29.1608847 C154.711998,26.0155048 150.634435,23.8949353 146.283917,24.253619" id="Fill-24" fill="#F4BE9A"></path>
            <path d="M161.904098,32.1536271 C161.757275,30.5425067 160.875346,29.5649951 161.412386,28.1105525 C161.620305,27.5488775 161.963222,27.1241724 161.824281,26.4945052 C161.682385,25.8490716 161.225161,25.8431592 161.013302,25.0991862 C160.82115,24.4202492 161.163082,24.2911625 160.953193,23.351096 C160.888156,23.0594191 160.831004,22.966792 160.667428,22.3115045 C160.525531,21.7399756 160.548195,21.731107 160.479218,21.4827876 C160.263416,20.7181213 159.86039,20.1475777 159.507618,19.6499534 C159.070103,19.0311255 158.956783,19.0252131 158.890761,18.7266385 C158.787295,18.2546344 159.032658,18.0841611 159.110504,17.3214656 C159.155833,16.8701548 159.202146,16.4178587 158.995213,15.9724602 C158.804047,15.562536 158.555727,15.492573 158.265036,15.2432681 C158.562625,14.7200235 158.620763,14.0125101 158.527151,13.3079529 C158.393137,12.2910255 157.891571,11.3588421 157.251065,10.5074611 C157.157452,10.1960763 157.033292,9.89651634 156.870702,9.61567884 C156.871688,9.61075187 156.871688,9.6058249 156.872673,9.59991253 C156.924899,8.57904359 156.623368,7.77890307 156.512018,7.49412399 C156.085343,6.39442347 155.373888,5.76377085 154.475208,4.98530901 C153.790358,4.39210139 152.698541,3.57225297 151.154427,2.87952048 C151.154427,2.87952048 151.154427,2.87952048 151.154427,2.87853508 C150.69819,2.3700714 150.027136,2.46565469 149.27725,2.35331969 C148.929406,2.30109377 147.799158,2.13160588 147.147812,1.34033391 C146.946792,1.09792681 147.015769,1.05456944 146.774348,0.791469046 C146.158476,0.12337142 145.401693,-0.047101868 145.131695,0.011036421 C145.113958,0.0139926051 145.023301,0.0297589208 144.841989,0.0760724731 C144.744435,0.0997219466 144.610421,0.131254578 144.42024,0.167714183 C144.134475,0.222896288 143.73539,0.290888524 143.107694,0.371690892 C139.846037,0.79442523 139.719907,0.449537075 138.347252,0.820045493 C135.747781,1.52263193 135.874897,2.84503166 133.973085,2.8381339 C132.659554,2.83419232 132.228936,2.27054653 130.332051,2.2025543 C129.686618,2.17989022 128.942645,2.25970719 127.98287,2.53266153 C125.004022,3.3791156 124.263991,4.8562223 122.341485,5.74012137 C121.526564,6.11555677 120.951094,6.29095703 120.13026,6.3520515 C118.929064,6.44270782 118.410746,6.09880506 117.205608,6.31263571 C116.774005,6.3894965 116.149265,6.5008461 115.498904,6.93047821 C113.930156,7.96809886 113.501509,10.0157491 113.404941,10.5823511 C113.267971,11.3854478 113.376364,11.7076719 113.296547,12.1382893 C113.288664,12.1796759 113.275854,12.2387996 113.257131,12.3077772 C113.171402,12.6171912 113.033447,12.8221533 112.924068,12.9896704 C112.800894,13.1788662 112.638304,13.4350688 112.424473,13.7888255 C112.199803,14.4322883 111.888418,15.6019518 112.051008,17.0445697 C112.103234,17.509676 112.239219,18.7010182 113.018666,19.938674 C113.104395,20.0736731 113.142826,20.1436361 113.207862,20.2264093 C113.856251,21.0551262 114.667231,20.8215877 115.787625,21.4305616 C116.627181,21.885814 116.52273,22.2070527 117.225316,22.4435474 C117.911151,22.6731444 118.579248,22.5568678 119.046326,22.414971 C119.604059,22.9204785 120.443615,23.5048175 121.486163,23.538321 C122.680461,23.5767514 123.367281,22.8672672 124.237385,22.3785114 C127.3197,20.645202 129.41859,23.5304378 133.81148,22.1883302 C134.786036,21.890741 134.780123,21.8749747 138.025028,20.4520647 C138.769986,20.1249136 139.71498,19.7691861 141.03935,19.3888238 C142.164671,19.0656143 143.476232,18.8103971 145.14352,18.6734272 C147.320256,18.4950707 148.421928,18.3157289 149.602431,18.6596317 C150.384834,18.8872578 152.072815,19.526779 153.416894,21.1378994 C154.652579,22.6169769 154.38258,23.4989052 155.864614,25.0154277 C156.918987,26.0934495 157.262889,25.8845458 157.955622,26.8078607 C158.884849,28.0465019 158.873024,29.2339025 159.253387,31.2687426 C159.478057,32.4719096 159.884039,34.2150729 160.678267,36.3129782 C161.844975,34.4988665 161.990813,33.1005914 161.904098,32.1536271" id="Fill-26" fill="#6D5866"></path>
            <path d="M163.563405,30.2409759 C163.516106,30.0034958 163.455011,29.7630595 163.380121,29.5176962 C162.03013,25.1533829 156.235024,29.6487537 156.146339,32.5763614 C156.108894,33.8179588 157.747605,34.2012773 158.252127,33.0651172 C158.265923,33.03457 158.286616,32.9981104 158.301397,32.9665777 C158.306324,33.4356256 158.315192,33.9046735 158.319134,34.3737214 C158.318148,34.4959104 158.370374,34.5826251 158.445264,34.639778 C157.878662,34.8329153 157.467753,35.4527286 157.781108,36.1040745 C157.830378,36.207541 157.890487,36.310022 157.956509,36.4105323 C157.7614,36.4775392 157.564322,36.544546 157.364286,36.5859326 C156.177871,36.8303105 156.194623,38.6749694 157.452972,38.7518302 C160.354959,38.931172 162.597718,37.8531502 163.544682,35.0477314 C163.962489,33.806134 164.180262,31.6934477 163.563405,30.2409759" id="Fill-28" fill="#F6C5A2"></path>
            <path d="M198.810974,203.304473 L154.523393,203.308414 C125.268009,205.459531 117.711017,203.203962 117.031095,200.367011 C116.226027,197.006815 125.5183,194.688181 132.688032,183.998619 C138.069272,175.975535 135.250058,173.582011 140.516993,153.395215 C143.942225,140.269757 145.707067,139.089254 151.976148,116.940537 C153.838544,110.361056 153.465079,111.233131 155.270323,104.941385 C160.401273,87.0545002 163.350559,80.2375395 161.868526,79.3772899 C159.478943,77.9908395 149.250546,94.2537941 146.923044,92.8998618 C145.013349,91.7893219 148.545004,80.6060771 154.75102,71.5483288 C158.66008,65.8448641 162.983993,61.9249639 166.138241,59.4496523 C168.197716,62.9891902 170.510437,64.2731595 171.872253,64.8092142 C175.447265,66.2163579 178.052649,63.7706082 180.04019,65.3196487 C182.671194,67.3682843 179.921943,72.5721539 182.346999,74.3695139 C184.8095,76.1944649 188.812174,71.6990942 192.292588,73.4875856 C194.491989,74.6178334 193.19521,76.5482216 196.887484,82.6773769 C199.96093,87.7787654 203.427548,90.7615552 204.035537,91.3567336 C208.185034,95.4185307 211.723587,118.019544 210.885016,191.22846 C210.88206,192.041411 210.788447,196.306199 207.33858,199.757052 C203.888713,203.206919 199.623925,203.301516 198.810974,203.304473" id="Fill-30" fill="#634D5D"></path>
            <g id="Group-34" transform="translate(116.276578, 55.868925)">
                <mask id="mask-4" fill="white">
                    <use xlink:href="#path-3"></use>
                </mask>
                <g id="Clip-33"></g>
                <path d="M84.3880221,105.452313 C82.7266466,112.483104 79.5615587,120.501261 72.177996,123.100732 C71.5680367,123.315548 71.3512498,122.332124 71.9562822,122.119279 C82.1028917,118.546238 84.1061992,104.27181 85.0482366,95.1352297 C86.0582662,85.3502601 85.6128677,75.5751443 85.5951306,65.7655398 C85.5941452,65.1161647 86.6002333,65.1536097 86.6012187,65.801014 C86.6081164,69.7544177 86.7549402,73.7068359 86.7736627,77.6602396 C86.8160347,86.9308332 86.5292848,96.3925934 84.3880221,105.452313 M53.5165906,54.4167487 C52.0857975,62.5669485 50.8008428,70.7132068 50.0785484,78.9609606 C49.328663,87.5338948 48.7315138,96.1472301 46.5912365,104.513231 C46.4296318,105.143884 45.4669011,104.850236 45.6275204,104.224511 C47.9402419,95.1825287 48.4250561,85.8557676 49.2823495,76.5999549 C49.9366516,69.5297477 51.1516433,62.5758171 52.3075113,55.5765583 C53.2406801,49.9253196 54.3660009,43.6858001 58.1193694,39.1382035 C62.4353983,33.9077282 75.6534832,27.0641618 80.2306417,35.3828641 C80.5430119,35.9504515 79.6502442,36.4165432 79.3388595,35.8489559 C75.950087,29.6912242 66.9721557,33.5470738 62.6403604,36.4677837 C56.5614604,40.5670258 54.720743,47.562343 53.5165906,54.4167487 M97.2198323,37.6798193 C88.9257648,23.7601333 75.7539935,14.4599779 62.7684618,5.29186531 C59.1027934,2.70421875 53.6939617,-0.591926614 49.4685891,1.28229416 C48.4092898,1.75232745 47.5391862,2.34454968 46.2581731,4.09165453 C42.8526489,8.73286371 40.2659877,12.7542596 38.4745401,15.6798965 C29.8513508,29.7670996 29.9538319,34.2989299 30.645579,37.0314295 C31.4949892,40.382757 33.5150484,39.5510838 34.2501529,42.5525962 C35.6395595,48.2255136 29.6483595,51.489141 27.0873186,62.6526779 C26.5236728,65.1102523 26.2182005,67.4801266 26.1364127,68.2960335 C25.5422197,74.2044603 26.5946213,78.0159671 24.2405132,97.5257973 C21.7474646,118.185583 19.3884296,123.690984 16.4115521,128.129201 C9.24182008,138.819749 -0.0514376048,141.138383 0.754615283,144.498579 C1.43453765,147.334545 8.99054443,149.590113 38.2459285,147.439982 L82.5344946,147.43604 C83.3464599,147.433084 87.6122337,147.338486 91.0621006,143.887634 C94.5119675,140.436782 94.60558,136.171993 94.6075508,135.359043 C111.245941,98.9506781 111.457801,61.5736706 97.2198323,37.6798193" id="Fill-32" fill="#82697C" mask="url(#mask-4)"></path>
            </g>
            <path d="M86.1299044,184.529648 C84.6054987,185.066688 81.3911411,186.199892 77.6101815,185.066688 C74.9693237,184.276402 73.2360143,182.735244 72.3560568,181.814886 C71.8367538,180.500369 71.6091276,179.41742 71.4967926,178.727644 C71.0839122,176.190253 71.5973029,175.038326 71.1923057,171.537219 C71.1716124,171.361819 71.1459921,171.17952 71.1459921,171.17952 C71.0385841,170.374453 70.936103,169.781245 70.9203367,169.688618 C70.8365782,169.191979 70.6473824,167.666588 70.2236627,163.665886 L70.2236627,163.6649 C68.5021781,145.22718 69.4511132,147.121108 69.0520283,141.681729 C69.0165541,141.191003 69.041189,139.889296 69.2698006,138.510729 C69.7881182,135.386042 71.3647497,132.757995 71.4514645,132.616098 C71.8229583,132.007124 72.1185767,131.625776 72.2456926,130.937971 C72.3570422,130.33688 72.3442321,129.471703 72.3580276,128.316821 C72.3609838,128.041895 72.3678816,128.047808 72.4358738,127.484162 C72.4910559,127.020041 72.7374046,125.014763 72.8201778,123.823421 C72.9246296,122.300986 72.9778409,121.539276 72.845798,120.949024 C72.4368592,119.128015 71.3391295,118.594916 71.6652951,117.751418 C71.9008045,117.142444 72.6733539,116.899052 73.7572881,116.559091 C74.203672,116.419165 75.1072789,116.187597 76.2661031,116.284166 C77.3273733,116.372851 77.8614572,116.414238 78.1748127,116.796571 C78.7926552,117.549412 77.8752527,118.684587 77.8131729,120.649464 C77.7727717,121.908799 78.1028789,122.943463 78.3837164,123.614517 C78.7808305,124.810786 79.2823964,126.118405 79.9219176,127.497958 C80.6777153,129.130757 81.4847536,130.560564 82.2622301,131.787381 C82.2622301,131.787381 82.2858795,131.806103 82.3183976,131.832709 C82.3450032,131.854388 82.3785066,131.881979 82.4179224,131.915482 C82.7726645,132.214057 83.5866006,132.924526 84.4902075,133.969045 C84.8695845,134.40656 85.2617716,134.929805 85.7042138,135.637318 C86.8788044,137.512524 87.3370129,139.197549 87.5587267,140.06174 C89.3275103,146.953591 90.2488543,157.208594 90.7287416,162.24002 C90.9888858,164.971534 91.3593942,167.697136 91.463846,170.439489 C91.7121655,176.970685 93.0434338,178.931621 91.6550126,181.115256 C90.4439625,183.021009 88.3677358,183.741332 86.1299044,184.529648" id="Fill-35" fill="#D1493B"></path>
            <path d="M71.3283887,176.538984 C71.5323654,176.058111 71.7718163,175.589063 72.0999528,175.146621 C72.3581262,174.799762 72.8922101,174.777098 73.1139239,175.18111 C74.1574569,177.080951 74.8856637,179.144368 76.5657617,180.566292 C77.0348096,179.264586 77.3057931,177.918536 77.5787474,176.555736 C77.6802431,176.053184 78.4399824,176.04136 78.6547985,176.455225 C78.963227,177.050404 79.3613265,177.571678 79.7328203,178.111674 C80.8965715,175.958586 81.8997033,173.735536 82.7934564,171.458289 C82.9550611,171.048364 83.6704577,170.848329 83.8695074,171.357778 C84.4272408,172.787586 84.9248651,174.232175 85.5712841,175.620596 C86.0137263,174.466699 86.4108404,173.306889 86.704488,172.095839 C86.8513118,171.491792 87.6691895,171.63763 87.832765,172.134269 C88.0505372,172.799411 88.3234916,173.431049 88.6003875,174.062687 C89.6409643,171.946059 90.5051555,169.769322 91.2658802,167.559082 C91.1072317,165.784386 90.8973426,164.013631 90.7288401,162.239921 C90.2489529,157.209481 89.3276088,146.953493 87.5588253,140.061642 C87.3371114,139.198436 86.8789029,137.512426 85.7043124,135.637219 C85.2618701,134.929706 84.869683,134.406461 84.4903061,133.968946 C83.5866991,132.924428 82.7727631,132.213958 82.418021,131.916369 C82.3786052,131.882866 82.3451017,131.854289 82.3184961,131.83261 C82.2859781,131.806005 82.2623286,131.787282 82.2623286,131.787282 C81.4848522,130.560466 80.6778139,129.130658 79.9220161,127.498844 C79.2824949,126.118306 78.780929,124.811673 78.3838149,123.614418 C78.1029774,122.94435 77.7718848,121.9087 77.812286,120.649366 C77.8753513,118.684489 78.7917684,117.549314 78.1749113,116.796472 C77.8615557,116.414139 77.3274718,116.372753 76.2662017,116.284067 C75.8661314,116.251549 75.5113893,116.264359 75.1802967,116.29195 C76.4297772,126.50064 80.3092762,137.065056 72.5128331,145.737515 C71.4929496,146.871705 70.365658,147.968449 69.167418,149.024792 C69.2413226,151.638059 69.4886567,155.798396 70.2237612,163.664802 L70.2237612,163.665787 C70.5913134,167.957181 70.9598511,172.24759 71.3283887,176.538984" id="Fill-37" fill="#BF3E37"></path>
            <path d="M190.377867,176.693001 C184.159041,166.420261 174.940674,158.407031 164.726072,152.206927 C158.795966,152.056162 152.621483,151.754631 146.206563,151.269817 C140.520836,150.840185 135.622439,150.334677 131.563598,149.853805 C131.563598,149.853805 121.274106,148.635857 103.244339,150.700259 C100.756217,150.985038 95.691288,151.660033 93.1410864,155.470555 C92.2571873,156.789998 91.9122992,158.132106 91.7605484,159.086953 L91.6245639,160.785774 C91.0648597,167.788974 96.1908831,173.688533 103.016712,173.896451 C114.889733,174.987283 126.76374,176.077129 138.636761,177.167961 C146.742618,178.676601 176.605005,183.90412 191.343554,178.369158 C191.030199,177.806497 190.712902,177.245808 190.377867,176.693001" id="Fill-39" fill="#634D5D"></path>
            <path d="M71.4688074,167.493652 C73.7953244,170.393668 78.053215,170.349325 84.4326605,170.506003 C88.5890554,170.608484 92.7947202,169.877321 94.8709468,169.372799 C95.1655799,169.301851 98.7159571,168.433718 98.7169425,168.433718 C99.1396768,167.060078 100.031459,163.500832 98.6952638,159.357247 C97.8074231,156.60504 96.3046962,154.730819 95.3498487,153.716848 C91.0604254,151.52533 87.7721632,150.045267 85.5047699,149.25498 C83.542849,148.570131 82.7220152,148.569146 82.50917,148.895311 C82.1110705,149.504285 83.9793789,151.03953 83.4689444,152.650651 C83.0314292,154.030203 81.1030117,154.671695 79.4179867,154.999832 C79.1164559,154.90819 72.0925623,152.771854 70.241991,152.375726 C70.1700572,152.360945 70.0133794,152.329412 69.8498039,152.395433 C68.9540801,152.756088 69.2437861,155.478734 69.5522147,157.771747 C70.3434867,163.647656 70.7396153,166.585118 71.4688074,167.493652" id="Fill-41" fill="#F6C5A2"></path>
        </g>
    </g>
</svg>