<?xml version="1.0" encoding="UTF-8"?>
<svg width="64px" height="256px" viewBox="0 0 64 256" version="1.1" xmlns="http://www.w3.org/2000/svg" xmlns:xlink="http://www.w3.org/1999/xlink">
    <!-- Generator: Sketch 46.2 (44496) - http://www.bohemiancoding.com/sketch -->
    <title>line2</title>
    <desc>Created with Sketch.</desc>
    <defs>
        <polygon id="path-1" points="20.8965621 51.8585209 0.379407716 51.8585209 0.379407716 0.26011303 20.8965621 0.26011303"></polygon>
        <polygon id="path-3" points="20.3283545 51.8585209 0.0671313114 51.8585209 0.0671313114 0.26011303 20.3283545 0.26011303"></polygon>
        <polygon id="path-5" points="60.6977311 0.240846139 60.6977311 55.4453479 0.50565404 55.4453479 0.50565404 0.240846139 60.6977311 0.240846139"></polygon>
        <polygon id="path-7" points="0.0574811399 0.503004134 31.6584425 0.503004134 31.6584425 47.5579075 0.0574811399 47.5579075"></polygon>
        <polygon id="path-9" points="0 24.6874009 0 0.317044139 4.85269539 0.317044139 4.85269539 24.6874009 2.67102792e-16 24.6874009"></polygon>
    </defs>
    <g id="Page-1" stroke="none" stroke-width="1" fill="none" fill-rule="evenodd">
        <g id="line2">
            <polygon id="line-a" fill="#D8D8D8" points="0 0 64 0 64 64 64 128 64 192 64 256 0 256 0 192 0 128 0 64"></polygon>
            <g transform="translate(1.000000, 0.000000)">
                <path d="M23.873665,27.1639871 C23.8713339,27.9970278 23.8684199,28.8295064 23.8783274,29.6799723 C23.9354418,34.7445448 24.2064433,39.5078287 24.6132371,43.9321628 L33.7491961,53.5048232 L33.7491961,27.1639871 L23.873665,27.1639871 Z" id="Fill-1" fill="#F6C5A2"></path>
                <path d="M36.3557446,43.9201651 C38.7823119,45.9489679 41.5648508,46.0882555 41.5648508,46.0882555 C41.8769585,46.1036684 45.8978059,46.2595106 46.773957,44.1171086 C47.5337003,42.2595609 45.1065706,40.6874385 44.4390537,36.4311769 C44.1668733,34.6975038 44.3929405,33.8309527 44.7983994,30.5188778 C45.1633686,27.5350421 45.8899329,21.7175042 45.5165284,17.1181614 C45.5165284,17.1181614 44.9687933,10.3638578 41.8449042,7.1705199 C41.6615761,6.98271007 41.2139405,6.53744665 40.6690172,6.58939405 C39.8063627,6.67216737 39.2676254,7.95372684 39.0499935,8.4469417 C37.1430434,12.7757013 28.0772978,36.9986023 36.3557446,43.9201651" id="Fill-3" fill="#A84637"></path>
                <path d="M58.4437299,101.562682 C58.4437299,101.562682 51.1580381,158.306982 50.5974283,162.27914 C50.0373774,166.251298 46.6742775,238.316616 46.1142266,241.154114 C45.5536168,243.991612 38.267925,245.693885 37.1467054,243.423999 C36.0260447,241.154114 34.9048251,175.330273 34.9048251,175.330273 L32.1028939,101.562682 C32.1028939,101.562682 50.5974283,67.5161013 58.4437299,101.562682" id="Fill-5" fill="#F6C5A2"></path>
                <path d="M41.6148758,145.949504 C45.5442968,140.823768 48.3101487,136.254475 50.2047209,132.774861 C53.8915919,126.0047 54.8338481,122.345643 55.072486,121.373706 C55.7515141,118.610733 55.6810964,117.470674 56.2181712,113.012897 C56.5954091,109.879716 57.2504057,105.291743 58.4408006,99.6531502 C58.5682232,93.1982885 54.5231159,87.4928994 49.3172339,86.5379444 C41.1828687,85.0452258 32.1028939,99.6531502 32.1028939,99.6531502 L34.4976555,154.752412 C36.8700623,151.81792 39.2424691,148.883995 41.6148758,145.949504" id="Fill-7" fill="#F4BE9A"></path>
                <g id="Group-11" transform="translate(35.395498, 203.318328)">
                    <mask id="mask-2" fill="white">
                        <use xlink:href="#path-1"></use>
                    </mask>
                    <g id="Clip-10"></g>
                    <path d="M11.0432265,37.4618063 L20.8965621,51.8587464 L5.53955146,51.8587464 L3.34529051,44.6599945 L1.15159276,51.8587464 L1.15159276,33.7437759 C0.956722559,27.2935905 0.908849822,22.3005168 0.902091318,18.8834912 C0.89307998,13.9907525 0.972492401,14.4242221 0.902091318,12.5099663 C0.66103801,5.92957092 -0.142660755,4.53897341 0.902091318,2.94996069 C2.75673745,0.128744415 8.75153048,-0.758487236 11.7280883,1.67548117 C14.0823005,3.59988324 13.8536378,7.02423666 13.0015031,16.6530112 C12.256378,25.072693 11.5720795,32.1632183 11.0432265,37.4618063" id="Fill-9" fill="#E5B958" mask="url(#mask-2)"></path>
                </g>
                <path d="M47.7427653,178.960846 C46.6572038,180.589659 44.737863,181.392742 42.9174162,180.99091 C40.4064159,180.436359 39.5476289,177.913295 39.511254,177.800643" id="Fill-12" fill="#F4BE9A"></path>
                <path d="M35.9302102,216.254763 C35.6831034,209.607403 34.861718,208.203344 35.9302102,206.598298 C36.7325874,205.392379 38.2952933,204.541744 40.0596016,204.141479 C40.4818144,204.83326 40.9172754,205.519917 41.3849928,206.206004 C42.2075302,207.412493 42.2541867,206.816935 41.7213806,208.068973 C41.3331522,208.982238 40.6333042,209.834011 40.1730749,210.72564 C38.9179565,213.156268 37.6818463,216.237113 39.1212868,218.835135 C39.5227634,219.55937 40.2352836,220.08034 40.6361842,220.794327 C41.490402,222.314537 40.8660108,222.755796 40.1771069,224.220208 C39.5198834,225.618574 39.1535432,227.116579 38.9957174,228.646468 C38.5360641,233.090947 39.6241406,237.535996 39.1996237,242.000972 C39.1690954,242.323803 39.3159771,242.763924 39.7122696,242.802072 C40.3274447,242.861855 40.878683,242.91139 41.4535376,242.877228 C42.7818088,248.789536 46.9659208,252.718738 51.8585209,256 L40.6730486,256 L38.4289269,248.729183 L36.1853811,256 L36.1853811,237.702251 C35.9860829,231.187553 35.9371223,226.1441 35.9302102,222.692597 C35.9204181,217.749921 36.002211,218.187764 35.9302102,216.254763" id="Fill-14" fill="#E0B04F"></path>
                <path d="M5.76205788,101.562682 C5.76205788,101.562682 13.0477497,158.306982 13.6083595,162.27914 C14.1684104,166.251298 17.5315103,238.316616 18.0915612,241.154114 C18.652171,243.991612 25.9378628,245.693885 27.0590824,243.423999 C28.1797431,241.154114 29.3009627,175.330273 29.3009627,175.330273 L32.1028939,101.562682 C32.1028939,101.562682 13.6083595,67.5161013 5.76205788,101.562682" id="Fill-16" fill="#F6C5A2"></path>
                <path d="M22.590912,145.949504 C18.661491,140.823768 15.8956391,136.254475 14.0010669,132.774861 C10.3141959,126.0047 9.37193965,122.345643 9.13330179,121.373706 C8.4542737,118.610733 8.52469143,117.470674 7.98761654,113.012897 C7.61037871,109.879716 6.95538207,105.291743 5.76498715,99.6531502 C5.6375646,93.1982885 9.68267184,87.4928994 14.8885538,86.5379444 C23.0229191,85.0452258 32.1028939,99.6531502 32.1028939,99.6531502 L29.7081323,154.752412 C27.3357255,151.81792 24.9633187,148.883995 22.590912,145.949504" id="Fill-18" fill="#F4BE9A"></path>
                <g id="Group-22" transform="translate(8.231511, 203.318328)">
                    <mask id="mask-4" fill="white">
                        <use xlink:href="#path-3"></use>
                    </mask>
                    <g id="Clip-21"></g>
                    <path d="M9.79755627,37.4618063 L0.0671313114,51.8587464 L15.2325784,51.8587464 L17.3994681,44.6599945 L19.5658017,51.8587464 L19.5658017,33.7437759 C19.7582411,27.2935905 19.8055166,22.3005168 19.8121908,18.8834912 C19.8210898,13.9907525 19.7426679,14.4242221 19.8121908,12.5099663 C20.0502372,5.92957092 20.8439107,4.53897341 19.8121908,2.94996069 C17.9806796,0.128744415 12.0606657,-0.758487236 9.12123751,1.67548117 C6.79639176,3.59988324 7.02220214,7.02423666 7.86370731,16.6530112 C8.59953767,25.072693 9.27530025,32.1632183 9.79755627,37.4618063" id="Fill-20" fill="#E5B958" mask="url(#mask-4)"></path>
                </g>
                <path d="M17.2861736,178.960846 C18.3717351,180.589659 20.2910759,181.392742 22.1115227,180.99091 C24.622523,180.436359 25.4813101,177.913295 25.5176849,177.800643" id="Fill-23" fill="#F4BE9A"></path>
                <path d="M29.0987287,216.254763 C29.3458355,209.607403 30.1672209,208.203344 29.0987287,206.598298 C28.2963515,205.392379 26.7336456,204.541744 24.9693373,204.141479 C24.5471245,204.83326 24.1116635,205.519917 23.6439461,206.206004 C22.8214087,207.412493 22.7747522,206.816935 23.3075583,208.068973 C23.6957867,208.982238 24.3956347,209.834011 24.855864,210.72564 C26.1109824,213.156268 27.3470926,216.237113 25.9076521,218.835135 C25.5061755,219.55937 24.7936553,220.08034 24.3927547,220.794327 C23.5385369,222.314537 24.1629281,222.755796 24.851832,224.220208 C25.5090555,225.618574 25.8753957,227.116579 26.0332215,228.646468 C26.4928748,233.090947 25.4047983,237.535996 25.8293152,242.000972 C25.8598435,242.323803 25.7129619,242.763924 25.3166693,242.802072 C24.7014943,242.861855 24.1502559,242.91139 23.5754013,242.877228 C22.2471301,248.789536 18.0630181,252.718738 13.170418,256 L24.3558903,256 L26.600012,248.729183 L28.8435578,256 L28.8435578,237.702251 C29.042856,231.187553 29.0918166,226.1441 29.0987287,222.692597 C29.1085208,217.749921 29.0267279,218.187764 29.0987287,216.254763" id="Fill-25" fill="#E0B04F"></path>
                <path d="M52.5525972,36.7676189 C55.0533209,35.3028844 59.6889077,36.9242293 61.5460415,39.7961795 C63.2460466,42.4243869 62.3606756,45.7006767 62.0603337,46.8630107 C59.7880554,55.6531259 59.5306194,64.9905234 59.2337563,75.6354754 C59.0493765,82.2370313 59.7521071,89.4764187 59.4511853,103.500739 C59.4140774,105.246802 59.3033336,109.118212 57.9355601,109.455351 C56.2610666,109.868803 53.6269865,104.754761 53.3231656,104.156224 C51.8690003,101.290539 51.548365,99.0757827 51.0108804,96.3319683 C48.9948785,86.0372541 47.1661554,83.9785391 47.9135314,79.1577859 C48.2254696,77.1486167 48.5663983,74.948098 50.298293,73.1957699 C51.2729549,72.2099786 52.0632369,71.9975579 52.5166489,70.9576648 C53.3318628,69.0874517 51.7773902,67.0748656 51.343112,65.65626 C50.3707693,62.4784924 50.9471012,58.6720052 51.2677366,53.6775568 C52.059758,41.3366564 50.1858097,38.1537634 52.5525972,36.7676189" id="Fill-27" fill="#F6C5A2"></path>
                <path d="M51.4872224,51.0353698 C51.4557501,51.8867898 51.4147237,52.7814021 51.3573991,53.7351819 C51.255676,55.4303302 51.1286627,56.99176 51.0353698,58.4437299 L59.9397893,58.4437299 C60.1780797,55.9190535 60.4905549,53.4541363 60.9131833,51.0353698 L51.4872224,51.0353698 Z" id="Fill-29" fill="#F4BE9A"></path>
                <path d="M11.091389,139.11254 C25.3960269,139.007292 39.7001021,138.902043 54.00474,138.796225 C55.7409037,134.39228 57.764083,127.822487 58.306599,119.635847 C58.5908008,115.351942 58.6071213,108.377653 56.5968858,100.162567 C55.8557099,97.1331124 54.8393367,94.0188896 53.4701029,90.7988492 C46.9013825,75.3551713 33.9772339,72.3928479 24.79048,76.7080434 C22.5883379,77.7423249 14.599734,81.4937289 10.0221148,94.3027765 C8.93089227,97.3561258 8.1852142,100.204098 7.67533923,102.836452 C7.62074997,103.117495 6.65277541,108.189343 6.58861896,113.846032 C6.46368271,124.876093 9.80544603,135.367394 11.091389,139.11254" id="Fill-31" fill="#633F47"></path>
                <path d="M15.7576995,97.7447621 C15.9687519,95.8468513 16.1792399,93.949505 16.3902922,92.0515942 C21.3466362,91.6744959 25.5468033,91.5028824 28.7204887,91.4187691 C41.6561909,91.0783645 45.6627994,91.9889327 48.9555544,93.3166799 C51.7116495,94.4276521 53.8029863,95.7644316 55.1511254,96.7320162 C55.0715575,96.4740313 54.9660314,96.1404009 54.8390614,95.7520122 C54.7324066,95.4268497 54.6234946,95.1033806 54.5106324,94.7827342 C47.7140701,75.4671731 34.3421554,71.7628035 24.8363357,77.1595992 C22.558212,78.4529109 14.292748,83.1451877 9.55648539,99.1650904 C6.92341002,108.072061 6.40537248,117.066533 6.00414732,123.607043 C5.885642,125.536567 5.80946001,127.409639 5.76205788,129.234727 C6.88221531,128.748112 8.01083742,128.294239 9.14566694,127.861818 C10.8476291,126.126488 13.1048733,123.332122 14.3649799,119.404204 C15.0856051,117.159114 15.1900026,115.448059 15.4281419,108.47287 C15.5754271,104.14753 15.6826462,100.488321 15.7576995,97.7447621" id="Fill-33" fill="#56373F"></path>
                <path d="M11.6876798,36.7676189 C9.17833726,35.3028844 4.52677363,36.9242293 2.66323913,39.7961795 C0.957374892,42.4243869 1.84579736,45.7006767 2.14717447,46.8630107 C4.42728427,55.6531259 4.68560751,64.9905234 4.98349376,75.6354754 C5.16850905,82.2370313 4.46335644,89.4764187 4.76531535,103.500739 C4.80255113,105.246802 4.91367667,109.118212 6.2861643,109.455351 C7.96642893,109.868803 10.6095876,104.754761 10.9144556,104.156224 C12.6709372,100.706809 13.0898397,97.6133262 13.2347102,96.3319683 C14.4873452,85.2667309 9.47040542,81.5547794 12.4405408,75.5380922 C13.0892579,74.2248427 14.1906225,72.6547521 13.9631352,70.4280368 C13.7251753,68.093118 12.2444711,67.1739572 11.3339399,65.3407612 C9.65192985,61.9528509 12.4300682,59.1384194 12.9769688,53.6775568 C14.3459655,40.0063222 13.2533281,37.6810847 11.6876798,36.7676189" id="Fill-35" fill="#F6C5A2"></path>
                <path d="M11.5241158,44.4501608 L1.64630225,44.4501608 C1.74836255,45.4233842 1.96582058,46.2376796 2.08817697,46.7037935 C2.80955773,49.4572351 3.32739779,52.2651502 3.70838425,55.1511254 L11.5241158,55.1511254 L11.5241158,44.4501608 Z" id="Fill-37" fill="#F4BE9A"></path>
                <path d="M17.9166896,13.3720461 C17.5295262,14.40372 16.551038,18.6082348 18.2638214,23.2727971 C21.4417637,31.9244387 32.4327435,37.5096685 37.4338423,34.6332265 C38.7485966,33.8773523 39.3993971,32.599633 40.7021418,30.0441944 C41.1979626,29.0714569 43.3001969,24.8932633 43.593,18.8651519 C43.7925864,14.7550499 43.0823103,11.2657834 42.2839645,8.69832861 C41.9202482,7.78052218 40.331563,4.07496457 36.3770063,2.4012839 C31.9226257,0.516461971 27.7753451,2.65762883 26.0265332,3.45584577 C22.866891,4.89778604 19.9726016,7.89839508 17.9166896,13.3720461" id="Fill-39" fill="#F4BE9A"></path>
                <g id="Group-43" transform="translate(0.823151, 35.395498)">
                    <mask id="mask-6" fill="white">
                        <use xlink:href="#path-5"></use>
                    </mask>
                    <g id="Clip-42"></g>
                    <path d="M7.84104952,0.462777226 C6.49306333,0.64709656 4.10447693,1.00046952 2.35829901,2.99914697 C1.06671392,4.47765942 0.783016411,6.11222138 0.671342241,6.80426698 C0.567000214,7.45390782 0.0210376087,10.850246 1.72604273,12.0890302 C3.18683111,13.1514107 5.04129913,11.7113452 6.36503285,12.9348638 C7.02943775,13.5488846 7.12813967,14.4354267 7.20822922,15.2597751 C7.47557042,18.0008185 6.17496115,19.8468388 5.73221255,21.1789135 C5.07344776,23.1623252 5.53255267,26.3692555 10.3717667,31.74844 C9.62614419,38.7599249 8.88108572,45.7714098 8.13546324,52.7828947 C22.8341528,53.6700021 37.5328423,54.557675 52.2315318,55.4453479 C52.0036714,51.8629942 51.8028835,48.2274932 51.6325522,44.5394103 C51.4086398,39.6854794 51.2450767,34.9157925 51.1362226,30.2337422 C54.5174682,26.0803378 54.81583,23.3579525 54.3104762,21.570168 C53.941049,20.26184 52.8857845,19.0716799 53.4182109,18.2886054 C53.8214787,17.6949388 54.9032517,17.6536649 57.025061,17.5733785 C57.7678634,17.5451087 58.3826353,17.556982 58.8016955,17.5733785 C59.2342919,15.2733446 59.653916,13.4499402 59.9511498,12.2303794 C60.4542476,10.166116 60.7729138,9.13765929 60.682672,7.51666686 C60.6369871,6.69231843 60.5608456,5.60279892 59.9511498,4.37362643 C59.0408361,2.53891403 57.5569233,1.64615259 57.025061,1.33574978 C55.4035295,0.38927565 53.8981842,0.305596934 52.96249,0.254145831 C52.0234118,0.202129332 50.4678696,0.282415668 48.7143595,0.863078112 C47.2851557,1.33631518 47.0719596,1.6619837 45.6850567,2.128436 C44.0686013,2.67178226 43.692406,2.32067089 40.8887075,2.63446608 C38.2491362,2.92960317 38.3839348,3.26262185 36.0686699,3.46729546 C35.6704781,3.50235006 35.0844707,3.53966624 31.4026072,3.46729546 C30.1634751,3.4429834 28.3490519,3.40001325 26.1533572,3.32142311 C22.2227649,3.18007392 20.2577507,3.10939933 19.8826834,3.02911299 C16.821796,2.37212199 16.2859856,1.53307324 13.1207561,0.863078112 C11.3717581,0.492743252 9.84159638,0.189125207 7.84104952,0.462777226" id="Fill-41" fill="#D88764" mask="url(#mask-6)"></path>
                </g>
                <g id="Group-46" transform="translate(13.993569, 0.000000)">
                    <mask id="mask-8" fill="white">
                        <use xlink:href="#path-7"></use>
                    </mask>
                    <g id="Clip-45"></g>
                    <path d="M14.0841701,19.055388 C13.0700627,17.6736897 12.9049621,15.6622415 12.2583181,15.7298771 C11.6065147,15.7986494 11.6466433,17.9305912 10.3252652,18.7893926 C9.40631989,19.3867456 8.84967864,18.6939071 8.41800937,19.1162032 C7.17516876,20.3330754 9.71874984,27.3092028 12.2273617,36.5292401 C14.0778642,43.329174 14.2808004,45.4156465 13.3807728,46.592733 C12.284115,48.0272894 9.97327993,47.5555454 7.84130381,47.1207452 C5.53849444,46.6507064 3.55556748,46.2636489 2.08915315,44.4818207 C-1.29655563,40.3668491 0.464517409,31.7748564 0.93574203,29.4741098 C1.70793128,25.708115 2.63719541,24.798729 2.90605714,20.8230071 C3.13020413,17.4969278 2.52884814,16.9194676 3.03905485,14.1390199 C3.17377235,13.4063958 3.85767864,9.91094338 6.23271952,6.47460101 C7.59422618,4.50578031 9.02395149,3.25992148 10.0254471,2.51934025 C11.3777815,1.70202958 14.4562198,0.128791793 18.4587627,0.584053162 C23.3859836,1.14503065 26.5389464,4.41825191 27.5152184,5.46120398 C28.7855757,6.81846259 30.5776051,8.78444146 31.3194113,12.0803974 C31.4403704,12.6186402 32.2893773,16.7824914 30.7300939,18.7893926 C29.960771,19.7789183 28.7357016,19.5669177 27.1861637,19.4543811 C19.2997439,18.881468 16.1238504,21.834699 14.0841701,19.055388" id="Fill-44" fill="#A84637" mask="url(#mask-8)"></path>
                </g>
                <path d="M22.6459553,18.7331041 C23.1954826,15.7399807 23.2880933,15.1590056 25.0203595,12.7914871 C25.1012544,12.6807556 26.6505309,12.7262848 26.7476047,12.7914871 C28.7337135,14.1354417 27.0796643,14.3535322 28.231161,16.7261094 C28.7784568,17.8536598 30.9340543,18.637549 31.3870656,19.8303016 C32.0771826,19.7274393 32.8593525,19.5857929 33.7491961,19.4503295 C31.7720137,16.361651 32.0085615,11.5647843 29.7100311,8.66271931 C26.9132998,5.13223891 21.4855322,6.27946236 19.8341608,10.7570626 C18.3585266,14.755763 18.9253487,19.8466022 19.8899504,23.923433 C20.3931723,26.0498153 21.1792474,27.8923427 22.0010278,29.8399808 C23.2730301,32.857274 24.4412638,36.0229587 25.0225911,39.3775053 C25.4811814,42.0210094 25.4449182,44.5363572 25.0203595,46.9196141 C25.7233082,46.8279937 26.3280671,46.564374 26.7476047,46.0062197 C27.6240589,44.8421336 27.4260059,42.7787052 25.6256764,36.0538736 C23.1843247,26.9356674 20.7089413,20.0365882 21.9184593,18.8331559 C22.1226491,18.6296797 22.3569653,18.688137 22.6459553,18.7331041 Z" id="Fill-47" fill="#993D33"></path>
                <polygon id="Fill-51" fill="#C6785D" points="51.8585209 69.2233595 33.2458582 64.2383098 11.9513176 72.437299 11.5241158 68.3378044 32.9989175 60.0900322 51.8585209 66.2636656"></polygon>
                <path d="M47.0425985,37.8649518 C46.737021,37.8903945 46.4303012,37.9113141 46.1218679,37.9237528 C45.9585125,37.9452378 45.7928724,37.9571111 45.6289458,37.9752038 C45.5129977,38.0328741 45.4124713,38.1024176 45.3496422,38.2007963 C45.2091337,38.4207349 45.2571122,38.678555 45.2685357,38.7384869 C45.6352287,40.6059862 33.540073,60.0877979 33.2053657,62.0683762 C32.8706585,64.0489545 26.1182534,72.1550211 26.1182534,72.1550211 C26.1182534,72.1550211 11.8994772,86.8049681 12.358129,88.6583325 C12.3712659,88.7109143 12.3872588,88.763496 12.4015381,88.8160777 C12.4392355,88.8149469 12.4712212,88.8030736 12.5123456,88.8087276 C12.7213949,88.8386935 12.9287306,88.8692248 13.1366375,88.9003215 C13.2331657,88.8471744 13.3434021,88.8087276 13.4839106,88.8087276 C14.6913699,88.809293 15.8959734,88.8245586 17.0971498,88.8912752 L29.0272366,74.447132 L36.6221215,63.3891387 C40.6031961,54.9817167 44.5848418,46.5742947 48.5659164,38.1668726 C48.0432933,38.0328741 47.5172431,37.9214913 47.0425985,37.8649518" id="Fill-53" fill="#C6785D"></path>
                <path d="M46.096463,38.210821 C44.6908067,37.8475588 43.2594476,37.647394 42.88076,38.2450372 C42.7396804,38.4668724 42.7876589,38.7269156 42.7996535,38.7873643 C43.1657753,40.670967 31.0711908,60.3213408 30.7359124,62.3184273 C30.4012051,64.3160842 23.6488,72.4920494 23.6488,72.4920494 C23.6488,72.4920494 9.4300238,87.2683229 9.88867558,89.1376689 C10.3478985,91.0075852 11.6438897,93.0160772 11.6438897,93.0160772 L26.5577832,74.8039251 L34.1526682,63.6505787 C38.1343139,55.1706595 42.1153885,46.6907402 46.096463,38.210821" id="Fill-55" fill="#A84637"></path>
                <g id="Group-59" transform="translate(0.000000, 85.607717)" fill="#A84637">
                    <path d="M6.17481118,0.917859807 C6.17481118,0.917859807 0.748472323,2.73954469 0.519383032,8.79541608 C0.289723868,14.8512875 -1.52532436,43.1646508 3.34709711,44.6535768 C8.2189487,46.1430688 12.6713731,41.5574482 12.6713731,41.5574482 C12.6713731,41.5574482 15.4922487,2.52449646 14.2459346,0.917859807 C13.0001904,-0.688776849 6.17481118,0.917859807 6.17481118,0.917859807" id="Fill-57"></path>
                </g>
                <g id="Group-62" transform="translate(0.000000, 86.430868)">
                    <mask id="mask-10" fill="white">
                        <use xlink:href="#path-9"></use>
                    </mask>
                    <g id="Clip-61"></g>
                    <path d="M4.85269539,0.317044139 C4.85269539,0.317044139 3.8116836,18.8542204 3.5910791,22.3715077 C3.3704746,25.8893563 -5.48767417e-05,24.3538053 -5.48767417e-05,24.3538053 L0.854924759,5.34406548 C0.854924759,5.34406548 3.75900193,0.846292897 4.85269539,0.317044139" id="Fill-60" fill="#B24D42" mask="url(#mask-10)"></path>
                </g>
                <path d="M32.6774534,101.247588 L32.3519794,101.247588 C31.762274,101.247588 31.2797428,100.765057 31.2797428,100.175846 L31.2797428,99.8498778 C31.2797428,99.2606662 31.762274,98.778135 32.3519794,98.778135 L32.6774534,98.778135 C33.2671588,98.778135 33.7491961,99.2606662 33.7491961,99.8498778 L33.7491961,100.175846 C33.7491961,100.765057 33.2671588,101.247588 32.6774534,101.247588" id="Fill-63" fill="#56373F"></path>
                <path d="M32.6774534,111.948553 L32.3519794,111.948553 C31.762274,111.948553 31.2797428,111.466022 31.2797428,110.87681 L31.2797428,110.550842 C31.2797428,109.961631 31.762274,109.4791 32.3519794,109.4791 L32.6774534,109.4791 C33.2671588,109.4791 33.7491961,109.961631 33.7491961,110.550842 L33.7491961,110.87681 C33.7491961,111.466022 33.2671588,111.948553 32.6774534,111.948553" id="Fill-65" fill="#56373F"></path>
                <path d="M32.6774534,122.649518 L32.3519794,122.649518 C31.762274,122.649518 31.2797428,122.166986 31.2797428,121.577775 L31.2797428,121.251807 C31.2797428,120.662595 31.762274,120.180064 32.3519794,120.180064 L32.6774534,120.180064 C33.2671588,120.180064 33.7491961,120.662595 33.7491961,121.251807 L33.7491961,121.577775 C33.7491961,122.166986 33.2671588,122.649518 32.6774534,122.649518" id="Fill-67" fill="#56373F"></path>
                <path d="M32.6774534,133.350482 L32.3519794,133.350482 C31.762274,133.350482 31.2797428,132.867951 31.2797428,132.27874 L31.2797428,131.952772 C31.2797428,131.36356 31.762274,130.881029 32.3519794,130.881029 L32.6774534,130.881029 C33.2671588,130.881029 33.7491961,131.36356 33.7491961,131.952772 L33.7491961,132.27874 C33.7491961,132.867951 33.2671588,133.350482 32.6774534,133.350482" id="Fill-69" fill="#56373F"></path>
            </g>
        </g>
    </g>
</svg>