<?xml version="1.0" encoding="UTF-8"?>
<svg width="64px" height="256px" viewBox="0 0 64 256" version="1.1" xmlns="http://www.w3.org/2000/svg" xmlns:xlink="http://www.w3.org/1999/xlink">
    <!-- Generator: Sketch 46.2 (44496) - http://www.bohemiancoding.com/sketch -->
    <title>line1</title>
    <desc>Created with Sketch.</desc>
    <defs>
        <polygon id="path-1" points="35.7285892 255 0 255 0 0.153112583 61.9988829 0.153112583 61.9988829 255 35.7285892 255 35.7285892 243.395023 6.46527198 243.395023 6.46527198 255.000056 35.7285892 255.000056"></polygon>
    </defs>
    <g id="Page-1" stroke="none" stroke-width="1" fill="none" fill-rule="evenodd">
        <g id="line1">
            <polygon id="line-a" fill="#D8D8D8" points="0 0 64 0 64 64 64 128 64 192 64 256 0 256 0 192 0 128 0 64"></polygon>
            <g>
                <path d="M16.8463773,108.539608 C18.7206096,105.288947 22.8887293,105.177708 42.504481,104.182172 C47.9275858,103.906883 49.0068615,103.844521 50.265827,104.715896 C56.6584604,109.140188 51.3013176,126.313743 50.265827,129.525076 C47.419223,138.114101 46.4889305,145.074424 46.1187469,149.238034 C43.2653192,181.324963 58.9534851,212.834346 54.0398804,232.56472 C53.5747341,234.43163 52.2128451,239.899774 50.0622545,239.998653 C48.0987459,240.088544 46.4172821,235.655263 45.7121704,233.791723 C32.0375532,197.645121 25.199676,179.571539 22.6032728,163.909265 C19.396152,144.561487 16.1856194,114.017864 16.1708348,113.932468 C16.1708348,113.930221 16.165717,113.874039 16.1566188,113.79988 C16.1566188,113.799318 16.1566188,113.798756 16.1566188,113.798756 C15.7108063,111.105416 16.3038962,109.480086 16.8463773,108.539608" id="Fill-1" fill="#5B4956"></path>
                <path d="M43.3970011,233.085357 C34.7236698,233.335922 28.1416683,235.927474 27.135983,239.933201 C26.9822585,240.544468 26.9400265,241.26312 27.1083915,242.10788 C35.7389276,242.405254 44.3694638,242.702627 53,243 C52.9808548,239.666667 52.9617096,236.333333 52.9431275,233 C49.7610854,233.028636 46.5790433,233.056721 43.3970011,233.085357" id="Fill-3" fill="#462F35"></path>
                <path d="M53,243 C52.9819759,239.666863 52.9639519,236.333137 52.9464911,233 C49.7635561,233.030049 46.5806212,233.060688 43.3976862,233.091327 C43.3864212,233.091327 43.3751562,233.091916 43.3638911,233.092505 C43.6691735,234.366957 43.8668749,235.634928 43.9553054,236.809215 C43.9676969,236.980085 43.9248898,237.107353 43.741833,237.112656 C42.110093,237.162739 40.6788706,236.847514 39.2245549,236.065638 C38.8415438,235.860005 38.1042474,235.460523 38.219714,235.371553 C38.1250878,235.444615 38.6511648,237.856823 38.7069267,238.132571 C38.7508603,238.349399 38.5925866,238.491987 38.398828,238.414801 C36.5147514,237.664153 34.8818849,236.497525 33.263663,235.269621 C33.527828,236.228258 33.7277823,237.199859 34.0465827,238.149069 C34.1536005,238.46724 33.9592787,238.664035 33.6697674,238.493165 C32.5297461,237.821471 31.4415439,237.107942 30.418679,236.297195 C28.6647134,237.424935 27.5083578,238.815461 27.1321057,240.4181 C27.0228349,240.884751 26.973832,241.41268 27.0138229,242.003064 L53,243 Z" id="Fill-5" fill="#2D1E22"></path>
                <path d="M10.6916701,104.073446 C16.2013387,93.6192353 37.8248934,91.5734926 44.0745336,101.232853 C47.0216045,105.787674 46.0080439,112.106646 44.8239778,119.485791 C43.6833739,126.595126 41.8902799,128.67789 39.5784256,138.154385 C39.5784256,138.154385 38.1447305,144.031337 36.9556495,153.088811 C35.4673481,164.428743 36.7818008,202.932683 36.7868156,203.089184 L36.7868156,203.089184 C39.9567696,225.90143 36.6681304,238.525351 34.7998134,244.144272 C33.7806807,247.209801 31.4593539,254.190119 28.9580491,253.996034 C26.8607197,253.832801 25.5980874,248.729944 25.0765411,246.536674 C15.1248136,204.690664 10.1489499,183.768219 9.44965437,166.092487 C8.58598261,144.257396 9.23290062,110.04127 9.22900017,109.944228 C9.22900017,109.941984 9.231229,109.879159 9.231229,109.79614 L9.231229,109.795018 C9.24738802,109.012509 9.38278946,106.55672 10.6916701,104.073446" id="Fill-7" fill="#6D5866"></path>
                <g id="Group-11" transform="translate(1.000000, 1.000000)">
                    <path d="M23.8869047,244.221741 C14.3427449,244.851937 7.19723514,248.024214 6.25202998,252.559003 C6.10783685,253.250908 6.09029244,254.059131 6.31014584,255.000056 C15.8290855,254.986404 25.3485734,254.972751 34.8680614,254.958553 C34.7118064,251.219973 34.5550033,247.480848 34.3987483,243.741722 C30.8948005,243.901728 27.3908526,244.061735 23.8869047,244.221741" id="Fill-9" fill="#462F35"></path>
                    <mask id="mask-2" fill="white">
                        <use xlink:href="#path-1"></use>
                    </mask>
                    <g id="Clip-10"></g>
                </g>
                <path d="M36,255 C35.8525852,251.333524 35.7046162,247.666476 35.5572013,244 C32.0148121,244.167882 28.472977,244.335764 24.931142,244.503646 C24.9183956,244.504219 24.9062034,244.505365 24.893457,244.506511 C25.2824991,245.895406 25.5507276,247.282582 25.694263,248.570632 C25.7147681,248.757996 25.6720954,248.899521 25.4681531,248.913845 C23.6542858,249.037608 22.0487943,248.750547 20.3995217,247.952391 C19.9650359,247.741536 19.1293157,247.333576 19.2540087,247.230441 C19.1520376,247.315241 19.8303674,249.946922 19.9029665,250.248307 C19.959494,250.484373 19.7893573,250.648818 19.5704518,250.571466 C17.4445749,249.825451 15.5819388,248.610741 13.7337116,247.327847 C14.0645636,248.371237 14.3244793,249.431816 14.715184,250.4626 C14.8465272,250.808678 14.6381514,251.033285 14.3095161,250.857381 C13.0143716,250.166371 11.7757546,249.427805 10.6058572,248.578081 C8.69722323,249.893062 7.46303974,251.472185 7.1055865,253.251276 C7.00139858,253.768674 6.96759293,254.351964 7.03465005,255 L36,255 Z" id="Fill-12" fill="#2D1E22"></path>
                <path d="M38.7194338,117 C39.5577093,122.559291 38.3687267,125.987083 37.1118836,128.09851 C35.9263225,130.090621 35.1878417,130.057169 32.9330516,133.172178 C29.400319,138.05182 30.0190461,139.783 27.7893473,141.099366 C24.9215325,142.792633 20.4832342,141.945164 17.8235627,139.830949 C15.0515509,137.628085 15.5756157,135.134182 13.3225364,131.269274 C11.8923356,128.815514 9.2640282,125.6743 4,123.024842" id="Stroke-14" stroke="#2D1E22" stroke-width="6.027"></path>
                <path d="M1.93139427,125.871475 C4.00062048,124.296498 7.71211551,124.981573 8.76650519,126.923389 C9.30182739,127.90992 8.78492721,128.544077 8.52214252,131.657001 C8.14232384,136.165533 8.99298766,137.602223 8.03395902,138.495018 C6.84302966,139.603636 4.05534471,138.762336 2.41957778,137.179837 C-0.50410502,134.352168 -0.911556737,128.035478 1.93139427,125.871475" id="Fill-16" fill="#F6C5A2"></path>
                <path d="M52.8724873,78.0979486 C55.2792472,111.238859 53.7592479,117.439014 49.0170312,121.220912 C44.6052983,124.739858 38.6441395,125.176426 29.1031164,125.874259 C23.4260379,126.289476 18.7817214,125.764134 14.9862503,122.967181 C12.4233029,121.077637 7.02690931,115.904567 5.33317964,78.0979486 C4.06443861,49.774449 6.66756472,45.0227761 8.96227698,42.5151828 C14.7893182,36.1487163 24.1385022,34.1411808 29.2842035,33.1702821 C35.4751164,32.0016076 38.6503644,31.4021001 41.8499459,32.8522678 C47.4370468,35.384583 50.2897335,42.5331624 52.8724873,78.0979486" id="Fill-18" fill="#B24D42"></path>
                <path d="M45.8641884,38.6578856 C45.4937583,37.7942123 44.926888,36.7104435 44.055816,35.5898001 C42.8401318,34.0266609 41.5183698,33.0166414 40.5642317,32.4041767 C40.3896805,32.3586595 40.1522685,32.3021952 39.8693946,32.2468833 C39.3109432,32.138564 38.8832648,32.09708 38.5689604,32.0676955 C38.5689604,32.0676955 37.9179015,32.0066219 37.1338244,32.0002841 C36.8139075,31.9979794 36.5933332,32.0100789 36.4215884,32.0227546 C36.1678999,32.0417681 36.0376881,32.0630862 34.8472605,32.2693537 C34.4712178,32.3344605 34.1462496,32.3909248 33.6837732,32.4681311 C33.5608577,32.4888731 33.4587088,32.5061581 33.3902354,32.5171052 C33.2005303,32.5424566 33.0063351,32.571841 32.8070886,32.6058349 C32.5264597,32.6530805 32.257056,32.7060878 32,32.7625521 C32.6499364,32.9446206 33.3666626,33.1808488 34.127728,33.4896739 C34.8713945,33.7921613 35.5359237,34.1148144 36.1185092,34.4311297 C41.856247,36.8435379 43.2863316,42.8748467 43.365469,43.2372553 C45.6071324,45.3114539 46.3541664,45.0452651 46.5736182,44.9087137 C47.7522594,44.1764064 46.1431335,39.4610614 45.8641884,38.6578856" id="Fill-20" fill="#634D5D"></path>
                <path d="M28.9819683,49.8960206 C28.9022537,49.509945 27.410216,42.8534493 21.2837353,40.6002868 C16.0236701,38.6658813 11.5662487,41.5277889 11,41.9058092 C11.4354067,41.4253724 12.0802705,40.7763511 12.9384396,40.1192746 C13.9439433,39.3482742 17.9467165,36.2418328 22.6949589,37.1722117 C27.9907583,38.2090347 30.5586685,43.2769242 31.4063922,45.2044253 C32.0039769,45.7855525 32.1623066,46.9040785 31.8269555,47.909256 C31.3761556,49.2590821 30.0523432,50.3482641 28.9819683,49.8960206" id="Fill-22" fill="#634D5D"></path>
                <path d="M49.5716665,105.540595 C47.9129697,105.693917 46.2548335,105.846678 44.5961367,106 C42.7333961,105.671453 40.0393451,104.942471 37.4456344,103.120578 C33.0289828,100.018754 31.6673827,95.6897919 29.1022606,85.3852001 C29.1022606,85.3852001 24.4148585,66.5518567 25.0611841,49.0540442 C25.1009839,47.9852826 25.4193819,46.0505039 26.7933143,44.2100773 C28.0411206,42.5386981 29.6415192,41.7260349 30.925762,41.0739948 C33.5480613,39.7423954 35.9281987,39.4424906 37.5717603,39.2358147 C39.1979447,39.0308236 40.6800651,39.0156599 41.6072312,39.0055508 C43.5826443,38.9853325 44.177959,39.0212761 44.6202407,39.098218 C44.6202407,39.098218 46.2907093,39.3863287 47.962299,40.3579302 C54.9777063,44.4341634 58.3147195,61.4253953 58.3147195,61.4253953 C60.2284711,71.1683678 58.8982624,69.4133073 60.1668095,77.0827812 C61.3568782,84.2776867 62.8535732,88.4791611 61.4006019,94.5744159 C61.2733548,95.1079543 61.0721138,95.610042 60.7817437,96.1974958 C58.1611261,101.494128 52.9126036,104.208996 49.5716665,105.540595" id="Fill-24" fill="#755961"></path>
                <path d="M31.947255,90.2497943 C30.6997242,91.0884354 27.6261218,92.9071889 23.329807,92.9965987 C18.6446729,93.0939309 15.2831787,91.0765518 14.052745,90.2497943 C12.926548,90.2497943 12,89.2906197 12,88.1248971 C12,86.9563452 12.9237904,86 14.052745,86 C15.1072449,86.8041222 18.2652294,88.9957937 22.8323389,89.0478551 C27.6035097,89.1027459 30.9126097,86.7894092 31.947255,86 C33.073452,86 34,86.9591746 34,88.1248971 C34,89.2934491 33.0762096,90.2497943 31.947255,90.2497943" id="Fill-26" fill="#634D5D"></path>
                <path d="M21.5991301,89.3324033 C21.5991301,89.3324033 18.3497734,127.020516 9.14259851,133.972429 C7.70609475,135.057641 6.32140306,134.999454 6.32083369,134.999454 C6.32083369,134.999454 4.21703608,134.911892 2.21686259,132.175416 C-1.64228227,126.895103 4.73060183,99.7467144 6.76892266,82.8923085 C9.5405835,59.9734801 5.81865521,45.4668841 13.1725524,41.7338889 C15.2205524,40.694435 17.8817567,40.744148 19.9138146,41.9790644 C25.6547053,45.4685789 24.4994671,55.6879924 21.5991301,89.3324033" id="Fill-28" fill="#A84637"></path>
                <path d="M59.1874695,68.7739331 C50.1640682,64.2040262 36.2335361,72.2785253 37.9587952,83.6522275 C38.0247002,84.0110941 38.1023341,84.3671395 38.1620954,84.7271346 C38.2821766,85.4488177 37.2857822,84.8563492 37.1869247,84.4382357 C37.0768968,83.9693392 36.9931193,83.5072138 36.9288898,83.0512952 C35.9347295,77.887227 34.2697901,72.8704295 33.0728881,67.7481163 C31.511833,61.0662002 31.0097262,55.6555523 30.7807342,52.1424963 C30.5104119,47.9873173 30.5601199,44.4990885 30.6673552,42 C29.9926666,42.2928487 29.0387195,42.7888295 28.0657828,43.6165926 C28.0652243,43.6165926 27.3330085,44.2389666 26.7862203,44.9200233 C25.382667,46.6686517 25.0927966,48.9110039 25.0609611,49.7867287 C24.416991,67.3666794 29.0873105,86.2884302 29.0873105,86.2884302 C31.642526,96.6413938 32.9991639,100.990677 37.3997197,104.107061 C39.9845365,105.937507 42.6687694,106.66991 44.5241631,107 C46.176815,106.845958 47.8294669,106.692481 49.4821189,106.538439 C52.8108804,105.200589 58.0402755,102.472976 60.6507842,97.151481 C61.0322513,96.3739366 61.2679455,95.520782 61.2679455,95.520782 C62.2743932,92.3445866 62.0319968,89.6209243 61.7711694,87.4925518 C61.2271738,83.0433956 60.6373798,81.4758933 60.0386495,77.9470381 C59.678406,75.8265652 59.2634278,72.6932532 59.1874695,68.7739331" id="Fill-30" fill="#634D5D"></path>
                <path d="M30.4161241,21.7269105 C30.3967887,21.5364013 30.0754799,20.89378 30.3473128,20.2883719 C30.5219,19.8995776 30.8437775,19.7012926 30.9745757,19.6124253 C32.3940211,18.6493265 32.8103007,15.9716451 32.8683069,15.6006243 C32.9530414,15.0540907 33.1833601,13.6000003 32.7147612,12.1742363 C32.6146721,11.8704214 32.34682,11.1572617 32.392315,10.1974954 C32.4150626,9.71761223 32.5242507,9.38158293 32.5350557,9.25328084 C32.6783651,7.5414754 31.8179401,6.07072238 31.0831951,5.10762353 C30.5543153,4.2239498 29.1706972,2.83206646 26.2305801,1.34465083 C20.7870981,-1.4080123 15.4351749,0.835330392 14.1408409,1.34465083 C12.6787439,1.92006629 10.2680753,2.90482652 8.57111016,5.33423503 C8.10706071,5.99851773 7.16474462,7.38206976 7.0134736,9.28716148 C6.96001692,9.95699839 7.07147978,9.85035769 7.24436095,12.0187186 C7.45534421,14.6636302 7.35696118,15.1685073 7.70442958,16.2232505 C8.05132928,17.2752166 8.67688613,18.0033726 9.10510823,18.4254921 C9.20462864,21.5052978 9.23192567,23.8402848 9.97918176,26.5790625 L9.97918176,26.5790625 L12.4074797,26.0930697 L17.7656585,25.0194422 C18.7585878,27.0889383 19.7515171,29.157879 20.7450152,31.2273752 C20.4714762,33.0080527 21.015142,33.9533781 21.290387,34.3355073 C23.0902847,36.8332325 28.6622901,36.3772324 30.7704167,33.9183866 C30.8130683,33.8689542 30.883017,33.8011929 30.9523969,33.6895535 C31.30214,33.1269127 31.3561654,31.9683059 30.8636816,27.1500346 C30.6788579,25.3454739 30.5981042,23.5314711 30.4161241,21.7269105" id="Fill-32" fill="#F6C5A2"></path>
                <path d="M32.7202509,12.1745686 C32.6220881,11.8701961 32.3593912,11.1570313 32.4040106,10.1978135 C32.4263204,9.71792692 32.533407,9.3813398 32.5440041,9.25303678 C32.6845554,7.54177452 31.8406902,6.07101098 31.1200863,5.10734983 C30.6013854,4.2242252 29.2443967,2.83177648 26.3608655,1.34490564 C21.0221498,-1.4083326 15.7732307,0.83558156 14.5038077,1.34490564 C13.0698505,1.92032521 10.705578,2.90453707 9.04127298,5.33396294 C9.02900263,5.35229194 9.01282809,5.37673061 9,5.39561504 C10.1411421,6.4370356 12.3118778,6.52701433 13.8746736,5.90716082 C15.768211,5.15622717 17.4838284,3.91207674 19.5920968,3.92873947 C21.245247,3.94206965 22.7160152,4.45417086 23.9001035,5.62833782 C25.1550252,6.87248825 26.0446253,8.42323288 27.3430509,9.63683497 C27.4289433,9.71681607 27.4412137,9.87955539 27.3765155,9.97453294 C26.2409508,11.6458047 27.8584054,12.2656582 28.7708729,13.4281612 C29.378255,14.2018673 29.5589637,14.992236 29.5545018,15.9575635 C29.5472511,17.3427917 29.3275004,18.7213548 29.2271067,20.1010287 C29.1791408,20.7580957 29.1339636,21.397389 29.3459059,22.0327944 C29.4541081,22.3577176 29.6225464,22.6065477 29.6643772,22.9536879 C29.9800597,25.5586279 27.2253671,28.0335985 25.5315017,29.603783 C24.1042375,30.9273591 22.4477408,32.1198551 21.1303519,33.5706234 C21.2552864,33.9277612 21.4064347,34.1810347 21.5157523,34.3354426 C23.2810088,36.8331857 28.7457745,36.3771823 30.8133277,33.9188744 C30.8551584,33.8694416 30.9237608,33.8011244 30.9918054,33.6900396 C31.3348174,33.1268393 31.3878029,31.9682243 30.9047975,27.1499185 C30.7235311,25.3459004 30.6443316,23.5313292 30.4658538,21.7273111 C30.4468906,21.5362451 30.1317658,20.8936192 30.3983669,20.2887621 C30.569594,19.8999651 30.8852765,19.7011232 31.0135574,19.6128108 C32.4056839,18.649705 32.8139517,15.9720045 32.8708415,15.6004256 C32.9539452,15.0544436 33.1798311,13.5997873 32.7202509,12.1745686" id="Fill-34" fill="#EFB68F"></path>
                <path d="M10,22 C10.0833333,23.7031894 10.2410714,25.2702322 10.6626984,27 L10.6626984,27 L12.780754,26.5248427 L13,26.4760252 C11.7713294,25.2224995 10.766369,23.676611 10,22" id="Fill-36" fill="#EFB68F"></path>
                <path d="M32.7223919,12.9139198 C32.6249804,12.6062175 32.364294,11.8852507 32.408572,10.9155392 C32.4307109,10.4304027 32.536978,10.0901333 32.547494,9.96042665 C32.6869696,8.23044329 31.8495628,6.74358969 31.1344739,5.76938614 C30.6197428,4.87660018 29.2731396,3.46891816 26.4116771,1.96578104 C25.562094,1.51938806 24.7163851,1.21449323 23.8872805,1 C27.2335866,6.8502748 30.2693935,14.8241449 29.158017,21.5430611 C29.0916,21.9462186 28.9897607,22.3420765 28.8735311,22.7328809 C28.7755662,24.0546533 28.5010429,25.3607037 27.958638,26.6347486 C27.8534779,26.8818089 27.6265534,26.7970223 27.4306234,26.6173421 C26.9950391,27.6392732 26.3762548,28.5814712 25.5128347,29.4321446 C25.3589689,29.5837498 25.1148867,29.4720112 24.9311332,29.282224 C24.8813205,29.3254595 24.8348286,29.3703796 24.7844625,29.4130536 C24.816564,29.5304072 24.8043875,29.6387768 24.7141712,29.7044724 C23.9448418,30.267096 23.1605686,30.7803076 22.3519426,31.2603906 C21.9384972,31.5765154 21.5040198,31.8668112 21.0545987,32.13577 C21.0606869,32.149246 21.0667751,32.1621606 21.0728633,32.1756366 C20.8066421,33.975246 21.3357636,34.93092 21.6036452,35.3172325 C23.3553916,37.8423007 28.7783335,37.3813087 30.830063,34.896107 C30.8715736,34.8461335 30.939651,34.7776304 31.0071748,34.6647688 C31.3475616,34.0954071 31.4001416,32.9241169 30.9208328,28.0530991 C30.7409537,26.2293452 30.6623603,24.3949227 30.4852485,22.5711687 C30.4664304,22.3780125 30.1537174,21.7283563 30.4182781,21.1168822 C30.5881947,20.7238317 30.9014612,20.5228145 31.0287603,20.4335359 C32.4102324,19.4598939 32.8153756,16.7528995 32.87183,16.3772556 C32.9542977,15.8253005 33.1784548,14.3547304 32.7223919,12.9139198" id="Fill-38" fill="#EFB68F"></path>
                <path d="M27.8879868,27.2495119 C30.0533319,22.7725138 28.4890692,17.0392885 27.9175117,17.0001931 C27.3972049,16.9645473 27.7437047,21.8721697 24.854721,24.5990738 C23.3428232,26.0260559 20.9312516,26.8700565 19.7157169,25.8179304 C18.9837222,25.1849299 19.2238209,24.6324199 18.3798544,23.7297761 C16.9459469,22.1975814 14.8301814,22.5517398 12.5233396,22.9380943 C11.0181267,23.1899147 10.4632814,23.5670703 10.180288,24.1259045 C10.1011835,24.282861 9.9641434,24.7054363 10.0087093,25.8880721 C10.0727728,27.5927465 10.6521293,28.9173906 11.0682633,29.5825873 C11.0682633,29.5825873 11.5479037,30.5616971 12.0732241,31.2596649 C14.0491642,33.884231 24.4987509,34.2567872 27.8879868,27.2495119" id="Fill-40" fill="#56373F"></path>
                <path d="M30.6192808,12.9714707 C30.5602923,12.6200224 30.3833267,12.3114901 30.0429682,12.1293865 C29.4322021,11.8040358 28.9477654,12.1264868 28.655955,12.7151338 C28.6397723,12.7487708 28.6209795,12.7812479 28.6032307,12.8148848 C28.3547481,12.9807499 28.2012736,13.2167887 28.2284187,13.5079225 C28.0326604,13.9028669 27.9084191,14.3117301 28.0843406,14.768149 C28.140719,14.9142959 28.3369994,14.857461 28.3709308,14.7252329 C28.4116485,14.5698069 28.4675049,14.4439582 28.5296256,14.3256489 C28.5426761,14.5692269 28.7144215,14.7414714 28.913312,14.7878673 C28.9769987,15.0384047 29.2155629,15.2060096 29.4489068,15.1555542 C29.4342902,15.2773432 29.4102772,15.3962325 29.3815659,15.5139619 C29.0657425,16.0567931 28.6846662,16.5410495 28.4356616,17.1627535 C28.2101479,17.724143 28.7869826,18.2890122 29.2213051,17.8337531 C29.6947793,17.3373178 30.0335718,16.7521505 30.2361164,16.1194274 C30.859411,15.0366649 31.3850875,13.7961565 30.6192808,12.9714707" id="Fill-42" fill="#F6C5A2"></path>
            </g>
        </g>
    </g>
</svg>