<?xml version="1.0" encoding="UTF-8"?>
<svg width="112px" height="455px" viewBox="0 0 112 455" version="1.1" xmlns="http://www.w3.org/2000/svg" xmlns:xlink="http://www.w3.org/1999/xlink">
    <!-- Generator: Sketch 46.2 (44496) - http://www.bohemiancoding.com/sketch -->
    <title>line1</title>
    <desc>Created with Sketch.</desc>
    <defs>
        <polygon id="path-1" points="63.9657 453 0 453 0 0.272 110.998 0.272 110.998 453 63.9657 453 63.9657 432.3841 11.5749224 432.3841 11.5749224 453.0001 63.9657 453.0001"></polygon>
    </defs>
    <g id="Page-1" stroke="none" stroke-width="1" fill="none" fill-rule="evenodd">
        <g id="line1">
            <path d="M29.4884278,192.080257 C32.7844278,186.294257 40.1144278,186.096257 74.6104278,184.324257 C84.1474278,183.834257 86.0454278,183.723257 88.2594278,185.274257 C99.5014278,193.149257 90.0804278,223.717257 88.2594278,229.433257 C83.2534278,244.721257 81.6174278,257.110257 80.9664278,264.521257 C75.9484278,321.634257 103.537428,377.719257 94.8964278,412.838257 C94.0784278,416.161257 91.6834278,425.894257 87.9014278,426.070257 C84.4484278,426.230257 81.4914278,418.339257 80.2514278,415.022257 C56.2034278,350.683257 44.1784278,318.513257 39.6124278,290.635257 C33.9724278,256.197257 28.3264278,201.831257 28.3004278,201.679257 C28.3004278,201.675257 28.2914278,201.575257 28.2754278,201.443257 C28.2754278,201.442257 28.2754278,201.441257 28.2754278,201.441257 C27.4914278,196.647257 28.5344278,193.754257 29.4884278,192.080257" id="Fill-1" fill="#5B4956"></path>
            <path d="M77.1194928,414.155 C61.7164928,414.61 50.0274928,419.316 48.2414928,426.59 C47.9684928,427.7 47.8934928,429.005 48.1924928,430.539 C63.5194928,431.079 78.8464928,431.619 94.1734928,432.159 C94.1394928,426.106 94.1054928,420.053 94.0724928,414 C88.4214928,414.052 82.7704928,414.103 77.1194928,414.155" id="Fill-3" fill="#462F35"></path>
            <path d="M94.1605412,430.972 C94.1285412,425.315 94.0965412,419.657 94.0655412,414 C88.4145412,414.051 82.7635412,414.103 77.1125412,414.155 C77.0925412,414.155 77.0725412,414.156 77.0525412,414.157 C77.5945412,416.32 77.9455412,418.472 78.1025412,420.465 C78.1245412,420.755 78.0485412,420.971 77.7235412,420.98 C74.8265412,421.065 72.2855412,420.53 69.7035412,419.203 C69.0235412,418.854 67.7145412,418.176 67.9195412,418.025 C67.7515412,418.149 68.6855412,422.243 68.7845412,422.711 C68.8625412,423.079 68.5815412,423.321 68.2375412,423.19 C64.8925412,421.916 61.9935412,419.936 59.1205412,417.852 C59.5895412,419.479 59.9445412,421.128 60.5105412,422.739 C60.7005412,423.279 60.3555412,423.613 59.8415412,423.323 C57.8175412,422.183 55.8855412,420.972 54.0695412,419.596 C50.9555412,421.51 48.9025412,423.87 48.2345412,426.59 C48.0405412,427.382 47.9535412,428.278 48.0245412,429.28 L94.1605412,430.972 Z" id="Fill-5" fill="#2D1E22"></path>
            <path d="M19.0359782,185.175474 C28.9239782,166.538474 67.7309782,162.891474 78.9469782,180.111474 C84.2359782,188.231474 82.4169782,199.496474 80.2919782,212.651474 C78.2449782,225.325474 75.0269782,229.038474 70.8779782,245.932474 C70.8779782,245.932474 68.3049782,256.409474 66.1709782,272.556474 C63.4999782,292.772474 65.8589782,361.414474 65.8679782,361.693474 L65.8679782,361.693474 C71.5569782,402.361474 65.6549782,424.866474 62.3019782,434.883474 C60.4729782,440.348474 56.3069782,452.792474 51.8179782,452.446474 C48.0539782,452.155474 45.7879782,443.058474 44.8519782,439.148474 C26.9919782,364.548474 18.0619782,327.249474 16.8069782,295.738474 C15.2569782,256.812474 16.4179782,195.814474 16.4109782,195.641474 C16.4109782,195.637474 16.4149782,195.525474 16.4149782,195.377474 L16.4149782,195.375474 C16.4439782,193.980474 16.6869782,189.602474 19.0359782,185.175474" id="Fill-7" fill="#6D5866"></path>
            <g id="Group-11" transform="translate(1.000000, 2.000000)">
                <path d="M42.7652648,433.85274 C25.6781401,434.972264 12.8853726,440.607721 11.1931505,448.663641 C10.9349982,449.892789 10.9035881,451.328574 11.2971966,453.0001 C28.3391692,452.975847 45.3821234,452.951594 62.4250776,452.92637 C62.1453309,446.284894 61.8646026,439.642447 61.5848559,433 C55.3116589,433.284247 49.0384618,433.568493 42.7652648,433.85274" id="Fill-9" fill="#462F35"></path>
                <mask id="mask-2" fill="white">
                    <use xlink:href="#path-1"></use>
                </mask>
                <g id="Clip-10"></g>
            </g>
            <path d="M63.2924407,453.198 C63.0317074,446.799 62.7699939,440.399 62.5092606,434 C56.2438195,434.293 49.9793586,434.586 43.7148978,434.879 C43.6923532,434.88 43.6707888,434.882 43.6482441,434.884 C44.3363448,437.308 44.8107618,439.729 45.0646338,441.977 C45.1009012,442.304 45.0254257,442.551 44.664712,442.576 C41.456516,442.792 38.6168754,442.291 35.699799,440.898 C34.9313218,440.53 33.4531796,439.818 33.6737247,439.638 C33.4933678,439.786 34.6931331,444.379 34.8215394,444.905 C34.9215198,445.317 34.6205983,445.604 34.2334191,445.469 C30.4733703,444.167 27.1789167,442.047 23.9099483,439.808 C24.495128,441.629 24.954842,443.48 25.6458833,445.279 C25.8781908,445.883 25.5096354,446.275 24.9283766,445.968 C22.6376482,444.762 20.4469003,443.473 18.3776972,441.99 C15.001887,444.285 12.8189806,447.041 12.1867514,450.146 C12.0024737,451.049 11.9426815,452.067 12.0612857,453.198 L63.2924407,453.198 Z" id="Fill-12" fill="#2D1E22"></path>
            <path d="M67.884,208 C69.354,217.971 67.269,224.119 65.065,227.906 C62.986,231.479 61.691,231.419 57.737,237.006 C51.542,245.758 52.627,248.863 48.717,251.224 C43.688,254.261 35.905,252.741 31.241,248.949 C26.38,244.998 27.299,240.525 23.348,233.593 C20.84,229.192 16.231,223.558 7,218.806" id="Stroke-14" stroke="#2D1E22" stroke-width="6.027"></path>
            <path d="M3.56461498,224.506152 C7.38361498,221.784152 14.233615,222.968152 16.179615,226.324152 C17.167615,228.029152 16.213615,229.125152 15.728615,234.505152 C15.027615,242.297152 16.597615,244.780152 14.827615,246.323152 C12.629615,248.239152 7.48461498,246.785152 4.46561498,244.050152 C-0.930385022,239.163152 -1.68238502,228.246152 3.56461498,224.506152" id="Fill-16" fill="#F6C5A2"></path>
            <path d="M93.5957638,139.044861 C97.8487638,198.028861 95.1627638,209.063861 86.7827638,215.794861 C78.9867638,222.057861 68.4527638,222.834861 51.5927638,224.076861 C41.5607638,224.815861 33.3537638,223.880861 26.6467638,218.902861 C22.1177638,215.539861 12.5817638,206.332861 9.58876378,139.044861 C7.34676378,88.6348612 11.9467638,80.1778612 16.0017638,75.7148612 C26.2987638,64.3838612 42.8197638,60.8108612 51.9127638,59.0828612 C62.8527638,57.0028612 68.4637638,55.9358612 74.1177638,58.5168612 C83.9907638,63.0238612 89.0317638,75.7468612 93.5957638,139.044861" id="Fill-18" fill="#B24D42"></path>
            <path d="M81.702,68.5554931 C81.042,67.0564931 80.032,65.1754931 78.48,63.2304931 C76.314,60.5174931 73.959,58.7644931 72.259,57.7014931 C71.948,57.6224931 71.525,57.5244931 71.021,57.4284931 C70.026,57.2404931 69.264,57.1684931 68.704,57.1174931 C68.704,57.1174931 67.544,57.0114931 66.147,57.0004931 C65.577,56.9964931 65.184,57.0174931 64.878,57.0394931 C64.426,57.0724931 64.194,57.1094931 62.073,57.4674931 C61.403,57.5804931 60.824,57.6784931 60,57.8124931 C59.781,57.8484931 59.599,57.8784931 59.477,57.8974931 C59.139,57.9414931 58.793,57.9924931 58.438,58.0514931 C57.938,58.1334931 57.458,58.2254931 57,58.3234931 C58.158,58.6394931 59.435,59.0494931 60.791,59.5854931 C62.116,60.1104931 63.3,60.6704931 64.338,61.2194931 C74.561,65.4064931 77.109,75.8744931 77.25,76.5034931 C81.244,80.1034931 82.575,79.6414931 82.966,79.4044931 C85.066,78.1334931 82.199,69.9494931 81.702,68.5554931" id="Fill-20" fill="#634D5D"></path>
            <path d="M51.709,87.4133043 C51.564,86.7423043 48.85,75.1733043 37.706,71.2573043 C28.138,67.8953043 20.03,72.8693043 19,73.5263043 C19.792,72.6913043 20.965,71.5633043 22.526,70.4213043 C24.355,69.0813043 31.636,63.6823043 40.273,65.2993043 C49.906,67.1013043 54.577,75.9093043 56.119,79.2593043 C57.206,80.2693043 57.494,82.2133043 56.884,83.9603043 C56.064,86.3063043 53.656,88.1993043 51.709,87.4133043" id="Fill-22" fill="#634D5D"></path>
            <path d="M88.8341482,188.479883 C85.8751482,188.752883 82.9171482,189.024883 79.9581482,189.297883 C76.6351482,188.712883 71.8291482,187.414883 67.2021482,184.170883 C59.3231482,178.647883 56.8941482,170.939883 52.3181482,152.591883 C52.3181482,152.591883 43.9561482,119.057883 45.1091482,87.9018835 C45.1801482,85.9988835 45.7481482,82.5538835 48.1991482,79.2768835 C50.4251482,76.3008835 53.2801482,74.8538835 55.5711482,73.6928835 C60.2491482,71.3218835 64.4951482,70.7878835 67.4271482,70.4198835 C70.3281482,70.0548835 72.9721482,70.0278835 74.6261482,70.0098835 C78.1501482,69.9738835 79.2121482,70.0378835 80.0011482,70.1748835 C80.0011482,70.1748835 82.9811482,70.6878835 85.9631482,72.4178835 C98.4781482,79.6758835 104.431148,109.929883 104.431148,109.929883 C107.845148,127.277883 105.472148,124.152883 107.735148,137.808883 C109.858148,150.619883 112.528148,158.100883 109.936148,168.953883 C109.709148,169.903883 109.350148,170.797883 108.832148,171.843883 C104.157148,181.274883 94.7941482,186.108883 88.8341482,188.479883" id="Fill-24" fill="#755961"></path>
            <path d="M57.168,159.51 C54.906,160.992 49.333,164.206 41.543,164.364 C33.048,164.536 26.953,160.971 24.722,159.51 C22.68,159.51 21,157.815 21,155.755 C21,153.69 22.675,152 24.722,152 C26.634,153.421 32.36,157.294 40.641,157.386 C49.292,157.483 55.292,153.395 57.168,152 C59.21,152 60.89,153.695 60.89,155.755 C60.89,157.82 59.215,159.51 57.168,159.51" id="Fill-26" fill="#634D5D"></path>
            <path d="M37.1792337,157.556101 C37.1792337,157.556101 31.4722337,224.270101 15.3012337,236.576101 C12.7782337,238.497101 10.3462337,238.394101 10.3452337,238.394101 C10.3452337,238.394101 6.65023375,238.239101 3.13723375,233.395101 C-3.64076625,224.048101 7.55223375,175.991101 11.1322337,146.156101 C16.0002337,105.586101 9.46323375,79.9071009 22.3792337,73.2991009 C25.9762337,71.4591009 30.6502337,71.5471009 34.2192337,73.7331009 C44.3022337,79.9101009 42.2732337,98.0001009 37.1792337,157.556101" id="Fill-28" fill="#A84637"></path>
            <path d="M106.211148,121.45 C90.0551482,113.351 65.1131482,127.661 68.2021482,147.818 C68.3201482,148.454 68.4591482,149.085 68.5661482,149.723 C68.7811482,151.002 66.9971482,149.952 66.8201482,149.211 C66.6231482,148.38 66.4731482,147.561 66.3581482,146.753 C64.5781482,137.601 61.5971482,128.71 59.4541482,119.632 C56.6591482,107.79 55.7601482,98.201 55.3501482,91.975 C54.8661482,84.611 54.9551482,78.429 55.1471482,74 C53.9391482,74.519 52.2311482,75.398 50.4891482,76.865 C50.4881482,76.865 49.1771482,77.968 48.1981482,79.175 C45.6851482,82.274 45.1661482,86.248 45.1091482,87.8 C43.9561482,118.956 52.3181482,152.49 52.3181482,152.49 C56.8931482,170.838 59.3221482,178.546 67.2011482,184.069 C71.8291482,187.313 76.6351482,188.611 79.9571482,189.196 C82.9161482,188.923 85.8751482,188.651 88.8341482,188.378 C94.7941482,186.007 104.157148,181.173 108.831148,171.742 C109.514148,170.364 109.936148,168.852 109.936148,168.852 C111.738148,163.223 111.304148,158.396 110.837148,154.624 C109.863148,146.739 108.807148,143.961 107.735148,137.707 C107.090148,133.949 106.347148,128.396 106.211148,121.45" id="Fill-30" fill="#634D5D"></path>
            <path d="M54.1756924,39.1179608 C54.1416924,38.7749608 53.5766924,37.6179608 54.0546924,36.5279608 C54.3616924,35.8279608 54.9276924,35.4709608 55.1576924,35.3109608 C57.6536924,33.5769608 58.3856924,28.7559608 58.4876924,28.0879608 C58.6366924,27.1039608 59.0416924,24.4859608 58.2176924,21.9189608 C58.0416924,21.3719608 57.5706924,20.0879608 57.6506924,18.3599608 C57.6906924,17.4959608 57.8826924,16.8909608 57.9016924,16.6599608 C58.1536924,13.5779608 56.6406924,10.9299608 55.3486924,9.19596079 C54.4186924,7.60496079 51.9856924,5.09896079 46.8156924,2.42096079 C37.2436924,-2.53503921 27.8326924,1.50396079 25.5566924,2.42096079 C22.9856924,3.45696079 18.7466924,5.22996079 15.7626924,9.60396079 C14.9466924,10.7999608 13.2896924,13.2909608 13.0236924,16.7209608 C12.9296924,17.9269608 13.1256924,17.7349608 13.4296924,21.6389608 C13.8006924,26.4009608 13.6276924,27.3099608 14.2386924,29.2089608 C14.8486924,31.1029608 15.9486924,32.4139608 16.7016924,33.1739608 C16.8766924,38.7189608 16.9246924,42.9229608 18.2386924,47.8539608 L18.2386924,47.8539608 L22.5086924,46.9789608 L31.9306924,45.0459608 C33.6766924,48.7719608 35.4226924,52.4969608 37.1696924,56.2229608 C36.6886924,59.4289608 37.6446924,61.1309608 38.1286924,61.8189608 C41.2936924,66.3159608 51.0916924,65.4949608 54.7986924,61.0679608 C54.8736924,60.9789608 54.9966924,60.8569608 55.1186924,60.6559608 C55.7336924,59.6429608 55.8286924,57.5569608 54.9626924,48.8819608 C54.6376924,45.6329608 54.4956924,42.3669608 54.1756924,39.1179608" id="Fill-32" fill="#F6C5A2"></path>
            <path d="M58.529,21.9194022 C58.353,21.3714022 57.882,20.0874022 57.962,18.3604022 C58.002,17.4964022 58.194,16.8904022 58.213,16.6594022 C58.465,13.5784022 56.952,10.9304022 55.66,9.19540225 C54.73,7.60540225 52.297,5.09840225 47.127,2.42140225 C37.555,-2.53559775 28.144,1.50440225 25.868,2.42140225 C23.297,3.45740225 19.058,5.22940225 16.074,9.60340225 C16.052,9.63640225 16.023,9.68040225 16,9.71440225 C18.046,11.5894022 21.938,11.7514022 24.74,10.6354022 C28.135,9.28340225 31.211,7.04340225 34.991,7.07340225 C37.955,7.09740225 40.592,8.01940225 42.715,10.1334022 C44.965,12.3734022 46.56,15.1654022 48.888,17.3504022 C49.042,17.4944022 49.064,17.7874022 48.948,17.9584022 C46.912,20.9674022 49.812,22.0834022 51.448,24.1764022 C52.537,25.5694022 52.861,26.9924022 52.853,28.7304022 C52.84,31.2244022 52.446,33.7064022 52.266,36.1904022 C52.18,37.3734022 52.099,38.5244022 52.479,39.6684022 C52.673,40.2534022 52.975,40.7014022 53.05,41.3264022 C53.616,46.0164022 48.677,50.4724022 45.64,53.2994022 C43.081,55.6824022 40.111,57.8294022 37.749,60.4414022 C37.973,61.0844022 38.244,61.5404022 38.44,61.8184022 C41.605,66.3154022 51.403,65.4944022 55.11,61.0684022 C55.185,60.9794022 55.308,60.8564022 55.43,60.6564022 C56.045,59.6424022 56.14,57.5564022 55.274,48.8814022 C54.949,45.6334022 54.807,42.3664022 54.487,39.1184022 C54.453,38.7744022 53.888,37.6174022 54.366,36.5284022 C54.673,35.8284022 55.239,35.4704022 55.469,35.3114022 C57.965,33.5774022 58.697,28.7564022 58.799,28.0874022 C58.948,27.1044022 59.353,24.4854022 58.529,21.9194022" id="Fill-34" fill="#EFB68F"></path>
            <path d="M17,39 C17.168,42.14 17.486,45.029 18.336,48.218 L18.336,48.218 L22.606,47.342 L23.048,47.252 C20.571,44.941 18.545,42.091 17,39" id="Fill-36" fill="#EFB68F"></path>
            <path d="M58.1796471,22.218 C58.0036471,21.67 57.5326471,20.386 57.6126471,18.659 C57.6526471,17.795 57.8446471,17.189 57.8636471,16.958 C58.1156471,13.877 56.6026471,11.229 55.3106471,9.494 C54.3806471,7.904 51.9476471,5.397 46.7776471,2.72 C45.2426471,1.925 43.7146471,1.382 42.2166471,1 C48.2626471,11.419 53.7476471,25.62 51.7396471,37.586 C51.6196471,38.304 51.4356471,39.009 51.2256471,39.705 C51.0486471,42.059 50.5526471,44.385 49.5726471,46.654 C49.3826471,47.094 48.9726471,46.943 48.6186471,46.623 C47.8316471,48.443 46.7136471,50.121 45.1536471,51.636 C44.8756471,51.906 44.4346471,51.707 44.1026471,51.369 C44.0126471,51.446 43.9286471,51.526 43.8376471,51.602 C43.8956471,51.811 43.8736471,52.004 43.7106471,52.121 C42.3206471,53.123 40.9036471,54.037 39.4426471,54.892 C38.6956471,55.455 37.9106471,55.972 37.0986471,56.451 C37.1096471,56.475 37.1206471,56.498 37.1316471,56.522 C36.6506471,59.727 37.6066471,61.429 38.0906471,62.117 C41.2556471,66.614 51.0536471,65.793 54.7606471,61.367 C54.8356471,61.278 54.9586471,61.156 55.0806471,60.955 C55.6956471,59.941 55.7906471,57.855 54.9246471,49.18 C54.5996471,45.932 54.4576471,42.665 54.1376471,39.417 C54.1036471,39.073 53.5386471,37.916 54.0166471,36.827 C54.3236471,36.127 54.8896471,35.769 55.1196471,35.61 C57.6156471,33.876 58.3476471,29.055 58.4496471,28.386 C58.5986471,27.403 59.0036471,24.784 58.1796471,22.218" id="Fill-38" fill="#EFB68F"></path>
            <path d="M50.110634,48.8273359 C53.997634,41.0403359 51.189634,31.0683359 50.163634,31.0003359 C49.229634,30.9383359 49.851634,39.4743359 44.665634,44.2173359 C41.951634,46.6993359 37.622634,48.1673359 35.440634,46.3373359 C34.126634,45.2363359 34.557634,44.2753359 33.042634,42.7053359 C30.468634,40.0403359 26.670634,40.6563359 22.529634,41.3283359 C19.827634,41.7663359 18.831634,42.4223359 18.323634,43.3943359 C18.181634,43.6673359 17.935634,44.4023359 18.015634,46.4593359 C18.130634,49.4243359 19.170634,51.7283359 19.917634,52.8853359 C19.917634,52.8853359 20.778634,54.5883359 21.721634,55.8023359 C25.268634,60.3673359 44.026634,61.0153359 50.110634,48.8273359" id="Fill-40" fill="#56373F"></path>
            <path d="M54.0175651,22.6751003 C53.9045651,22.0691003 53.5655651,21.5371003 52.9135651,21.2231003 C51.7435651,20.6621003 50.8155651,21.2181003 50.2565651,22.2331003 C50.2255651,22.2911003 50.1895651,22.3471003 50.1555651,22.4051003 C49.6795651,22.6911003 49.3855651,23.0981003 49.4375651,23.6001003 C49.0625651,24.2811003 48.8245651,24.9861003 49.1615651,25.7731003 C49.2695651,26.0251003 49.6455651,25.9271003 49.7105651,25.6991003 C49.7885651,25.4311003 49.8955651,25.2141003 50.0145651,25.0101003 C50.0395651,25.4301003 50.3685651,25.7271003 50.7495651,25.8071003 C50.8715651,26.2391003 51.3285651,26.5281003 51.7755651,26.4411003 C51.7475651,26.6511003 51.7015651,26.8561003 51.6465651,27.0591003 C51.0415651,27.9951003 50.3115651,28.8301003 49.8345651,29.9021003 C49.4025651,30.8701003 50.5075651,31.8441003 51.3395651,31.0591003 C52.2465651,30.2031003 52.8955651,29.1941003 53.2835651,28.1031003 C54.4775651,26.2361003 55.4845651,24.0971003 54.0175651,22.6751003" id="Fill-42" fill="#F6C5A2"></path>
        </g>
    </g>
</svg>