<?xml version="1.0" encoding="UTF-8"?>
<svg width="112px" height="457px" viewBox="0 0 112 457" version="1.1" xmlns="http://www.w3.org/2000/svg" xmlns:xlink="http://www.w3.org/1999/xlink">
    <!-- Generator: Sketch 46.2 (44496) - http://www.bohemiancoding.com/sketch -->
    <title>line2</title>
    <desc>Created with Sketch.</desc>
    <defs>
        <polygon id="path-1" points="37.5952137 93.2212389 0.682596214 93.2212389 0.682596214 0.467580998 37.5952137 0.467580998"></polygon>
        <polygon id="path-3" points="37.0349197 93.2212389 0.122302212 93.2212389 0.122302212 0.467580998 37.0349197 0.467580998"></polygon>
        <polygon id="path-5" points="109.046558 0.431631803 109.046558 99.3662412 0.908433172 99.3662412 0.908433172 0.431631803 109.046558 0.431631803"></polygon>
        <polygon id="path-7" points="0.101600597 0.896747788 55.9577743 0.896747788 55.9577743 84.7854827 0.101600597 84.7854827"></polygon>
        <polygon id="path-9" points="0 44.5711929 0 0.572398673 8.96028363 0.572398673 8.96028363 44.5711929 4.93193284e-16 44.5711929"></polygon>
    </defs>
    <g id="Page-1" stroke="none" stroke-width="1" fill="none" fill-rule="evenodd">
        <g id="line2" transform="translate(0.000000, -1.000000)">
            <path d="M43.1337712,48.209769 C43.1297181,49.7114416 43.1246518,51.2121009 43.1418774,52.745185 C43.2411783,61.8747867 43.7123509,70.4612735 44.4196164,78.4367558 L60.3037049,95.6928177 L60.3037049,48.209769 L43.1337712,48.209769 Z" id="Fill-1" fill="#F6C5A2"></path>
            <path d="M64.8980934,78.6024261 C69.2703721,82.2036031 74.2840535,82.450842 74.2840535,82.450842 C74.8464208,82.4782004 82.0913323,82.7548243 83.6700137,78.9520058 C85.0389473,75.6548111 80.6656553,72.8642535 79.4628987,65.3092801 C78.9724739,62.2319659 79.3798102,60.6938155 80.110381,54.8147978 C80.767996,49.5184128 82.0771465,39.1921341 81.4043323,31.0281827 C81.4043323,31.0281827 80.4174031,19.0391208 74.7886642,13.3708642 C74.4583367,13.0374969 73.6517704,12.2471429 72.6699075,12.3393509 C71.1155447,12.4862757 70.1448279,14.7610765 69.7526907,15.6365456 C66.3166774,23.3202049 49.9816819,66.3164748 64.8980934,78.6024261" id="Fill-3" fill="#A84637"></path>
            <path d="M105.043212,181.284304 C105.043212,181.284304 91.835181,282.885321 90.8188668,289.997494 C89.8035659,297.109666 83.7066942,426.14306 82.6913934,431.223618 C81.6750792,436.304175 68.4670482,439.352104 66.4344199,435.287861 C64.4028049,431.223618 62.3701765,313.365627 62.3701765,313.365627 L57.2906323,181.284304 C57.2906323,181.284304 90.8188668,120.323693 105.043212,181.284304" id="Fill-5" fill="#F6C5A2"></path>
            <path d="M74.5370681,260.730686 C81.6614,251.555487 86.6760947,243.376336 90.1110947,237.147739 C96.7956655,225.028978 98.504046,218.479173 98.9367142,216.739381 C100.167842,211.793588 100.04017,209.752854 101.013927,201.773319 C101.697887,196.164845 102.885444,187.952257 105.043719,177.859031 C105.274745,166.304664 97.9406655,156.091872 88.502015,154.382478 C73.7538071,151.710473 57.2911389,177.859031 57.2911389,177.859031 L61.6330195,276.488115 C65.934369,271.235301 70.2357186,265.9835 74.5370681,260.730686" id="Fill-7" fill="#F4BE9A"></path>
            <g id="Group-11" transform="translate(62.823009, 363.882013)">
                <mask id="mask-2" fill="white">
                    <use xlink:href="#path-1"></use>
                </mask>
                <g id="Clip-10"></g>
                <path d="M19.8679792,67.3416044 L37.5952137,93.2216442 L9.96626239,93.2216442 L6.01854558,80.2811177 L2.07184204,93.2216442 L2.07184204,60.6580469 C1.72124912,49.0631487 1.6351208,40.0875646 1.6229615,33.9450956 C1.60674912,25.1498743 1.7496208,25.9290823 1.6229615,22.4880027 C1.18928009,10.6590381 -0.256662389,8.15929027 1.6229615,5.30286991 C4.95967389,0.231431858 15.7449659,-1.36346195 21.1001208,3.01185664 C25.3356075,6.47117522 24.9242181,12.6268168 23.3911341,29.935569 C22.0505721,45.0708478 20.8194438,57.8168257 19.8679792,67.3416044" id="Fill-9" fill="#E5B958" mask="url(#mask-2)"></path>
            </g>
            <path d="M85.4648265,320.323477 C83.5294726,323.165712 80.1076451,324.56707 76.8621274,323.865885 C72.3854814,322.898208 70.8544239,318.495531 70.7895743,318.298955" id="Fill-12" fill="#F4BE9A"></path>
            <path d="M64.4460717,386.370523 C64.011377,374.540545 62.5664478,372.04181 64.4460717,369.18539 C65.8575628,367.039275 68.6065761,365.525443 71.7102354,364.813111 C72.4529655,366.044239 73.2190009,367.266248 74.0417796,368.487244 C75.4887354,370.634372 75.5708106,369.574487 74.6335319,371.802677 C73.950585,373.427969 72.7194566,374.943828 71.9098504,376.530615 C69.7019257,380.856284 67.5274389,386.339111 70.0596115,390.962682 C70.7658637,392.251567 72.0192841,393.178713 72.724523,394.449359 C74.2272088,397.154801 73.1288195,397.940089 71.9169434,400.546231 C70.7607973,403.034832 70.1163549,405.700757 69.8387177,408.423425 C69.0301248,416.333045 70.9442,424.243677 70.1974168,432.189775 C70.1437133,432.764301 70.4020982,433.547562 71.099231,433.615452 C72.181408,433.721846 73.1511115,433.81 74.1623593,433.749204 C76.4989699,444.271045 83.8593947,451.263651 92.4661469,457.103151 L72.7893726,457.103151 L68.8416558,444.163638 L64.8949522,457.103151 L64.8949522,424.539554 C64.5443593,412.945669 64.458231,403.970085 64.4460717,397.827615 C64.428846,389.031381 64.572731,389.810589 64.4460717,386.370523" id="Fill-14" fill="#E0B04F"></path>
            <path d="M10.6963265,181.284304 C10.6963265,181.284304 23.9043575,282.885321 24.9206717,289.997494 C25.9359726,297.109666 32.0328442,426.14306 33.0481451,431.223618 C34.0644593,436.304175 47.2724903,439.352104 49.3051186,435.287861 C51.3367336,431.223618 53.3693619,313.365627 53.3693619,313.365627 L58.4489062,181.284304 C58.4489062,181.284304 24.9206717,120.323693 10.6963265,181.284304" id="Fill-16" fill="#F6C5A2"></path>
            <path d="M41.2024704,260.730686 C34.0781385,251.555487 29.0634438,243.376336 25.6284438,237.147739 C18.943873,225.028978 17.2354925,218.479173 16.8028243,216.739381 C15.571696,211.793588 15.6993686,209.752854 14.7256119,201.773319 C14.0416518,196.164845 12.8540942,187.952257 10.6958199,177.859031 C10.4647934,166.304664 17.798873,156.091872 27.2375235,154.382478 C41.9857314,151.710473 58.4483996,177.859031 58.4483996,177.859031 L54.106519,276.488115 C49.8051695,271.235301 45.5038199,265.9835 41.2024704,260.730686" id="Fill-18" fill="#F4BE9A"></path>
            <g id="Group-22" transform="translate(15.199115, 363.882013)">
                <mask id="mask-4" fill="white">
                    <use xlink:href="#path-3"></use>
                </mask>
                <g id="Clip-21"></g>
                <path d="M17.8495367,67.3416044 L0.122302212,93.2216442 L27.7512535,93.2216442 L31.6989704,80.2811177 L35.6456739,93.2216442 L35.6456739,60.6580469 C35.9962668,49.0631487 36.0823951,40.0875646 36.0945544,33.9450956 C36.1107668,25.1498743 35.9678951,25.9290823 36.0945544,22.4880027 C36.5282358,10.6590381 37.9741783,8.15929027 36.0945544,5.30286991 C32.757842,0.231431858 21.97255,-1.36346195 16.6173951,3.01185664 C12.3819084,6.47117522 12.7932978,12.6268168 14.3263819,29.935569 C15.6669438,45.0708478 16.8980721,57.8168257 17.8495367,67.3416044" id="Fill-20" fill="#E5B958" mask="url(#mask-4)"></path>
            </g>
            <path d="M30.2748133,320.323477 C32.2101673,323.165712 35.6319947,324.56707 38.8775124,323.865885 C43.3541584,322.898208 44.8852159,318.495531 44.9500655,318.298955" id="Fill-23" fill="#F4BE9A"></path>
            <path d="M51.2935681,386.370523 C51.7282628,374.540545 53.173192,372.04181 51.2935681,369.18539 C49.882077,367.039275 47.1330637,365.525443 44.0294044,364.813111 C43.2866743,366.044239 42.5206389,367.266248 41.6978602,368.487244 C40.2509044,370.634372 40.1688292,369.574487 41.106108,371.802677 C41.7890549,373.427969 43.0201832,374.943828 43.8297894,376.530615 C46.0377142,380.856284 48.2122009,386.339111 45.6800283,390.962682 C44.9737761,392.251567 43.7203558,393.178713 43.0151168,394.449359 C41.512431,397.154801 42.6108204,397.940089 43.8226965,400.546231 C44.9788425,403.034832 45.623285,405.700757 45.9009221,408.423425 C46.709515,416.333045 44.7954398,424.243677 45.542223,432.189775 C45.5959265,432.764301 45.3375416,433.547562 44.6404088,433.615452 C43.5582319,433.721846 42.5885283,433.81 41.5772805,433.749204 C39.2406699,444.271045 31.8802451,451.263651 23.2734929,457.103151 L42.9502673,457.103151 L46.8979841,444.163638 L50.8446876,457.103151 L50.8446876,424.539554 C51.1952805,412.945669 51.2814088,403.970085 51.2935681,397.827615 C51.3107938,389.031381 51.1669088,389.810589 51.2935681,386.370523" id="Fill-25" fill="#E0B04F"></path>
            <path d="M93.5478173,65.5059566 C97.9180695,62.899815 106.019198,65.7846071 109.264715,70.8945496 C112.235636,75.5708106 110.688366,81.4001779 110.16349,83.4682708 C106.192468,99.1081602 105.742574,115.721806 105.223777,134.66193 C104.901556,146.407806 106.129645,159.28855 105.603755,184.241443 C105.538906,187.348142 105.34537,194.236381 102.955056,194.83624 C100.02872,195.571877 95.4254146,186.472673 94.8944588,185.407722 C92.3531668,180.308926 91.7928261,176.368302 90.8535208,171.486346 C87.3303659,153.169386 84.1344987,149.506399 85.4406093,140.929032 C85.9857509,137.3542 86.5815562,133.438908 89.6082066,130.321063 C91.3115208,128.567085 92.6926137,128.189134 93.4849942,126.338895 C94.909658,123.011302 92.1930695,119.43039 91.434127,116.906324 C89.7348659,111.252253 90.7420606,104.479527 91.3024013,95.5931115 C92.6865341,73.6354566 89.4116314,67.9722664 93.5478173,65.5059566" id="Fill-27" fill="#F6C5A2"></path>
            <path d="M91.5364677,90.9698447 C91.4797243,92.4279465 91.4057553,93.9600173 91.3024013,95.5934155 C91.1189987,98.4964465 90.8899987,101.170477 90.7217951,103.657053 L106.776114,103.657053 C107.205742,99.3334111 107.769123,95.1121102 108.531105,90.9698447 L91.5364677,90.9698447 Z" id="Fill-29" fill="#F4BE9A"></path>
            <path d="M19.3555664,249.039729 C45.1109735,248.852273 70.8653673,248.664818 96.6207743,248.476349 C99.7467257,240.632592 103.389447,228.9313 104.366243,214.350282 C104.877947,206.720327 104.907332,194.298596 101.287916,179.666915 C99.9534336,174.271229 98.1234602,168.724565 95.6581637,162.989433 C83.8312257,135.483088 60.5613805,130.206968 44.0206903,137.892654 C40.0557478,139.734787 25.6723186,146.416318 17.4303451,169.230189 C15.4656062,174.668433 14.1230177,179.740884 13.2049912,184.429304 C13.1067035,184.929862 11.3638717,193.963203 11.2483584,204.038189 C11.0234115,223.683552 17.0402345,242.369344 19.3555664,249.039729" id="Fill-31" fill="#633F47"></path>
            <path d="M28.7754712,175.67735 C29.1544358,172.270722 29.5323872,168.865107 29.9113518,165.458478 C38.8109403,164.781611 46.3527412,164.473576 52.051396,164.322598 C75.2786836,163.711593 82.4729314,165.346005 88.3853872,167.729226 C93.334219,169.72335 97.0894137,172.122784 99.5101261,173.859536 C99.3672544,173.396469 99.1777721,172.797624 98.9497854,172.100492 C98.7582765,171.516846 98.5627146,170.936239 98.3600597,170.3607 C86.1561836,135.690505 62.145635,129.041399 45.0770288,138.728301 C40.9864403,141.049713 26.1450111,149.472049 17.6405996,178.226748 C12.9126615,194.214191 11.9824757,210.358691 11.2620376,222.098487 C11.04925,225.561859 10.912458,228.923903 10.8273429,232.199819 C12.8386925,231.326377 14.8652412,230.511704 16.9029358,229.735536 C19.9589712,226.620731 24.0120686,221.605023 26.2747102,214.55466 C27.5686615,210.524868 27.7561173,207.453633 28.183719,194.933615 C28.4481836,187.169908 28.6407058,180.601863 28.7754712,175.67735" id="Fill-33" fill="#56373F"></path>
            <path d="M20.8633186,65.5059566 C16.4930664,62.899815 8.39193805,65.7846071 5.14642035,70.8945496 C2.1755,75.5708106 3.72276991,81.4001779 4.24764602,83.4682708 C8.21866814,99.1081602 8.66856195,115.721806 9.18735841,134.66193 C9.50957965,146.407806 8.28149115,159.28855 8.80738053,184.241443 C8.87223009,187.348142 9.06576549,194.236381 11.4560796,194.83624 C14.3824159,195.571877 18.9857212,186.472673 19.516677,185.407722 C22.5757522,179.270319 23.3053097,173.766213 23.557615,171.486346 C25.7391947,151.798426 17.0017301,145.193904 22.1744956,134.48866 C23.3042965,132.15205 25.2224248,129.358452 24.8262345,125.39655 C24.4118053,121.242125 21.8330221,119.6067 20.2472478,116.34497 C17.3178717,110.317001 22.1562566,105.309399 23.1087345,95.5931115 C25.492969,71.2684478 23.5900398,67.1312487 20.8633186,65.5059566" id="Fill-35" fill="#F6C5A2"></path>
            <path d="M20.736254,79.4021022 L3.47613894,79.4021022 C3.65447522,81.1581066 4.0344531,82.6273544 4.24825398,83.4683721 C5.50876726,88.4364562 6.41362124,93.5028279 7.07934248,98.7100447 L20.736254,98.7100447 L20.736254,79.4021022 Z" id="Fill-37" fill="#F4BE9A"></path>
            <path d="M32.2450239,23.7457801 C31.5590372,25.5727137 29.8253248,33.0182535 32.8600814,41.2784659 C38.4908469,56.5991739 57.9649664,66.4897447 66.8260504,61.3960146 C69.1555681,60.0574792 70.3086743,57.7948376 72.6169133,53.2695544 C73.4954221,51.5469881 77.2202186,44.1480588 77.739015,33.4732137 C78.0926478,26.1948642 76.8341611,20.0159173 75.4196301,15.4693553 C74.7751876,13.8440633 71.9603115,7.28209867 64.9535195,4.31827124 C57.0611257,0.980545575 49.7128602,4.77221814 46.6142673,6.18573584 C41.0159265,8.73918717 35.8877451,14.0527978 32.2450239,23.7457801" id="Fill-39" fill="#F4BE9A"></path>
            <g id="Group-43" transform="translate(2.026549, 63.952810)">
                <mask id="mask-6" fill="white">
                    <use xlink:href="#path-5"></use>
                </mask>
                <g id="Clip-42"></g>
                <path d="M14.0868438,0.829365044 C11.6651181,1.15969248 7.37390133,1.79298894 4.23680398,5.37491372 C1.91640575,8.02462611 1.40672876,10.9540022 1.20610044,12.19425 C1.01864469,13.3585022 0.0377951327,19.4452412 3.10092345,21.6653252 C5.72530398,23.5692677 9.05695,20.988458 11.4351049,23.1811836 C12.628742,24.2815996 12.806065,25.8704137 12.94995,27.3477677 C13.430242,32.2601217 11.0936314,35.5684624 10.2982111,37.9557367 C9.11470664,41.5103031 9.93951195,47.2575951 18.6334058,56.8978872 C17.2938571,69.4635022 15.9553217,82.0291173 14.615773,94.5947323 C41.0227155,96.1845597 67.429658,97.7754004 93.8366004,99.3662412 C93.4272376,92.946135 93.0665119,86.430781 92.7605031,79.8211925 C92.3582332,71.1222323 92.0643836,62.57425 91.8688217,54.1833252 C97.9434013,46.7398119 98.4794235,41.860896 97.5715296,38.6569226 C96.907835,36.3122058 95.0119987,34.1792633 95.9685296,32.7758783 C96.6930208,31.7119403 98.636481,31.6379712 102.448419,31.4940863 C103.782901,31.4434226 104.88737,31.4647013 105.640233,31.4940863 C106.417415,27.3720863 107.171291,24.1042765 107.705286,21.9186438 C108.609127,18.2191792 109.181627,16.3760332 109.019503,13.4709757 C108.937428,11.9936217 108.800636,10.041042 107.705286,7.83818363 C106.069862,4.55010841 103.403937,2.95014823 102.448419,2.39386062 C99.5352553,0.697639381 96.8308261,0.547674779 95.149804,0.455466814 C93.4627022,0.362245575 90.6680916,0.506130531 87.5178217,1.54676327 C84.9501845,2.39487389 84.5671668,2.97851991 82.0755252,3.81447124 C79.171481,4.78822788 78.495627,4.15898451 73.4586403,4.72135177 C68.7165164,5.25028097 68.9586889,5.84709956 64.7991978,6.21390487 C64.0838261,6.27672788 63.0310341,6.34360398 56.4163792,6.21390487 C54.1902155,6.17033407 50.9305119,6.09332522 46.985835,5.95248009 C39.9243261,5.6991615 36.3940783,5.57250221 35.7202509,5.42861726 C30.2212111,4.25119248 29.2586004,2.74749336 23.5721049,1.54676327 C20.4299412,0.883068584 17.6809279,0.338940265 14.0868438,0.829365044" id="Fill-41" fill="#D88764" mask="url(#mask-6)"></path>
            </g>
            <g id="Group-46" transform="translate(24.318584, 0.116527)">
                <mask id="mask-8" fill="white">
                    <use xlink:href="#path-7"></use>
                </mask>
                <g id="Clip-45"></g>
                <path d="M24.8944279,33.9716434 C23.1019456,31.5083735 22.8101226,27.9223956 21.6671491,28.0429752 C20.5150562,28.1655814 20.5859854,31.9663735 18.2503881,33.497431 C16.6261093,34.5623823 15.6422199,33.3272009 14.8792243,34.0800637 C12.6824456,36.2494841 17.1783438,48.6864133 21.6124323,65.1237496 C24.8832819,77.2465637 25.241981,80.9662938 23.6511403,83.064785 C21.7127465,85.6222894 17.6282376,84.7812717 13.8598704,84.0061168 C9.78954735,83.1681389 6.28463142,82.4780991 3.69267566,79.3014841 C-2.29172257,71.9653779 0.821056195,56.6477097 1.6539677,52.5459752 C3.01884823,45.8320195 4.66136593,44.2107805 5.13659159,37.1229265 C5.53278186,31.1932451 4.46985708,30.1637584 5.37167124,25.2068204 C5.60979071,23.9007097 6.81862699,17.6690726 11.0166226,11.5428159 C13.4231491,8.03283363 15.9502553,5.81173628 17.7204456,4.49143982 C20.1107597,3.03435133 25.5520429,0.229607965 32.6267243,1.04124071 C41.3358173,2.04134248 46.9088261,7.87678938 48.6344323,9.73614779 C50.8798482,12.1558469 54.0473438,15.6607628 55.3585208,21.5367407 C55.5723217,22.4963115 57.072981,29.9195593 54.3168748,33.497431 C52.9570606,35.2615416 50.7916934,34.8835903 48.0528128,34.6829619 C34.1131978,33.6615814 28.499658,38.9265549 24.8944279,33.9716434" id="Fill-44" fill="#A84637" mask="url(#mask-8)"></path>
            </g>
            <path d="M40.5196248,34.0162274 C41.5177,28.6205416 41.6859035,27.5732212 44.8321204,23.3053097 C44.9790451,23.1056947 47.792908,23.1877699 47.9692177,23.3053097 C51.5764743,25.7280487 48.5723186,26.1211991 50.6637168,30.3982301 C51.6577389,32.4308584 55.5728283,33.8439708 56.3956071,35.9941389 C57.6490274,35.8087097 59.0696381,35.5533646 60.6858106,35.3091655 C57.0947664,29.741223 57.5243947,21.0939398 53.3497044,15.8624044 C48.2701602,9.49802832 38.4120142,11.5661212 35.4127221,19.6378646 C32.7326115,26.8462982 33.7620982,36.0235239 35.5140496,43.3728027 C36.428023,47.2060195 37.8557265,50.5275327 39.3482796,54.0385283 C41.6585451,59.477785 43.7803416,65.184546 44.8361735,71.2317673 C45.669085,75.9971965 45.6032221,80.5315991 44.8321204,84.8278823 C46.108846,84.6627186 47.2072354,84.1874929 47.9692177,83.1813115 C49.5610717,81.0828204 49.2013593,77.3630903 45.931523,65.2402761 C41.4974345,48.8029398 37.0015363,36.3660106 39.198315,34.1965903 C39.5691735,33.829785 39.9947487,33.9351655 40.5196248,34.0162274 Z" id="Fill-47" fill="#993D33"></path>
            <polygon id="Fill-51" fill="#C6785D" points="93.5440681 122.934496 60.1688381 114.133195 21.984608 128.608832 21.2185726 121.371013 59.7260372 106.809248 93.5440681 117.70904"></polygon>
            <path d="M83.2239704,67.5992801 C82.6818686,67.6448774 82.1377403,67.6823686 81.5905721,67.7046606 C81.3007757,67.743165 81.0069261,67.7644438 80.7161164,67.7968686 C80.5104217,67.9002226 80.3320854,68.0248553 80.2206252,68.201165 C79.9713597,68.5953288 80.0564748,69.0573819 80.0767403,69.1647889 C80.7272624,72.5116341 59.270165,107.426028 58.6763863,110.975528 C58.0826075,114.525028 46.1036783,129.052342 46.1036783,129.052342 C46.1036783,129.052342 20.879227,155.307293 21.6928863,158.628807 C21.7161916,158.723041 21.7445633,158.817276 21.7698951,158.91151 C21.8367712,158.909484 21.8935146,158.888205 21.9664704,158.898338 C22.3373288,158.952041 22.7051473,159.006758 23.0739792,159.062488 C23.2452226,158.96724 23.4407845,158.898338 23.69005,158.898338 C25.8321119,158.899351 27.9691075,158.926709 30.1000235,159.046276 L51.2642845,133.160156 L64.7377934,113.342537 C71.8003155,98.2751473 78.8638509,83.207758 85.926373,68.1403686 C84.999227,67.9002226 84.0660013,67.7006075 83.2239704,67.5992801" id="Fill-53" fill="#C6785D"></path>
            <path d="M82.6733571,68.1401659 C80.1796889,67.4947102 77.6404235,67.1390509 76.9686226,68.2009624 C76.7183438,68.5951261 76.8034588,69.0571792 76.8247376,69.1645863 C77.4742465,72.5114314 56.0181624,107.426838 55.4233704,110.975325 C54.8295916,114.524825 42.8506624,129.052139 42.8506624,129.052139 C42.8506624,129.052139 17.6262111,155.307091 18.4398704,158.628604 C19.2545429,161.951131 21.5536624,165.519883 21.5536624,165.519883 L48.0112686,133.159954 L61.4847774,113.342334 C68.5483128,98.2749447 75.610835,83.2075553 82.6733571,68.1401659" id="Fill-55" fill="#A84637"></path>
            <g id="Group-59" transform="translate(0.000000, 153.120951)" fill="#A84637">
                <path d="M10.9792327,1.64342965 C10.9792327,1.64342965 1.33083451,4.90515973 0.92349823,15.7482084 C0.515148673,26.5912571 -2.71213009,77.2863854 5.95136549,79.9523102 C14.6138478,82.6192482 22.5305602,74.4086863 22.5305602,74.4086863 C22.5305602,74.4086863 27.5462681,4.52011549 25.3302372,1.64342965 C23.1152195,-1.23325619 10.9792327,1.64342965 10.9792327,1.64342965" id="Fill-57"></path>
            </g>
            <g id="Group-62" transform="translate(0.000000, 155.147500)">
                <mask id="mask-10" fill="white">
                    <use xlink:href="#path-9"></use>
                </mask>
                <g id="Clip-61"></g>
                <path d="M8.96028363,0.572398673 C8.96028363,0.572398673 7.03810221,34.0398367 6.63076593,40.390027 C6.22342965,46.7412305 -0.000101327434,43.9689119 -0.000101327434,43.9689119 L1.57858009,9.6482969 C1.57858009,9.6482969 6.94082788,1.52791637 8.96028363,0.572398673" id="Fill-60" fill="#B24D42" mask="url(#mask-10)"></path>
            </g>
            <path d="M58.88735,182.162711 L58.2196022,182.162711 C57.0097527,182.162711 56.0197836,181.172742 56.0197836,179.963906 L56.0197836,179.295145 C56.0197836,178.086308 57.0097527,177.096339 58.2196022,177.096339 L58.88735,177.096339 C60.0971996,177.096339 61.0861553,178.086308 61.0861553,179.295145 L61.0861553,179.963906 C61.0861553,181.172742 60.0971996,182.162711 58.88735,182.162711" id="Fill-63" fill="#56373F"></path>
            <path d="M58.4861947,201.255029 L57.8184469,201.255029 C56.6085973,201.255029 55.6186283,200.26506 55.6186283,199.056223 L55.6186283,198.387462 C55.6186283,197.178626 56.6085973,196.188657 57.8184469,196.188657 L58.4861947,196.188657 C59.6960442,196.188657 60.685,197.178626 60.685,198.387462 L60.685,199.056223 C60.685,200.26506 59.6960442,201.255029 58.4861947,201.255029" id="Fill-65" fill="#56373F"></path>
            <path d="M58.88735,220.017627 L58.2196022,220.017627 C57.0097527,220.017627 56.0197836,219.027658 56.0197836,217.818822 L56.0197836,217.150061 C56.0197836,215.941224 57.0097527,214.951255 58.2196022,214.951255 L58.88735,214.951255 C60.0971996,214.951255 61.0861553,215.941224 61.0861553,217.150061 L61.0861553,217.818822 C61.0861553,219.027658 60.0971996,220.017627 58.88735,220.017627" id="Fill-67" fill="#56373F"></path>
            <path d="M58.4861947,239.109945 L57.8184469,239.109945 C56.6085973,239.109945 55.6186283,238.119976 55.6186283,236.911139 L55.6186283,236.242378 C55.6186283,235.033542 56.6085973,234.043573 57.8184469,234.043573 L58.4861947,234.043573 C59.6960442,234.043573 60.685,235.033542 60.685,236.242378 L60.685,236.911139 C60.685,238.119976 59.6960442,239.109945 58.4861947,239.109945" id="Fill-69" fill="#56373F"></path>
        </g>
    </g>
</svg>