<?xml version="1.0" encoding="UTF-8"?>
<svg width="128px" height="192px" viewBox="0 0 128 192" version="1.1" xmlns="http://www.w3.org/2000/svg" xmlns:xlink="http://www.w3.org/1999/xlink">
    <!-- Generator: Sketch 46.2 (44496) - http://www.bohemiancoding.com/sketch -->
    <title>rightHook</title>
    <desc>Created with Sketch.</desc>
    <defs></defs>
    <g id="Page-1" stroke="none" stroke-width="1" fill="none" fill-rule="evenodd">
        <g id="rightHook">
            <polygon id="Combined-Shape" fill="#D8D8D8" points="64 128 128 128 128 192 0 192 0 0 64 0"></polygon>
            <g transform="translate(0.000000, 2.000000)">
                <path d="M44.0156567,91.4669828 C44.0372834,92.6695587 44.0056751,93.7524863 43.9635307,94.6991479 C46.871495,96.0130632 50.8824228,96.5149212 54,98 C53.9018479,94.9185031 53.8014777,91.7688731 53.6983348,88.5477865 C52.8121931,87.3025582 51.8728164,86.5082266 51.17577,86.0157854 C48.1807443,83.9014453 44.1115907,83.4411318 43.2071495,84.6786051 C42.787369,85.2530276 43.0635258,85.7847977 43.5199053,87.7512392 C43.8687058,89.2568133 43.9973571,90.4544039 44.0156567,91.4669828" id="Fill-1" fill="#F6C5A2"></path>
                <path d="M61.9827043,137.375171 C61.7328591,137.098781 61.5640599,136.923305 61.3404848,136.63346 C57.7057126,131.928667 57.6990054,125.959658 56.9522645,116.916163 C56.7108034,113.994169 56.8265035,116.191271 55.4766689,103.060796 C55.0015718,98.4406585 54.6114332,94.5218668 54.3459378,91.8230023 C50.8626377,91.5460519 47.4139918,91.2719047 44,91 C44.4342946,112.703602 45.4761546,127.226678 46.3682193,133.559535 C46.6767529,135.746546 47.2384853,138.87317 49.2115356,142.55874 C50.2735173,144.543364 51.6065839,146.471365 53.7579353,148.839459 C57.9488505,153.452308 62.8585598,157.152455 65.2245433,158.854522 C67.543576,159.563717 71.0682375,160.442782 75.4424843,160.742718 C81.1442083,161.134037 85.5369001,161.435655 87.2645767,158.829294 C88.9279755,156.319922 87.5596959,151.961037 85.2551955,149.432603 C83.2972366,147.284836 82.2497872,148.1981 74.7438121,145.290121 C68.2098298,142.758324 64.7175867,140.406488 61.9827043,137.375171" id="Fill-3" fill="#3D62A3"></path>
                <path d="M33.3301961,27 L43.9952675,27 C45.1917251,47.6081755 47.4737952,95.1874142 47.9311005,98.43062 C48.5048208,102.496754 55.9620713,160.5868 55.9620713,160.5868 C56.0584341,162.00535 56.0294695,164.25416 55.1622049,166.776528 C53.9573922,170.279191 50.7551414,175.41248 46.6226839,175.952262 C38.6240196,176.995729 29,160.5868 29,160.5868 L31.8686017,85.0697403 C31.8686017,85.0697403 32.5191895,46.8670325 33.3301961,27" id="Fill-5" fill="#2D2D2D"></path>
                <path d="M22.7584647,26 L12.0516826,26 C10.8505457,46.514864 8.55955047,93.8786692 8.10045671,97.1071901 C7.52449257,101.154913 0.0380770177,158.981933 0.0380770177,158.981933 C-0.0586625917,160.39406 -0.02958479,162.632689 0.841071694,165.143636 C2.85415027,170.947113 7.93493692,173.520384 9.41399048,174.277823 C11.622785,175.408648 19.3541251,179.368218 25.2373473,174.979114 C29.3294887,171.926337 30.9986663,165.974067 29.4010648,160.154869 C27.6759683,134.705702 25.9508718,109.256535 24.2257753,83.806807 C24.2257753,83.806807 23.5726431,45.7770768 22.7584647,26" id="Fill-7" fill="#2D2D2D"></path>
                <path d="M23,26 C22.4435686,24.5799265 21.7102735,22.4178063 21.2428482,19.6952227 C20.6353101,16.1613348 20.9764043,14.5998359 19.78602,13.6552542 C18.1816141,12.381844 14.8464711,13.0604529 13.6939862,14.8628987 C12.9601169,16.0111795 13.4665901,17.0739067 13.4545312,19.3279824 C13.4396012,22.1390296 12.6821883,24.4367551 12,26 L23,26 Z" id="Fill-9" fill="#F6C5A2"></path>
                <path d="M3.00667391,169.716238 C2.65025852,163.377539 16.6315893,156.431512 30.0265413,149.776021 C37.0071353,146.307859 40.8107645,145.365473 44.3989779,145.08407 C51.8176774,144.502999 54.2454425,147.068731 63.3622908,148.641276 C78.0267977,151.170477 82.4453414,146.378067 87.1128723,150.140189 C93.4013378,155.208865 93.7398485,170.645496 87.4373949,179.302772 C70.7910618,202.169465 3.76986165,183.295496 3.00667391,169.716238" id="Fill-11" fill="#E2B150"></path>
                <path d="M84.0476248,172.305421 C78.7063788,171.262102 73.8184612,169.089261 68.3177417,168.765031 C57.9062429,168.151052 47.266686,169.594793 37.1635398,166.281308 C30.9451897,164.241941 23.8090307,160.36453 19.4915374,155 C10.2136385,159.833972 2.74515023,164.695752 3.00666442,169.237195 C3.7666726,182.467219 70.557619,200.857114 87.1473207,178.577573 C88.3322198,176.985899 89.2812542,175.157865 90,173.208037 C87.9508217,173.051762 85.9049889,172.668025 84.0476248,172.305421" id="Fill-13" fill="#527ACC"></path>
                <path d="M34.4605488,152.427803 C37.6460125,154.320355 41.1238237,155.981212 44.5465387,157.400905 C52.1762472,160.566113 60.2928268,160.958213 68.4746224,160.998871 C73.0048847,161.021707 77.5992387,160.702568 82.0108755,159.630419 C85.0659072,158.887433 88.0236772,157.806372 91,156.796046 C90.2011041,153.922685 88.8428125,151.507147 86.9374937,150.015606 C82.2475645,146.344121 77.8078174,151.02092 63.0723772,148.55247 C53.9117796,147.018043 51.4729265,144.515062 44.0180643,145.082048 C40.4874056,145.350503 36.7408595,146.244425 30,149.459202 C31.4881614,150.448364 32.9240376,151.514944 34.4605488,152.427803" id="Fill-15" fill="#527ACC"></path>
                <path d="M100.017976,160.061186 C95.5407879,159.961939 91.2590784,159.987626 87.1916758,160.107891 C86.5697979,160.813131 85.3869563,162.359639 85.0757404,164.589786 C84.6172232,167.874291 86.369335,170.333875 86.8793524,171 C88.6868408,170.514272 90.8985775,170.043138 93.4564172,169.828881 C96.0873538,169.608785 99.1657324,169.625132 102.715365,170.076999 L103,160.151676 C102.012637,160.117815 101.025828,160.083371 100.017976,160.061186" id="Fill-17" fill="#F6C5A2"></path>
                <g id="Group-21" transform="translate(12.000000, 0.000000)" fill="#E0B04F">
                    <path d="M4.93772222,8.90725588 C6.37383333,6.33778529 7.82605556,2.99993235 9.95605556,0.87305 C9.92216667,0.710991176 9.85327778,0.589726471 9.72438889,0.527697059 C8.92216667,0.139873529 7.0755,2.13431471 6.18938889,3.10052059 C6.18938889,3.10052059 3.40605556,6.13549118 1.79161111,11.4040794 C1.5205,12.2892559 1.19605556,13.44155 1.19605556,13.44155 C1.03272222,14.0216088 0.942722222,14.40105 0.801055556,14.8894618 C0.156611111,17.1113441 0.0566111111,17.7752265 0.4105,18.3703735 C0.568277778,18.6358147 0.7755,18.8213441 0.7755,18.8213441 C0.781055556,18.8258147 0.786055556,18.8274912 0.791055556,18.8319618 C0.851055556,18.7134912 0.921055556,18.6056382 0.986611111,18.4933147 C1.70994444,14.9336088 3.1505,12.1054029 4.93772222,8.90725588" id="Fill-19"></path>
                </g>
                <path d="M20.7057635,13.2059654 C19.9387199,6.67988284 22.5224737,2.00718684 21.903165,1 C18.2381635,5.51170884 15.4718822,10.6627169 13.6808649,16.3100536 C13.5010138,17.1899618 13.3142042,18.0681264 13.1247182,18.9451287 C13.082967,19.2084037 13.0417511,19.4710976 13,19.7337914 C13.0278341,19.7767988 13.0695852,19.8296863 13.1295356,19.8773431 C13.2740588,19.9929982 13.4298227,20.0005535 13.4940553,19.9999724 C13.7397447,19.4740035 14.2348705,18.6045566 15.1507195,17.9152758 C17.0423677,16.4931256 19.1732822,17.0103768 19.5581421,17.1115023 C19.5977522,17.0888363 21.4744128,18.9863925 21.6489112,18.9311803 C21.8683724,18.8608574 21.0130091,15.8201179 20.7057635,13.2059654" id="Fill-22" fill="#E5B958"></path>
                <path d="M22.5159347,127.909583 C22.82535,129.094467 23.0531612,130.173891 23.2379036,131.121347 C26.441428,131.729862 30.5465633,131.271925 34,132 C33.1646922,128.973215 32.3106835,125.879319 31.4374072,122.715492 C30.2586825,121.693593 29.1354939,121.130759 28.3251207,120.8093 C24.8427826,119.429285 20.6900449,119.94249 20.0876485,121.38285 C19.8077014,122.051145 20.2094879,122.511338 21.1337667,124.349854 C21.8410015,125.75694 22.2552552,126.91137 22.5159347,127.909583" id="Fill-24" fill="#F6C5A2"></path>
                <path d="M50.7240534,169.698906 C50.4120758,169.487656 50.2039018,169.3564 49.9146135,169.125997 C45.2145305,165.386596 43.7947491,159.557233 40.9160475,150.898814 C39.9857873,148.100742 40.6205197,150.219998 36.1790944,137.711202 C34.6169379,133.31045 33.3043634,129.573866 32.403032,127 C28.9003754,127.550939 25.4328871,128.096245 22,128.636481 C27.5679478,149.736096 32.0343313,163.678572 34.4144361,169.654402 C35.2363551,171.717889 36.5313454,174.640458 39.3504876,177.775402 C40.8684001,179.46371 42.6404323,181.03259 45.323439,182.838634 C50.5510476,186.356645 56.2710136,188.812774 59.0090417,189.917469 C61.4645883,190.063372 65.1510281,190.090975 69.5374319,189.352446 C75.2556961,188.389711 79.6613859,187.647803 80.7487693,184.694251 C81.7953121,181.850549 79.4135056,177.914545 76.5410435,175.988512 C74.1008121,174.352031 73.283431,175.491089 65.1890326,174.420758 C58.1428786,173.489006 54.1404908,172.014765 50.7240534,169.698906" id="Fill-26" fill="#3D62A3"></path>
                <path d="M44,28 C43.4435686,26.5799265 42.7102735,24.4178063 42.2428482,21.6952227 C41.6353101,18.1613348 41.9764043,16.5998359 40.78602,15.6552542 C39.1816141,14.381844 35.8464711,15.0604529 34.6939862,16.8628987 C33.9601169,18.0111795 34.4665901,19.0739067 34.4545312,21.3279824 C34.4396012,24.1390296 33.6821883,26.4367551 33,28 L44,28 Z" id="Fill-28" fill="#F6C5A2"></path>
                <path d="M38.85163,10.7257751 C40.3249541,8.06581527 41.8148067,4.61041294 44,2.40862802 C43.965233,2.24086196 43.894559,2.11532667 43.7623303,2.05111276 C42.9393206,1.64963123 41.0448025,3.71431077 40.1357302,4.71454359 C40.1357302,4.71454359 37.2802743,7.85639695 35.6239958,13.3105294 C35.3458596,14.2268792 35.013008,15.4197537 35.013008,15.4197537 C34.8454423,16.0202405 34.7531102,16.4130445 34.6077726,16.9186567 C33.9466292,19.2187872 33.8440379,19.9060496 34.2070969,20.522156 C34.3689631,20.7969452 34.5815549,20.9890084 34.5815549,20.9890084 C34.5872544,20.9936365 34.592384,20.995372 34.5975135,21 C34.6590683,20.8773572 34.7308821,20.765706 34.7981364,20.6494268 C35.540213,16.9643585 37.0180967,14.0365515 38.85163,10.7257751" id="Fill-30" fill="#E0B04F"></path>
                <path d="M41.7057635,14.2059654 C40.9387199,7.67988284 43.5224737,3.00718684 42.903165,2 C39.2381635,6.51170884 36.4718822,11.6627169 34.6808649,17.3100536 C34.5010138,18.1899618 34.3142042,19.0681264 34.1247182,19.9451287 C34.082967,20.2084037 34.0417511,20.4710976 34,20.7337914 C34.0278341,20.7767988 34.0695852,20.8296863 34.1295356,20.8773431 C34.2740588,20.9929982 34.4298227,21.0005535 34.4940553,20.9999724 C34.7397447,20.4740035 35.2348705,19.6045566 36.1507195,18.9152758 C38.0423677,17.4931256 40.1732822,18.0103768 40.5581421,18.1115023 C40.5977522,18.0888363 42.4744128,19.9863925 42.6489112,19.9311803 C42.8683724,19.8608574 42.0130091,16.8201179 41.7057635,14.2059654" id="Fill-32" fill="#E5B958"></path>
                <path d="M96.0908775,157.975653 C95.0501976,158.228799 94.2217843,157.576626 93.4960621,157.307926 C92.1220664,156.798952 89.7400913,157.155609 85.3197834,161 C84.6967523,160.566648 78.0528087,155.88666 79.1147152,153.670557 C79.5094163,152.847296 80.6338554,153.060754 88.0517115,152.371037 C92.6240481,151.94573 94.4822411,151.652359 96.1832422,152.85105 C96.4551728,153.042519 98.2410805,154.278216 97.972592,155.882906 C97.8159737,156.821478 97.0495192,157.742351 96.0908775,157.975653" id="Fill-34" fill="#3D62A3"></path>
                <path d="M96.0897901,170.987771 C95.0485175,170.737686 94.2196323,171.381972 93.4934968,171.647422 C92.1187184,172.150241 89.7353866,171.797897 85.312561,168 C83.1427646,168.922452 75.4870573,172.28588 76.0272103,174.368153 C76.2556703,175.248748 77.7331983,175.071781 88.0460451,176.524604 C91.7335509,177.044378 94.2006897,177.429572 96.1822074,176.050397 C96.4542929,175.861244 98.2412178,174.640491 97.9725764,173.055208 C97.8158688,172.127987 97.0489779,171.218251 96.0897901,170.987771" id="Fill-36" fill="#3D62A3"></path>
                <path d="M95.5576497,160 C83.6767704,159.41521 71.7953231,158.83102 59.9144438,158.24623 C58.1441535,159.533968 56.2631137,159.49858 55.7019823,158.740453 C55.1084778,157.939141 55.5878249,155.785915 57.5739349,154.292452 C56.7157673,153.304007 55.8581676,152.314962 55,151.326518 C56.1057924,151.056615 57.1928426,150.612175 57.3399409,149.843851 C57.5341787,148.830215 55.9598301,147.949732 56.1699704,147.372739 C56.3295635,146.934297 57.4802237,146.771155 61.1071321,147.511289 C66.2175175,149.253663 72.6875675,150.95825 80.2730651,151.82074 C87.1707791,152.605258 93.2818868,152.498497 98.2923136,152.067851 C101.639792,154.29785 102.79386,154.780076 102.972763,154.539563 C103.269799,154.138307 101.048559,151.481262 100.623167,151.751165 C100.469822,151.84833 100.549334,152.326358 100.761746,153.007114 L100.761746,154.504176 C100.761746,157.527089 98.4195337,160 95.5576497,160" id="Fill-38" fill="#BF3E37"></path>
                <path d="M108.777357,155.414097 C109.058805,156.729615 109.336297,158.701764 109.101757,161.056948 C108.930514,162.776374 108.2122,169.988031 102.681577,173.127336 C97.0209677,176.339412 88.375201,174.12018 85.4657745,168.633589 C84.2071705,166.259225 83.8782494,162.988481 84.9379181,160.20062 C86.6740794,155.631281 91.9091256,153.393434 91.2738895,152.11966 C90.9574018,151.484465 89.5654209,151.859603 87.5178583,150.467929 C87.0583859,150.155408 86.708554,149.850786 86.4745791,149.631345 C86.4745791,149.631345 85.8839904,149.251695 85.2787076,149.03451 C84.0048445,148.577012 76.7459722,152.688853 75.2630011,160.144209 C74.0857798,166.061785 77.1387561,171.019235 78.9212602,173.836994 C81.290397,177.58216 84.0653162,182.489404 88.5244023,182.966082 C91.5886818,183.293269 92.6161366,181.261323 101.709507,176.523314 C107.18418,173.670016 107.483713,174.056999 109.729081,172.642197 C113.331954,170.37163 117.792171,166.079272 121,157.1606 C116.874921,156.858234 112.644159,156.159294 108.777357,155.414097" id="Fill-40" fill="#D1493B"></path>
                <path d="M92.4583458,165.718636 C92.2592322,166.046413 92.2100131,167.145829 91.8995971,167.162901 C91.6865008,167.174282 91.4890651,166.686601 91.367136,166.323543 C91.2356986,166.641076 91.0751772,167.117377 91.0192465,167.71204 C90.9817728,168.109242 91.0058231,168.401167 91.0337885,168.754551 C91.07294,169.250768 91.1288708,169.974039 91.2015808,170.976147 C91.1747341,171.802986 91.1993436,172.986623 91.454388,174.377965 C91.6406376,175.394868 91.8984785,176.158542 92.1283541,176.812388 C93.5143192,180.753102 94.2073017,182.723175 95.1161771,182.963885 C96.741526,183.394092 97.2023957,179.872203 100.610818,178.175277 C105.101502,175.940024 111.274024,178.611174 116.459927,177.55273 C116.979524,177.446885 117.430886,177.31714 117.739624,177.224953 C119.373922,176.73841 121.317517,175.904743 122.553587,174.516246 C122.698448,174.353496 123.043541,173.955156 122.995441,173.477718 C122.935035,172.87338 122.272815,172.423257 121.516071,172.078409 C115.045438,169.130697 95.7409241,160.310326 92.4583458,165.718636" id="Fill-42" fill="#56373F"></path>
                <path d="M115.430685,150.56097 C114.410441,150.194653 110.262085,149.291483 105.69878,151.041164 C97.2353025,154.286404 91.8965678,165.16988 94.7955884,170.046435 C95.5575428,171.327702 96.8231621,171.949823 99.3549621,173.194626 C103.650993,175.306697 107.481541,175.655624 110.388984,175.879453 C113.139207,176.091501 117.092723,176.115623 121.787418,175.172624 C122.802047,174.408576 125.352938,172.274067 126.479306,168.554803 C127.966156,163.644028 125.852672,159.566862 125.296788,158.394424 C123.834083,155.308501 120.842976,152.505309 115.430685,150.56097" id="Fill-44" fill="#F4BE9A"></path>
                <path d="M122.229817,175.190445 C122.637312,174.891746 123.290445,174.37763 124,173.641987 C123.090972,173.779122 122.174534,173.872951 121.254107,173.930692 C119.932454,174.012862 118.945916,174.002313 118.481428,173.997316 C112.389514,173.926806 112.394073,174.259927 111.846946,173.9529 C108.258136,171.939183 113.131554,160.443176 109.774133,158.674303 C108.775627,158.147971 107.10632,158.8181 105.778398,159.329996 C104.226496,159.928503 103.97288,160.465384 102.264818,161.329833 C100.645665,162.149866 97.9157302,163.164775 97.5076648,162.596803 C96.8231863,161.645187 103.023387,156.801607 102.495637,156.074293 C102.297304,155.800578 100.963112,156.230305 97.2209931,158.255125 C96.8596615,158.755917 92.1161862,165.608773 94.8392818,170.08592 C95.6109585,171.355666 96.8949967,171.972495 99.4630731,173.207264 C103.82128,175.302596 107.70873,175.652373 110.659795,175.877229 C113.450712,176.089872 117.463545,176.118742 122.229817,175.190445" id="Fill-46" fill="#F6C5A2"></path>
                <path d="M113.403664,160.615678 C113.786598,157.282951 114.185649,155.73373 113.277501,154.99741 C111.545683,153.59341 106.903233,156.313482 104.288833,158.698864 C101.413215,161.3225 99.8536903,164.575808 99.5824685,165.153291 C98.2574834,167.976607 97.9229024,170.358018 97.3604507,170.294483 C96.918048,170.244563 96.6551629,168.717465 96.6962908,167.536971 C96.7401976,166.275924 97.13258,165.356942 97.4882806,164.545175 C99.5669066,159.803911 99.9126032,159.301307 99.6702821,158.974558 C98.861063,157.881991 93.6972893,162.023081 91.7915117,160.232769 C90.6510464,159.161758 90.988962,156.864871 91.3007559,154.745541 C91.6686838,152.246705 91.8181893,150.25104 93.2910124,149.010982 C93.6611635,148.69955 94.4865003,148.117528 98.2141324,148.01315 C101.801707,147.912743 102.341928,148.415346 106.533082,148.570779 C109.654356,148.686502 110.463575,148.448815 113.185241,148.813004 C114.373504,148.97184 115.569547,149.136917 117.107397,149.606051 C118.621348,150.067811 120.915062,150.776335 123.163757,152.685774 C124.727173,154.013192 125.724246,155.416624 126.319489,156.40141 C126.979203,157.732799 128.256391,160.767707 127.954601,164.743153 C127.582783,169.635879 125.058975,172.800126 124.254202,173.779806 C123.207108,175.055035 121.689822,176.854991 119.114327,177.628183 C118.297327,177.873245 115.535645,178.540358 113.843287,177.119907 C113.062969,176.465274 111.779112,174.747006 113.403664,160.615678" id="Fill-48" fill="#56373F"></path>
            </g>
        </g>
    </g>
</svg>