<?xml version="1.0" encoding="UTF-8"?>
<svg width="228px" height="337px" viewBox="0 0 228 337" version="1.1" xmlns="http://www.w3.org/2000/svg" xmlns:xlink="http://www.w3.org/1999/xlink">
    <!-- Generator: Sketch 46.2 (44496) - http://www.bohemiancoding.com/sketch -->
    <title>rightHook</title>
    <desc>Created with Sketch.</desc>
    <defs></defs>
    <g id="Page-1" stroke="none" stroke-width="1" fill="none" fill-rule="evenodd">
        <g id="rightHook" transform="translate(0.000000, -1.000000)">
            <path d="M78.7524,161.6187 C78.7914,163.7897 78.7344,165.7447 78.6584,167.4537 C83.9024,169.8257 91.1354,170.7317 96.7574,173.4127 C96.5804,167.8497 96.3994,162.1637 96.2134,156.3487 C94.6154,154.1007 92.9214,152.6667 91.6644,151.7777 C86.2634,147.9607 78.9254,147.1297 77.2944,149.3637 C76.5374,150.4007 77.0354,151.3607 77.8584,154.9107 C78.4874,157.6287 78.7194,159.7907 78.7524,161.6187" id="Fill-1" fill="#F6C5A2"></path>
            <path d="M110.3719,245.0253 C109.9249,244.5323 109.6229,244.2193 109.2229,243.7023 C102.7199,235.3103 102.7079,224.6633 101.3719,208.5323 C100.9399,203.3203 101.1469,207.2393 98.7319,183.8183 C97.8819,175.5773 97.1839,168.5873 96.7089,163.7733 C90.4769,163.2793 84.3069,162.7903 78.1989,162.3053 C78.9759,201.0183 80.8399,226.9233 82.4359,238.2193 C82.9879,242.1203 83.9929,247.6973 87.5229,254.2713 C89.4229,257.8113 91.8079,261.2503 95.6569,265.4743 C103.1549,273.7023 111.9389,280.3023 116.1719,283.3383 C120.3209,284.6033 126.6269,286.1713 134.4529,286.7063 C144.6539,287.4043 152.5129,287.9423 155.6039,283.2933 C158.5799,278.8173 156.1319,271.0423 152.0089,266.5323 C148.5059,262.7013 146.6319,264.3303 133.2029,259.1433 C121.5129,254.6273 115.2649,250.4323 110.3719,245.0253" id="Fill-3" fill="#3D62A3"></path>
            <path d="M58.6027,49.1534 L77.7497,49.1534 C79.8977,85.6904 83.9947,170.0454 84.8157,175.7954 C85.8457,183.0044 99.2337,285.9944 99.2337,285.9944 C99.4067,288.5094 99.3547,292.4964 97.7977,296.9684 C95.6347,303.1784 89.8857,312.2794 82.4667,313.2364 C68.1067,315.0864 50.8287,285.9944 50.8287,285.9944 L55.9787,152.1074 C55.9787,152.1074 57.1467,84.3764 58.6027,49.1534" id="Fill-5" fill="#2D2D2D"></path>
            <path d="M40.6992,46.2849 L21.5522,46.2849 C19.4042,82.8219 15.3072,167.1769 14.4862,172.9269 C13.4562,180.1359 0.0682,283.1259 0.0682,283.1259 C-0.1048,285.6409 -0.0528,289.6279 1.5042,294.0999 C5.1042,304.4359 14.1902,309.0189 16.8352,310.3679 C20.7852,312.3819 34.6112,319.4339 45.1322,311.6169 C52.4502,306.1799 55.4352,295.5789 52.5782,285.2149 C49.4932,239.8899 46.4082,194.5649 43.3232,149.2389 C43.3232,149.2389 42.1552,81.5079 40.6992,46.2849" id="Fill-7" fill="#2D2D2D"></path>
            <path d="M40.703,46.3739 C39.734,43.9339 38.457,40.2189 37.643,35.5409 C36.585,29.4689 37.179,26.7859 35.106,25.1629 C32.312,22.9749 26.504,24.1409 24.497,27.2379 C23.219,29.2109 24.101,31.0369 24.08,34.9099 C24.054,39.7399 22.735,43.6879 21.547,46.3739 L40.703,46.3739 Z" id="Fill-9" fill="#F6C5A2"></path>
            <path d="M4.9179,301.6079 C4.2809,290.5029 29.2689,278.3339 53.2089,266.6739 C65.6849,260.5979 72.4829,258.9469 78.8959,258.4539 C92.1549,257.4359 96.4939,261.9309 112.7879,264.6859 C138.9969,269.1169 146.8939,260.7209 155.2359,267.3119 C166.4749,276.1919 167.0799,303.2359 155.8159,318.4029 C126.0649,358.4639 6.2819,325.3979 4.9179,301.6079" id="Fill-11" fill="#E2B150"></path>
            <path d="M150.2574,307.1251 C140.6784,305.2491 131.9124,301.3421 122.0474,300.7591 C103.3754,299.6551 84.2944,302.2511 66.1754,296.2931 C55.0234,292.6261 42.2254,285.6541 34.4824,276.0081 C17.8434,284.7001 4.4494,293.4421 4.9184,301.6081 C6.2814,325.3971 126.0644,358.4641 155.8164,318.4031 C157.9414,315.5411 159.6434,312.2541 160.9324,308.7481 C157.2574,308.4671 153.5884,307.7771 150.2574,307.1251" id="Fill-13" fill="#527ACC"></path>
            <path d="M61.8956,271.6433 C67.5616,275.0413 73.7476,278.0233 79.8356,280.5723 C93.4066,286.2553 107.8436,286.9593 122.3966,287.0323 C130.4546,287.0733 138.6266,286.5003 146.4736,284.5753 C151.9076,283.2413 157.1686,281.3003 162.4626,279.4863 C161.0416,274.3273 158.6256,269.9903 155.2366,267.3123 C146.8946,260.7203 138.9976,269.1173 112.7876,264.6853 C96.4936,261.9303 92.1556,257.4363 78.8956,258.4543 C72.6156,258.9363 65.9516,260.5413 53.9616,266.3133 C56.6086,268.0893 59.1626,270.0043 61.8956,271.6433" id="Fill-15" fill="#527ACC"></path>
            <path d="M178.2853,283.4767 C170.2003,283.3067 162.4683,283.3507 155.1233,283.5567 C154.0003,284.7647 151.8643,287.4137 151.3023,291.2337 C150.4743,296.8597 153.6383,301.0727 154.5593,302.2137 C157.8233,301.3817 161.8173,300.5747 166.4363,300.2077 C171.1873,299.8307 176.7463,299.8587 183.1563,300.6327 L183.6703,283.6317 C181.8873,283.5737 180.1053,283.5147 178.2853,283.4767" id="Fill-17" fill="#F6C5A2"></path>
            <g id="Group-21" transform="translate(22.000000, 0.144000)" fill="#E0B04F">
                <path d="M8.8879,15.9393 C11.4729,11.3413 14.0869,5.3683 17.9209,1.5623 C17.8599,1.2723 17.7359,1.0553 17.5039,0.9443 C16.0599,0.2503 12.7359,3.8193 11.1409,5.5483 C11.1409,5.5483 6.1309,10.9793 3.2249,20.4073 C2.7369,21.9913 2.1529,24.0533 2.1529,24.0533 C1.8589,25.0913 1.6969,25.7703 1.4419,26.6443 C0.2819,30.6203 0.1019,31.8083 0.7389,32.8733 C1.0229,33.3483 1.3959,33.6803 1.3959,33.6803 C1.4059,33.6883 1.4149,33.6913 1.4239,33.6993 C1.5319,33.4873 1.6579,33.2943 1.7759,33.0933 C3.0779,26.7233 5.6709,21.6623 8.8879,15.9393" id="Fill-19"></path>
            </g>
            <path d="M37.5503,22.3449 C36.1173,11.1159 40.9443,3.0759 39.7873,1.3429 C32.9403,9.1059 27.7723,17.9689 24.4263,27.6859 C24.0903,29.1999 23.7413,30.7109 23.3873,32.2199 C23.3093,32.6729 23.2323,33.1249 23.1543,33.5769 C23.2063,33.6509 23.2843,33.7419 23.3963,33.8239 C23.6663,34.0229 23.9573,34.0359 24.0773,34.0349 C24.5363,33.1299 25.4613,31.6339 27.1723,30.4479 C30.7063,28.0009 34.6873,28.8909 35.4063,29.0649 C35.4803,29.0259 38.9863,32.2909 39.3123,32.1959 C39.7223,32.0749 38.1243,26.8429 37.5503,22.3449" id="Fill-22" fill="#E5B958"></path>
            <path d="M38.7223,227.1326 C39.2683,229.2336 39.6703,231.1476 39.9963,232.8276 C45.6493,233.9066 52.8933,233.0946 58.9873,234.3856 C57.5133,229.0186 56.0063,223.5326 54.4653,217.9226 C52.3853,216.1106 50.4033,215.1126 48.9733,214.5426 C42.8283,212.0956 35.5003,213.0056 34.4373,215.5596 C33.9433,216.7446 34.6523,217.5606 36.2833,220.8206 C37.5313,223.3156 38.2623,225.3626 38.7223,227.1326" id="Fill-24" fill="#F6C5A2"></path>
            <path d="M88.9836,300.8223 C88.4336,300.4473 88.0666,300.2143 87.5566,299.8053 C79.2706,293.1673 76.7676,282.8193 71.6926,267.4493 C70.0526,262.4823 71.1716,266.2443 63.3416,244.0393 C60.5876,236.2273 58.2736,229.5943 56.6846,225.0253 C50.5096,226.0033 44.3966,226.9713 38.3446,227.9303 C48.1606,265.3853 56.0346,290.1353 60.2306,300.7433 C61.6796,304.4063 63.9626,309.5943 68.9326,315.1593 C71.6086,318.1563 74.7326,320.9413 79.4626,324.1473 C88.6786,330.3923 98.7626,334.7523 103.5896,336.7133 C107.9186,336.9723 114.4176,337.0213 122.1506,335.7103 C132.2316,334.0013 139.9986,332.6843 141.9156,327.4413 C143.7606,322.3933 139.5616,315.4063 134.4976,311.9873 C130.1956,309.0823 128.7546,311.1043 114.4846,309.2043 C102.0626,307.5503 95.0066,304.9333 88.9836,300.8223" id="Fill-26" fill="#3D62A3"></path>
            <path d="M77.6899,49.1534 C76.7209,46.7134 75.4439,42.9984 74.6299,38.3204 C73.5719,32.2484 74.1659,29.5654 72.0929,27.9424 C69.2989,25.7544 63.4909,26.9204 61.4839,30.0174 C60.2059,31.9904 61.0879,33.8164 61.0669,37.6894 C61.0409,42.5194 59.7219,46.4674 58.5339,49.1534 L77.6899,49.1534 Z" id="Fill-28" fill="#F6C5A2"></path>
            <path d="M67.8748,18.8628 C70.4598,14.2648 73.0738,8.2918 76.9078,4.4858 C76.8468,4.1958 76.7228,3.9788 76.4908,3.8678 C75.0468,3.1738 71.7228,6.7428 70.1278,8.4718 C70.1278,8.4718 65.1178,13.9028 62.2118,23.3308 C61.7238,24.9148 61.1398,26.9768 61.1398,26.9768 C60.8458,28.0148 60.6838,28.6938 60.4288,29.5678 C59.2688,33.5438 59.0888,34.7318 59.7258,35.7968 C60.0098,36.2718 60.3828,36.6038 60.3828,36.6038 C60.3928,36.6118 60.4018,36.6148 60.4108,36.6228 C60.5188,36.4108 60.6448,36.2178 60.7628,36.0168 C62.0648,29.6468 64.6578,24.5858 67.8748,18.8628" id="Fill-30" fill="#E0B04F"></path>
            <path d="M74.5372,25.1244 C73.1042,13.8954 77.9312,5.8554 76.7742,4.1224 C69.9272,11.8854 64.7592,20.7484 61.4132,30.4654 C61.0772,31.9794 60.7282,33.4904 60.3742,34.9994 C60.2962,35.4524 60.2192,35.9044 60.1412,36.3564 C60.1932,36.4304 60.2712,36.5214 60.3832,36.6034 C60.6532,36.8024 60.9442,36.8154 61.0642,36.8144 C61.5232,35.9094 62.4482,34.4134 64.1592,33.2274 C67.6932,30.7804 71.6742,31.6704 72.3932,31.8444 C72.4672,31.8054 75.9732,35.0704 76.2992,34.9754 C76.7092,34.8544 75.1112,29.6224 74.5372,25.1244" id="Fill-32" fill="#E5B958"></path>
            <path d="M169.8912,282.3498 C168.0772,282.8218 166.6332,281.6058 165.3682,281.1048 C162.9732,280.1558 158.8212,280.8208 151.1162,287.9888 C150.0302,287.1808 138.4492,278.4548 140.3002,274.3228 C140.9882,272.7878 142.9482,273.1858 155.8782,271.8998 C163.8482,271.1068 167.0872,270.5598 170.0522,272.7948 C170.5262,273.1518 173.6392,275.4558 173.1712,278.4478 C172.8982,280.1978 171.5622,281.9148 169.8912,282.3498" id="Fill-34" fill="#3D62A3"></path>
            <path d="M169.3586,304.4307 C167.5446,303.9587 166.1006,305.1747 164.8356,305.6757 C162.4406,306.6247 158.2886,305.9597 150.5836,298.7917 C146.8036,300.5327 133.4666,306.8807 134.4076,310.8107 C134.8056,312.4727 137.3796,312.1387 155.3456,314.8807 C161.7696,315.8617 166.0676,316.5887 169.5196,313.9857 C169.9936,313.6287 173.1066,311.3247 172.6386,308.3327 C172.3656,306.5827 171.0296,304.8657 169.3586,304.4307" id="Fill-36" fill="#3D62A3"></path>
            <path d="M169.1228,283.4768 C148.2038,282.5018 127.2838,281.5278 106.3648,280.5528 C103.2478,282.6998 99.9358,282.6408 98.9478,281.3768 C97.9028,280.0408 98.7468,276.4508 102.2438,273.9608 C100.7328,272.3128 99.2228,270.6638 97.7118,269.0158 C99.6588,268.5658 101.5728,267.8248 101.8318,266.5438 C102.1738,264.8538 99.4018,263.3858 99.7718,262.4238 C100.0528,261.6928 102.0788,261.4208 108.4648,262.6548 C117.4628,265.5598 128.8548,268.4018 142.2108,269.8398 C154.3558,271.1478 165.1158,270.9698 173.9378,270.2518 C179.8318,273.9698 181.8638,274.7738 182.1788,274.3728 C182.7018,273.7038 178.7908,269.2738 178.0418,269.7238 C177.7718,269.8858 177.9118,270.6828 178.2858,271.8178 L178.2858,274.3138 C178.2858,279.3538 174.1618,283.4768 169.1228,283.4768" id="Fill-38" fill="#BF3E37"></path>
            <path d="M193.1936,276.4806 C193.6916,278.8126 194.1826,282.3086 193.7676,286.4836 C193.4646,289.5316 192.1936,302.3156 182.4076,307.8806 C172.3916,313.5746 157.0936,309.6406 151.9456,299.9146 C149.7186,295.7056 149.1366,289.9076 151.0116,284.9656 C154.0836,276.8656 163.3466,272.8986 162.2226,270.6406 C161.6626,269.5146 159.1996,270.1796 155.5766,267.7126 C154.7636,267.1586 154.1446,266.6186 153.7306,266.2296 C153.7306,266.2296 152.6856,265.5566 151.6146,265.1716 C149.3606,264.3606 136.5166,271.6496 133.8926,284.8656 C131.8096,295.3556 137.2116,304.1436 140.3656,309.1386 C144.5576,315.7776 149.4676,324.4766 157.3576,325.3216 C162.7796,325.9016 164.5976,322.2996 180.6876,313.9006 C190.3746,308.8426 190.9046,309.5286 194.8776,307.0206 C201.2526,302.9956 209.1446,295.3866 214.8206,279.5766 C207.5216,279.0406 200.0356,277.8016 193.1936,276.4806" id="Fill-40" fill="#D1493B"></path>
            <path d="M164.2157,295.8128 C163.8597,296.3888 163.7717,298.3208 163.2167,298.3508 C162.8357,298.3708 162.4827,297.5138 162.2647,296.8758 C162.0297,297.4338 161.7427,298.2708 161.6427,299.3158 C161.5757,300.0138 161.6187,300.5268 161.6687,301.1478 C161.7387,302.0198 161.8387,303.2908 161.9687,305.0518 C161.9207,306.5048 161.9647,308.5848 162.4207,311.0298 C162.7537,312.8168 163.2147,314.1588 163.6257,315.3078 C166.1037,322.2328 167.3427,325.6948 168.9677,326.1178 C171.8737,326.8738 172.6977,320.6848 178.7917,317.7028 C186.8207,313.7748 197.8567,318.4688 207.1287,316.6088 C208.0577,316.4228 208.8647,316.1948 209.4167,316.0328 C212.3387,315.1778 215.8137,313.7128 218.0237,311.2728 C218.2827,310.9868 218.8997,310.2868 218.8137,309.4478 C218.7057,308.3858 217.5217,307.5948 216.1687,306.9888 C204.5997,301.8088 170.0847,286.3088 164.2157,295.8128" id="Fill-42" fill="#56373F"></path>
            <path d="M204.7051,268.1568 C202.8881,267.5038 195.5001,265.8938 187.3731,269.0128 C172.3001,274.7978 162.7921,294.1988 167.9551,302.8918 C169.3121,305.1758 171.5661,306.2848 176.0751,308.5038 C183.7261,312.2688 190.5481,312.8908 195.7261,313.2898 C200.6241,313.6678 207.6651,313.7108 216.0261,312.0298 C217.8331,310.6678 222.3761,306.8628 224.3821,300.2328 C227.0301,291.4788 223.2661,284.2108 222.2761,282.1208 C219.6711,276.6198 214.3441,271.6228 204.7051,268.1568" id="Fill-44" fill="#F4BE9A"></path>
            <path d="M216.0012,312.0528 C216.7162,311.5148 217.8622,310.5888 219.1072,309.2638 C217.5122,309.5108 215.9042,309.6798 214.2892,309.7838 C211.9702,309.9318 210.2392,309.9128 209.4242,309.9038 C198.7352,309.7768 198.7432,310.3768 197.7832,309.8238 C191.4862,306.1968 200.0372,285.4908 194.1462,282.3048 C192.3942,281.3568 189.4652,282.5638 187.1352,283.4858 C184.4122,284.5638 183.9672,285.5308 180.9702,287.0878 C178.1292,288.5648 173.3392,290.3928 172.6232,289.3698 C171.4222,287.6558 182.3012,278.9318 181.3752,277.6218 C181.0272,277.1288 178.6862,277.9028 172.1202,281.5498 C171.4862,282.4518 163.1632,294.7948 167.9412,302.8588 C169.2952,305.1458 171.5482,306.2568 176.0542,308.4808 C183.7012,312.2548 190.5222,312.8848 195.7002,313.2898 C200.5972,313.6728 207.6382,313.7248 216.0012,312.0528" id="Fill-46" fill="#F6C5A2"></path>
            <path d="M201.2423,284.992 C201.9313,279.117 202.6493,276.386 201.0153,275.088 C197.8993,272.613 189.5463,277.408 184.8423,281.613 C179.6683,286.238 176.8623,291.973 176.3743,292.991 C173.9903,297.968 173.3883,302.166 172.3763,302.054 C171.5803,301.966 171.1073,299.274 171.1813,297.193 C171.2603,294.97 171.9663,293.35 172.6063,291.919 C176.3463,283.561 176.9683,282.675 176.5323,282.099 C175.0763,280.173 165.7853,287.473 162.3563,284.317 C160.3043,282.429 160.9123,278.38 161.4733,274.644 C162.1353,270.239 162.4043,266.721 165.0543,264.535 C165.7203,263.986 167.2053,262.96 173.9123,262.776 C180.3673,262.599 181.3393,263.485 188.8803,263.759 C194.4963,263.963 195.9523,263.544 200.8493,264.186 C202.9873,264.466 205.1393,264.757 207.9063,265.584 C210.6303,266.398 214.7573,267.647 218.8033,271.013 C221.6163,273.353 223.4103,275.827 224.4813,277.563 C225.6683,279.91 227.9663,285.26 227.4233,292.268 C226.7543,300.893 222.2133,306.471 220.7653,308.198 C218.8813,310.446 216.1513,313.619 211.5173,314.982 C210.0473,315.414 205.0783,316.59 202.0333,314.086 C200.6293,312.932 198.3193,309.903 201.2423,284.992" id="Fill-48" fill="#56373F"></path>
        </g>
    </g>
</svg>