<?xml version="1.0" encoding="UTF-8"?>
<svg width="128px" height="192px" viewBox="0 0 128 192" version="1.1" xmlns="http://www.w3.org/2000/svg" xmlns:xlink="http://www.w3.org/1999/xlink">
    <!-- Generator: Sketch 46.2 (44496) - http://www.bohemiancoding.com/sketch -->
    <title>rightZag</title>
    <desc>Created with Sketch.</desc>
    <defs></defs>
    <g id="Page-1" stroke="none" stroke-width="1" fill="none" fill-rule="evenodd">
        <g id="rightZag">
            <polygon id="Combined-Shape" fill="#D8D8D8" transform="translate(64.000000, 96.000000) scale(-1, 1) translate(-64.000000, -96.000000) " points="64 64 64 0 128 0 128 128 64 128 64 192 0 192 0 64"></polygon>
            <g transform="translate(3.000000, 1.000000)">
                <path d="M56.1816618,63.4848488 C54.515512,61.2107871 52.0939588,57.6233216 49.7761543,52.9019096 C45.8292132,44.8616574 46.3698286,42.0615612 42.7818023,37.2296708 C38.1725512,31.0232489 30.8680743,27.0078896 28.9030158,28.5551489 C27.8924464,29.3514911 28.8547867,31.1774701 28.9372249,36.1041365 C29.0219064,41.1244571 27.9120745,44.550411 27.919365,45.7656741 C28.0393771,65.4011174 41.4521351,79.4044024 46.5038609,84.1807732 C52.5678385,85.594561 97.3385334,95.6867963 106.398889,81.0324175 C106.882863,80.2500954 108.287117,78.1975514 107.647239,76.2481954 C106.426929,72.5311841 98.6827815,71.7208218 91.8286306,71.0041138 C85.1802948,70.3087164 85.0412153,71.1207611 81.2456914,70.1685153 C75.3707048,68.6947214 74.1705835,66.3634576 68.713957,64.5986063 C66.0125624,63.7248731 61.8547588,62.8567479 56.1816618,63.4848488" id="Fill-1" fill="#7C302E"></path>
                <path d="M109.689633,97.8223394 C109.426055,97.3686486 109.17874,96.9525318 108.936472,96.5515567 L84.0984471,96.5515567 C87.4144833,99.6612169 90.3923545,102.299241 92.9187782,104.462824 C93.3534015,104.938947 93.9843065,105.758282 94.3134986,106.908492 C94.7913039,108.574641 94.3729439,110.019834 94.2220875,110.542504 C90.846606,122.209478 81.0678603,135.570081 81.0678603,135.570081 C73.2143559,146.299951 68.386952,159.520353 69.7996182,161.364839 C70.9245917,162.834146 76.7676124,158.06787 81.779521,154.065409 C85.4841947,151.107727 86.9271443,149.553177 102.409831,132.532204 C104.413024,130.329364 108.510822,125.960138 111.680488,118.350022 C113.822761,113.206325 114.183919,109.770276 113.560304,106.451997 C113.200829,104.535168 112.514404,102.688439 109.689633,97.8223394" id="Fill-3" fill="#6D5866"></path>
                <path d="M109.689633,97.8223394 C109.426055,97.3686486 109.17874,96.9525318 108.936472,96.5515567 L103.770343,96.5515567 C103.947557,96.8555126 104.126453,97.158347 104.296938,97.4701542 C108.681867,105.489657 107.521563,112.770019 104.338998,119.290491 C99.3999942,129.409085 91.483119,135.760755 85.5643897,144.656794 C85.3069805,145.043749 85.0349904,143.901391 85.2234206,143.618185 C91.9900861,133.447998 102.219158,126.320735 106.122917,112.913585 C107.830005,107.050936 105.959723,101.481027 102.928014,96.5515567 L98.732637,96.5515567 C99.0018231,97.0203891 99.2620363,97.4976336 99.5026214,97.9939455 C102.860718,104.932217 100.869862,112.139675 98.3540941,117.443763 C93.9882321,126.649366 86.5272908,132.052155 82.3392038,141.471986 C82.0991795,142.010919 81.7604537,140.946513 81.9118709,140.606104 C86.3999882,130.511626 94.7043793,124.957419 98.8307778,114.492249 C100.361774,110.610361 101.685272,105.796977 100.046041,100.818156 C99.5334657,99.262485 98.7926431,97.8526228 97.9379772,96.5515567 L94.902904,96.5515567 C96.1316264,98.1279778 97.1354662,99.9741457 97.7276756,102.155675 C98.7404883,105.88951 97.9020858,109.262188 96.6043845,112.054433 C91.7394066,122.521846 85.2694066,131.425176 79.2637526,140.58928 C79.0091475,140.978479 78.7360357,139.83612 78.9227836,139.551231 C82.6291396,133.89608 86.4426093,128.367671 89.9582919,122.482029 C91.5498547,119.816526 93.0034596,117.009139 94.5372596,114.281387 C95.6414834,112.318011 96.8135645,110.306966 97.3782945,107.850643 C98.4617685,103.138204 96.7692609,99.5030701 93.9837456,96.5515567 L84.0984471,96.5515567 C87.4144833,99.6612169 90.3923545,102.299241 92.9187782,104.462824 C93.3534015,104.938947 93.9843065,105.758282 94.3134986,106.908492 C94.7913039,108.574641 94.3729439,110.019834 94.2220875,110.542504 C90.846606,122.209478 81.0678603,135.570081 81.0678603,135.570081 C73.2143559,146.299951 68.386952,159.520353 69.7996182,161.364839 C70.9245917,162.834146 76.7676124,158.06787 81.779521,154.065409 C85.4841947,151.107727 86.9271443,149.553177 102.409831,132.532204 C104.413024,130.329364 108.510822,125.960138 111.680488,118.350022 C113.822761,113.206325 114.183919,109.770276 113.560304,106.451997 C113.200829,104.535168 112.514404,102.688439 109.689633,97.8223394" id="Fill-5" fill="#634D5D"></path>
                <path d="M80.7321628,135.456911 C81.2430556,137.218397 81.9064871,138.373094 82.4482242,139.12345 C83.3242006,140.335348 83.733027,140.284315 84.7968728,141.69642 C85.9706364,143.253774 85.9240896,143.913841 86.8247414,144.972639 C87.3967619,145.645605 88.342278,146.467744 89.8979494,146.837875 C84.5618958,152.552471 79.2252815,158.267068 73.8892279,163.981664 C73.8892279,163.981664 76.3825641,178.785778 76.3461118,180.250599 C76.3449902,180.290416 76.3393822,180.322382 76.3175108,180.3493 C75.7410039,181.060961 67.8992765,170.983307 61.0569024,161.937532 L80.7321628,135.456911 Z" id="Fill-7" fill="#BF3E37"></path>
                <path d="M88.6672642,148.155933 C89.077773,147.716823 89.487721,147.277153 89.8982298,146.838043 C88.3419976,146.467912 87.3970423,145.645773 86.824461,144.972808 C85.9238092,143.914009 85.9709168,143.253942 84.7971532,141.696589 C83.7327466,140.284483 83.3239202,140.335516 82.4485046,139.123618 C81.9062067,138.373262 81.2427752,137.218566 80.7324432,135.457079 L79.5816726,137.004899 C81.9959354,141.5648 85.1426087,145.363688 88.6672642,148.155933" id="Fill-9" fill="#D1493B"></path>
                <path d="M76.3442612,180.131821 C76.3156602,179.313607 75.8956177,176.441728 75.4110827,173.338797 C74.4504248,173.078023 73.4880846,172.858188 72.5251835,172.598535 C72.3698407,172.556475 72.3216115,172.145966 72.414705,172.046143 C73.1695477,171.232977 74.0158015,170.650862 74.902994,170.142773 C74.8334542,169.712075 74.7655969,169.290911 74.6988612,168.880963 C73.7297912,168.485035 72.747262,168.185005 71.7882865,167.672991 C71.6351869,167.591113 71.6391126,167.185091 71.7394965,167.1077 C72.5044337,166.525585 73.3562955,166.25696 74.2446096,166.115076 C74.1150638,165.331072 74.011315,164.7097 73.9501874,164.34686 C73.3310593,163.961027 72.7046409,163.598747 72.0759792,163.242075 C71.9172715,163.151786 71.9150283,162.699217 72.0602766,162.670055 C73.1476763,162.451902 74.2642378,162.404234 75.3852857,162.379558 C75.8877664,161.841186 76.3902472,161.303375 76.8927279,160.765563 C75.4895953,159.721346 73.951309,159.214939 72.3978809,158.82518 C72.2257139,158.781998 72.1943089,158.32326 72.3148818,158.24643 C74.6517536,156.759738 77.3912829,156.784413 80.1526836,157.274556 C80.4403763,156.966114 80.7275081,156.658232 81.0152008,156.350351 C79.5907577,154.584378 77.9868572,153.081983 76.6381227,151.191511 C76.5573669,151.077668 76.4822191,150.627342 76.6549468,150.652017 C79.1269725,151.005324 81.5687147,152.010846 84.0003624,153.153766 C84.0771926,153.071327 84.1540228,152.988889 84.230853,152.907012 C82.7895858,151.489298 81.1761516,150.438912 79.8100322,148.833329 C79.7163778,148.72285 79.6631014,148.273085 79.8268563,148.294396 C82.1126949,148.586575 84.5908894,148.852396 86.876728,150.073267 C87.2704127,149.652103 87.6640973,149.230378 88.057782,148.808653 C84.6021055,145.942382 81.5260935,142.116575 79.1651072,137.566208 L61.2883464,161.626959 L76.3442612,180.131821 Z" id="Fill-11" fill="#D1493B"></path>
                <path d="M104.784894,100.780975 C98.460703,99.737318 96.1838373,99.9947272 88.1570444,99.015002 C84.4748029,98.5652369 85.2184295,98.5214942 79.1095875,97.6410313 C71.3660008,96.5250306 66.0921966,95.7645799 60.5256524,95.4824953 C52.4668937,95.0742297 49.4346245,95.9603006 42.6550605,96.2266827 C21.06241,97.0757405 13.0625357,89.2368171 7.18362353,92.9039168 C0.555476725,97.0381666 1.9776766,112.4558 12.1125331,120.133212 C20.4085121,126.417586 33.0322184,125.813599 57.9151081,124.09866 C72.2374908,123.111083 84.0699021,121.420819 92.4612179,119.995254 C93.2009188,119.954315 94.3572974,119.98572 95.4289946,120.510633 C96.9824227,121.271645 97.5050923,122.652906 97.6935226,123.152583 C101.908528,134.302495 100.872723,152.19608 100.872723,152.19608 C100.040489,166.566131 103.822554,180.0703 106.419078,180.14657 C108.486763,180.207137 111.190401,171.783855 113.565969,164.619018 C115.321286,159.323343 115.744694,156.976937 120.062887,131.560162 C120.622009,128.271605 121.852975,121.640093 120.062887,113.528619 C118.853232,108.045635 116.984071,105.310031 114.21538,103.510971 C112.616527,102.4718 110.738954,101.764065 104.784894,100.780975" id="Fill-13" fill="#6D5866"></path>
                <path d="M122.469243,104.759714 C119.177882,100.054004 113.9338,98.1938162 113.9338,98.1938162 C113.156525,97.9184612 110.940787,97.1546457 108.024605,97.2090437 C106.390981,97.239888 105.447148,97.5096349 103.756883,97.8657456 C95.5775517,99.5885366 89.5803098,99.1830751 88.1569883,99.0148338 C87.0449132,98.8836056 85.8532039,98.704709 85.8532039,98.704709 C84.3524915,98.4747792 83.5034337,98.274572 79.1095314,97.6408631 C71.035631,96.477194 68.495748,96.6639419 60.5255964,95.4823271 C56.9824344,94.9574142 57.0054273,94.8676855 54.5833133,94.573824 C49.7458148,93.9866618 46.2048961,93.5570857 42.0252211,93.9305814 C36.4082046,94.4325013 35.65897,95.8462891 30.8882072,95.8148841 C27.5368403,95.7930127 24.8107703,95.0751831 23.0509662,94.4824129 C28.0157672,100.250847 38.565619,102.341525 46.7342954,103.46033 C55.0745779,104.603249 63.9027602,105.273411 72.3748318,105.142743 C81.240588,105.006468 90.4501173,103.504073 99.2104423,105.205553 C108.755333,107.059572 112.32317,113.198137 113.393746,120.553086 C115.054848,131.967138 111.322695,143.30548 111.220068,154.705511 C111.215581,155.201823 110.205573,154.632046 110.208938,154.269206 C110.326146,141.23499 115.848386,127.34667 111.029955,114.511541 C107.67298,105.570637 95.7990694,105.018245 85.9967699,105.387815 C77.3973957,105.71196 69.0958087,106.025449 60.4936305,105.52409 C48.4671809,104.822524 29.0212895,103.572491 21.8856147,94.21547 C14.7566696,92.5347393 10.6072781,90.7682056 7.18356745,92.9037486 C4.5309628,94.5581215 3.1704514,98.0210884 3.13960716,102.070657 C13.3922326,107.212672 25.0743483,110.246624 37.0637849,111.531987 C48.6393478,112.771926 60.5020426,112.519564 72.0142346,110.981838 C79.254219,110.014451 87.5159889,107.886198 94.7963512,109.729562 C102.622376,111.710884 105.319845,118.517366 106.263118,124.437217 C107.900667,134.710592 104.00532,144.985089 105.95804,155.25566 C106.070201,155.843383 105.043929,155.386889 104.973268,155.015636 C102.880907,144.00929 107.514273,132.897512 104.822972,121.94332 C103.825301,117.879732 102.017268,113.33946 97.1651888,111.249903 C93.7454038,109.77723 89.6683561,109.780595 85.9019939,110.062119 C76.6010535,110.758638 67.5979002,112.671542 58.216204,113.034382 C39.1241801,113.77184 19.4803248,110.942021 3.14689762,102.805871 C3.28205147,107.112288 4.87585748,111.981752 7.98159206,116.018422 C12.9895751,117.964413 18.6256589,119.061907 24.1467779,119.652995 C33.9956242,120.706186 44.0401912,120.38148 53.8957671,119.557659 C58.5386665,119.169582 63.4614072,118.904882 67.9500854,117.824212 C73.3624083,116.520342 78.3866546,114.318063 83.8875846,113.225616 C87.9001399,112.429274 92.1274832,112.353566 95.7334553,114.201416 C99.1577267,115.956734 100.51263,119.060786 101.0353,122.153622 C102.995872,133.749374 102.352068,145.632818 102.337487,157.29811 C102.336927,157.7933 101.325796,157.224084 101.326357,156.861243 C101.33533,149.663319 101.533855,142.460348 101.204663,135.264667 C101.055489,132.006394 100.676385,128.767188 100.42907,125.515083 C100.251295,123.174286 100.109973,120.740395 99.0780925,118.51961 C94.0846904,107.770672 76.043614,117.122646 67.5311645,118.897592 C59.2110709,120.63216 49.8114289,120.929386 41.2625272,121.105479 C30.968963,121.317463 18.8275485,120.758901 8.95178362,117.186578 C9.89169173,118.251545 10.9409567,119.245851 12.112477,120.133605 C20.408456,126.417978 33.0321623,125.813992 57.915052,124.098491 C72.2374347,123.111476 84.0698461,121.420651 92.4617226,119.995086 C93.2008628,119.954708 94.3572414,119.985552 95.4289385,120.510465 C96.9823666,121.271477 97.5050363,122.653299 97.6934665,123.152415 C101.908472,134.302327 100.872666,152.195912 100.872666,152.195912 C100.040433,166.565963 103.822497,180.070132 106.419022,180.146401 C108.486707,180.206968 111.190906,171.783687 113.565913,164.61885 C113.910246,163.580801 114.202986,162.655474 114.48451,161.647709 C117.378261,151.277875 118.623807,140.625957 120.063392,131.560554 C122.935271,113.470127 125.759482,109.46318 122.469243,104.759714" id="Fill-15" fill="#634D5D"></path>
                <g id="Group-19" transform="translate(97.579960, 152.096313)" fill="#BF3E37">
                    <path d="M2.88674048,0.310741699 C4.53494451,1.10988792 5.94088105,1.34935139 6.96490983,1.40879665 C8.6181611,1.5046942 8.9905352,1.11437436 10.9606409,1.18727892 C13.1337579,1.26859556 13.5151048,1.7744411 15.0943299,1.74023203 C16.0976089,1.71892146 17.568038,1.479458 19.3502743,0.392058332 C17.7631979,9.0452697 16.1766823,17.6984811 14.589606,26.3511316 C14.589606,26.3511316 26.6564335,34.6280433 27.569423,35.69245 C27.5940984,35.721051 27.6092402,35.7490912 27.6053145,35.7872259 C27.4942753,36.7882617 13.1887167,36.4781369 0.542578224,36.0294934 L2.88674048,0.310741699 Z" id="Fill-17"></path>
                </g>
                <path d="M116.564197,154.484274 C116.685892,153.81916 116.808147,153.153485 116.930402,152.488371 C115.148166,153.575771 113.677737,153.815234 112.674458,153.836545 C111.095233,153.870754 110.713325,153.364909 108.540769,153.283592 C106.570663,153.210687 106.198289,153.601007 104.544477,153.50511 C103.521009,153.445664 102.115072,153.206201 100.466868,152.407055 L100.329471,154.49549 C105.678423,155.61822 111.260109,155.569991 116.564197,154.484274" id="Fill-20" fill="#D1493B"></path>
                <path d="M125.07059,187.706493 C124.512029,187.154661 122.234041,185.493559 119.742387,183.725904 C118.62134,184.374754 117.524967,185.053888 116.401676,185.704982 C116.220536,185.809853 115.907046,185.561977 115.933965,185.411121 C116.156044,184.18352 116.617025,183.04004 117.167735,181.912823 C116.819475,181.669434 116.479067,181.431653 116.147071,181.200601 C114.930125,181.760845 113.761409,182.400723 112.478849,182.870677 C112.274156,182.945264 112.014503,182.655889 112.064415,182.514005 C112.445762,181.440626 113.115923,180.513616 113.904414,179.643809 C113.267901,179.203016 112.762616,178.855318 112.467072,178.651746 C111.602873,178.916445 110.747085,179.204138 109.89242,179.497439 C109.67651,179.571465 109.380966,179.25405 109.506025,179.10768 C110.442569,178.011868 111.519313,177.010271 112.614564,176.021573 C112.763738,175.206724 112.913473,174.391876 113.062647,173.577588 C110.994961,174.057636 109.141503,175.032875 107.348611,176.104011 C107.150086,176.222902 106.821455,175.926797 106.891555,175.76809 C108.244216,172.694882 110.977015,170.338382 114.032277,168.291446 C114.11752,167.824857 114.203323,167.358828 114.288565,166.892239 C111.731858,166.881584 109.16786,167.212458 106.605545,167.048143 C106.451324,167.038048 106.085119,166.785686 106.272988,166.653336 C108.951951,164.760061 112.024598,163.353563 115.176318,162.051376 C115.199311,161.926877 115.222304,161.802378 115.244736,161.67788 C112.89777,161.927438 110.616979,162.585261 108.221783,162.636855 C108.057468,162.64022 107.713134,162.369352 107.889226,162.242049 C110.344428,160.467664 112.97404,158.507653 116.031545,157.387726 C116.148753,156.749531 116.265961,156.110775 116.383169,155.47258 C111.099271,156.446136 105.5703,156.41417 100.280233,155.252183 L98.1502978,187.706493 L125.07059,187.706493 Z" id="Fill-22" fill="#D1493B"></path>
                <path d="M38.5139689,104.275627 L38.5139689,97.7226284 C39.9658914,97.9794768 42.0117057,98.0742527 43.5987821,96.9262862 C45.6434748,95.4480058 46.1925023,92.4381688 45.6872175,85.9608784 C44.6889858,73.1509851 41.4907185,71.4382885 40.987677,60.8968488 C40.8794417,58.6188615 40.8710296,55.4374183 39.9434592,50.9756588 C39.7847516,50.2124041 39.118516,47.099379 37.6553774,43.1260801 C36.8506231,40.9395039 35.979694,38.4876672 34.2479301,35.5804573 C32.4898084,32.6283832 30.8674014,29.9034347 27.6764245,27.5486172 C25.6149077,26.027155 23.2858871,24.0716301 20.7959158,24.6660828 C18.97218,25.101267 17.8976788,26.6765664 17.3671579,27.4790775 C7.28165213,42.7447331 4.70756009,51.6211446 4.70756009,51.6211446 C3.33190698,56.3649888 1.89007896,61.6730021 1.29674794,69.0823494 C0.790902398,75.3958849 0.291225707,85.6014028 5.19545989,96.6531744 C7.01919569,100.762188 11.0154876,107.696534 20.3556843,114.081292 C21.4442056,113.352246 22.8647231,112.444865 24.5454537,111.427565 C26.012518,110.539251 27.5558516,109.658228 29.1889139,108.820386 C32.2699731,107.239478 35.4329097,105.778022 38.5139689,104.275627" id="Fill-24" fill="#933C37"></path>
                <polygon id="Fill-26" fill="#B24D42" points="64.516112 91.0533185 64.516112 100.728315 110.311957 109.613139 110.311957 104.155391 113.954942 100.333509 110.311957 93.9952982 113.954942 89.8447851"></polygon>
                <polygon id="Fill-28" fill="#9E433C" points="64.516112 91.0533185 64.516112 89.5671869 107.684028 88.9054378 107.684028 91.0533185"></polygon>
                <polygon id="Fill-30" fill="#7C302E" points="61.3294533 93.9954104 61.3294533 95.851112 64.5159437 95.851112 64.5159437 93.9954104"></polygon>
                <polygon id="Fill-32" fill="#E5B958" points="109.219735 90.6121898 110.069353 88.4637483 105.070343 89.3890755 104.905467 90.6121898"></polygon>
                <path d="M27.6096327,34.4183585 C27.6096327,34.4183585 19.0427852,29.0923995 20.1178472,26.4913888 C21.1929092,23.8903782 28.7256334,16.1064136 28.7256334,16.1064136 L29.5191716,21.4783586 L35.2231128,27.6657132 L27.6096327,34.4183585 Z" id="Fill-34" fill="#F6C5A2"></path>
                <path d="M29.5190594,21.4782464 L28.7260821,16.1063014 C28.7260821,16.1063014 25.0236516,19.9321088 22.4400259,23.116356 C22.5645245,23.5790196 22.6295778,24.0697234 22.7574412,24.5250965 C23.5958437,27.5141838 25.7930752,28.3598768 28.5387734,28.9318973 C28.8287093,28.9924641 29.2117386,29.4472765 29.0434973,29.752354 C28.3598768,30.9900493 27.6745739,32.2277445 26.9915141,33.4665614 C27.052081,33.6000328 27.0711484,33.7363083 27.0088991,33.834449 C26.9797373,33.880435 26.9556227,33.9297858 26.9270216,33.9763325 C27.3481857,34.2556131 27.6095206,34.4182464 27.6095206,34.4182464 L35.2230006,27.665601 L29.5190594,21.4782464 Z" id="Fill-36" fill="#F4BE9A"></path>
                <path d="M97.4632563,77.5009763 C99.7165683,74.5225443 103.783522,74.7406972 104.161504,74.7625686 C109.057887,75.0468964 117.251799,84.6658129 115.089338,88.3127237 C114.203827,89.8050241 111.590479,90.2845118 109.844134,89.6238843 C107.859448,88.8729672 108.124147,87.0783932 106.205075,85.3685007 C102.597981,82.1539701 97.4245608,84.7998451 96.1520957,82.3093129 C95.2020931,80.4496856 97.1733205,77.8840057 97.4632563,77.5009763" id="Fill-38" fill="#F6C5A2"></path>
                <path d="M41.8872072,25.7314428 L49.1866368,27.1721492 C49.8870814,24.6423607 49.9128784,22.4855071 50.0065328,19.6405466 C50.0900926,17.0726234 50.2628204,13.2793427 50.6621131,8.50241108 C42.1748998,4.47022768 33.8766776,4.14944759 29.4020196,7.33818121 C28.3022822,8.12218572 25.447788,10.1562232 24.5196567,13.6887299 C24.2482274,14.7206099 23.5685325,16.3654491 24.3542195,17.4769634 C25.0731707,18.4931409 26.2553463,18.0719768 27.144782,18.8447652 C28.9415992,20.4049229 26.373676,24.0759483 27.1094513,27.2074799 C28.0616971,31.2587307 34.572075,34.5506523 40.0926332,34.8243248 L41.8872072,25.7314428 Z" id="Fill-40" fill="#F6C5A2"></path>
                <path d="M47.3950912,19.2496099 C47.7399858,20.4301031 47.429861,22.353662 47.3334027,23.5672427 C47.2487212,24.629967 47.086088,25.6775495 46.9099954,26.7228889 L49.1868611,27.1720932 C49.8873058,24.6423047 49.9131028,22.4854511 50.0061963,19.6404905 C50.0903169,17.0725673 50.2630447,13.2798474 50.6623374,8.502355 C42.1751241,4.4701716 33.8763411,4.14939151 29.4016831,7.33812513 C28.624969,7.89219985 26.9728394,9.07437545 25.7424346,10.9654078 C26.0430257,10.9822319 26.3424953,10.9614821 26.6397216,10.9048409 C27.0547168,10.1169108 27.7282428,9.73948943 28.7489068,10.1623359 C29.5160872,10.480312 29.4858037,10.9530701 29.7706923,11.6131368 C30.3197198,12.8856019 30.7644377,12.8390552 32.1501853,12.7409144 C33.0037295,12.6803475 33.7013701,12.6281927 34.5324822,12.8558793 C35.4286476,13.1009508 36.2210642,13.5910938 37.0774124,13.9326237 C38.3796002,14.4530501 39.6845919,14.485016 41.0551978,14.6229739 C42.7056451,14.7884111 44.010076,15.3968839 45.1507521,16.6026133 C45.8063324,17.2957675 47.1141282,18.286148 47.3950912,19.2496099" id="Fill-42" fill="#F4BE9A"></path>
                <path d="M50.3057219,7.06882688 C52.4822037,6.70486484 53.2454584,3.39107184 53.6587712,3.53856339 C54.3093043,3.7712972 53.8645864,12.5114333 49.7409919,14.094584 C48.8246376,14.4467691 47.6127393,14.4506947 36.1695262,9.30138906 C32.8759222,7.81974392 30.9119853,7.01723287 29.6529795,7.81581829 C28.0602951,8.82638776 29.5851222,12.1020461 27.6318406,13.6678119 C26.8859708,14.2656293 25.6264042,14.6576316 24.9326892,14.1859951 C22.8627602,12.7794977 24.3578647,3.02879222 29.9109495,0.568543467 C31.9040482,-0.314162606 33.8438705,-0.00067296524 36.244674,0.387403656 C41.0687132,1.16748253 44.97079,3.8346681 45.4872908,4.1947045 C48.0507275,5.98198801 48.8414617,7.31389838 50.3057219,7.06882688" id="Fill-44" fill="#2D1E23"></path>
                <path d="M30.6749894,5.98770822 C35.1760052,5.11733984 39.2020198,8.1944734 42.8837004,10.2716928 C45.5598589,11.7813781 48.7856056,13.1996524 51.5066284,12.7751235 C52.4762591,11.6198665 53.1009952,9.98287852 53.4677612,8.40365343 C52.6831959,9.58919386 51.5526143,10.4780688 50.1214416,10.7399644 C45.7595052,11.5374282 42.0357642,5.80039956 38.8823613,3.73103145 C33.1425286,-0.0358914794 27.8670419,2.79168414 24.6003565,7.64824995 C24.1533954,9.21121172 23.9812285,10.741086 24.0692748,11.9462546 C25.4135228,8.94090401 27.471114,6.60739704 30.6749894,5.98770822" id="Fill-46" fill="#56373F"></path>
                <path d="M34.1456394,6.91342799 C29.0361508,5.98810078 26.1440827,9.24076611 24.46896,13.624013 C24.5962626,13.8685237 24.7493622,14.0620012 24.9327452,14.1864998 C25.6264602,14.6581363 26.8860268,14.2655732 27.6318967,13.6677558 C29.5851783,12.10199 28.0603512,8.82689248 29.6530356,7.81632302 C30.9120414,7.01717679 32.8759783,7.81968784 36.1695823,9.30189378 C47.6127954,14.4511995 48.8246937,14.446713 49.741048,14.0945279 C49.9177014,14.0266706 50.0848211,13.9414283 50.2485759,13.8488956 C44.9932782,13.3239827 38.389246,7.68172997 34.1456394,6.91342799" id="Fill-48" fill="#56373F"></path>
                <path d="M45.4358089,4.52815877 C46.295522,5.50059355 47.3655368,6.30815183 48.4563013,6.49994693 C47.7244516,5.97615565 46.8608128,5.15233403 45.487403,4.19504098 C45.364026,4.10867711 45.0426851,3.8888418 44.567123,3.59722353 C44.8626669,3.90061869 45.1542852,4.20962189 45.4358089,4.52815877" id="Fill-50" fill="#56373F"></path>
                <path d="M53.6585469,3.53861947 C53.3209427,3.41804653 52.7489222,5.60630517 51.3642962,6.61014498 C51.0687523,6.88269591 50.7300265,7.11094328 50.3380242,7.27694138 C48.2237918,8.17422836 46.6563436,6.81427777 45.3390141,5.32141655 C44.4950035,4.36524511 43.5337849,3.36420931 42.4828375,2.44897659 C40.8391199,1.63973589 38.6575909,0.777779576 36.2450105,0.387459737 C34.8575805,0.16313799 33.6260541,-0.0280962987 32.4472433,0.0134032244 C31.5667805,0.483357283 30.7435197,1.10641093 29.9769001,1.79451789 C30.453023,1.62010773 30.9442876,1.47822423 31.4501332,1.37335381 C36.0621883,0.412695933 39.4556155,3.21783937 42.6645381,6.0723336 C44.4187342,7.63305215 46.7673828,10.0489974 49.3252116,9.89085053 C51.6884412,9.74504139 53.4443196,7.3184409 53.9013752,4.83071273 C53.8963279,4.08484292 53.8060384,3.59133508 53.6585469,3.53861947" id="Fill-52" fill="#56373F"></path>
                <path d="M32.5884539,0.642457482 C32.4404015,0.685078614 32.2912276,0.718726876 32.1420536,0.75013192 C32.1213038,0.673862526 32.0478385,0.608248416 31.9620354,0.646943917 C31.8448273,0.700220332 31.7304232,0.747327898 31.6137759,0.7989219 C31.6160191,0.779293747 31.624992,0.760787203 31.6188231,0.741719855 C31.6569578,0.730503767 31.6939709,0.718726876 31.7326664,0.708071593 C31.7876252,0.692929875 31.8195911,0.657038396 31.8352936,0.614978068 C31.8380976,0.614978068 31.8403409,0.614417264 31.8431449,0.613856459 C31.8554826,0.612734851 31.8616514,0.602079568 31.8723067,0.598714741 C31.9670826,0.588620263 32.0612978,0.578525784 32.1560737,0.567309697 C32.3753482,0.5420735 32.3433824,0.247090404 32.1336415,0.233631099 C31.7898685,0.212320533 31.4449738,0.260549709 31.1040047,0.345791972 C30.6396587,0.40972367 30.1898936,0.512350869 29.7653647,0.719848485 C29.8343436,0.663768048 29.9027618,0.600957959 29.9717407,0.545999131 C29.9515518,0.554972001 29.9313628,0.56001924 29.9111738,0.56899211 C29.2617624,0.856123946 28.6712354,1.24756539 28.1328632,1.70966819 C27.6786117,2.02091461 27.2838054,2.40170078 26.9977952,2.88511414 C26.6635558,3.29618374 26.3551134,3.73361115 26.0786368,4.19515314 C26.4010993,3.90185246 26.7387035,3.62986234 27.0858414,3.37357475 C27.1548204,3.37413555 27.2237993,3.34441292 27.2641772,3.26365709 C27.2709069,3.25075859 27.2793189,3.2389817 27.2860486,3.2260832 C27.4520467,3.10887508 27.6208488,2.99671421 27.7913333,2.88791816 C27.6186056,3.0208288 27.4458778,3.15934748 27.2697853,3.30852144 C27.2473531,3.32814959 27.2636164,3.37581796 27.2961431,3.36067625 C27.6017815,3.21598872 27.8586299,3.02363282 28.1300592,2.83239853 C28.1609034,2.83576336 28.1934301,2.83464175 28.2293215,2.82342566 C28.6555329,2.69051503 29.0436095,2.48413902 29.4249565,2.2626213 C29.5808601,2.20934488 29.7373245,2.15438605 29.8926673,2.09101516 C30.3671078,1.89585524 30.8039744,1.63900684 31.2240169,1.34458455 C31.2503747,1.32663881 31.269442,1.30588905 31.2834621,1.28345687 C31.3939406,1.23634931 31.5032974,1.18755933 31.6120935,1.13708693 C31.6945317,1.11577637 31.7775308,1.09558741 31.8594082,1.07315524 C31.93736,1.05184467 32.0898988,0.991838602 32.2082285,0.932954144 C32.3551593,0.893137034 32.50209,0.852759119 32.6501424,0.819110857 C32.7656681,0.792753052 32.705662,0.60880922 32.5884539,0.642457482" id="Fill-54" fill="#56373F"></path>
                <path d="M48.0551018,24.1212052 C47.131457,23.8789378 46.5493421,24.62649 45.7535607,24.3707632 C45.1215342,24.167752 45.0452648,23.7785538 44.3436985,23.6703185 C43.7817726,23.5833939 43.3084537,23.7516352 42.9792615,23.8688433 C42.4033154,24.0735369 42.0242117,24.3606687 41.610338,24.6792056 C40.7455777,25.3448804 40.4859253,25.8305369 39.7770686,25.910732 C39.6161177,25.9292385 39.49218,25.9197048 39.4091809,25.9118536 C38.1613912,25.7952063 35.5901032,25.5557428 34.0748098,24.8423997 C30.4346286,23.1291423 28.1908504,16.4751985 28.1078513,16.4808066 C28.1039257,16.4808066 28.0983176,16.4819282 28.071399,16.4858538 C27.2890769,16.6053051 27.1589703,16.5509071 27.0860658,16.6395142 C26.9340878,16.8251404 27.3894609,17.2109738 27.4584399,17.7661702 C27.5453645,18.4671756 26.910534,19.0206895 26.8123932,19.2455721 C26.4417015,20.0974339 24.9050976,25.4688181 27.9945688,30.2603306 C29.3915325,32.4267179 31.1490934,33.5713196 31.9448748,34.0749219 C33.6973884,35.1836322 34.3047396,34.7467656 36.5933822,35.8851984 C39.4787206,37.3202968 39.7209881,38.632579 41.4286374,38.626971 C43.7105504,38.6191197 43.920852,35.2498071 48.384294,29.2155521 C48.8194782,28.6272683 49.7178868,27.375553 49.4845922,25.9735421 C49.3595328,25.2248682 48.8144309,24.3202908 48.0551018,24.1212052" id="Fill-56" fill="#56373F"></path>
                <path d="M42.5218695,91.6838869 C28.8853505,98.2677302 23.6519241,97.8392757 21.7664999,95.4794109 C17.595237,90.2577614 21.0144612,66.1970109 28.6313061,49.5052298 C29.752354,47.0483458 32.5631055,41.2148588 30.1628628,36.7317887 C28.7877705,34.1627439 25.3735936,32.0872069 21.8909984,32.1679628 C19.4038311,32.2257256 17.5677576,33.3865907 16.6351399,33.9928202 C15.4378226,35.1777998 13.7974698,36.9196582 12.0623411,39.1886726 C9.85950156,42.0706463 2.38678338,52.4982427 0.879902051,72.2301443 C-0.448643493,89.6319038 -1.77494582,107.005623 8.99642364,113.559183 C18.6736638,119.447068 35.2527233,114.858567 48.4641525,102.014464 C51.2345261,98.2043593 50.5901619,93.4448127 48.2628238,91.6838869 C45.9713771,89.9504406 42.6788947,91.6020095 42.5218695,91.6838869" id="Fill-58" fill="#7C302E"></path>
                <path d="M45.4084417,92.5760706 C47.1609553,91.6883173 53.6775021,88.5825827 59.2328301,90.261631 C60.5910983,90.671579 61.5713843,91.2716397 62.2987476,91.8773084 C64.7315169,93.9034945 66.2126013,97.5649863 65.092675,98.7847357 C64.8588195,99.0399017 64.077619,99.6607122 61.4311832,98.8167016 L55.7928561,96.6480711 C53.1127721,98.4039496 50.4321272,100.159267 47.7514823,101.915146 C46.9708427,98.8021207 46.1896422,95.6890956 45.4084417,92.5760706" id="Fill-60" fill="#F6C5A2"></path>
            </g>
        </g>
    </g>
</svg>