<?xml version="1.0" encoding="UTF-8"?>
<svg width="228px" height="343px" viewBox="0 0 228 343" version="1.1" xmlns="http://www.w3.org/2000/svg" xmlns:xlink="http://www.w3.org/1999/xlink">
    <!-- Generator: Sketch 46.2 (44496) - http://www.bohemiancoding.com/sketch -->
    <title>rightZag</title>
    <desc>Created with Sketch.</desc>
    <defs></defs>
    <g id="Page-1" stroke="none" stroke-width="1" fill="none" fill-rule="evenodd">
        <g id="rightZag">
            <path d="M101.969437,115.224686 C98.9453839,111.097275 94.5502768,104.586043 90.3434732,96.0167036 C83.1797946,81.4236857 84.1610089,76.341525 77.6487589,67.5716679 C69.2829911,56.3070429 56.0254018,49.0191857 52.4588304,51.8274536 C50.6246518,53.2728107 52.3712946,56.5869536 52.5209196,65.5288286 C52.6746161,74.6406857 50.6602768,80.858775 50.6735089,83.0644714 C50.8913304,118.702704 75.2354196,144.118596 84.4042768,152.787686 C95.4103661,155.353704 176.668955,173.671061 193.113455,147.073436 C193.991866,145.653525 196.54058,141.928168 195.379205,138.390096 C193.164348,131.643739 179.108759,130.172936 166.668509,128.872114 C154.601812,127.609971 154.349384,129.083829 147.460527,127.355507 C136.797455,124.680579 134.619241,120.449346 124.715491,117.24615 C119.812473,115.660329 112.26608,114.084686 101.969437,115.224686" id="Fill-1" fill="#7C302E"></path>
            <path d="M199.086139,177.547061 C198.607746,176.723614 198.158871,175.968364 197.719157,175.240596 L152.638264,175.240596 C158.656854,180.884614 164.061675,185.672614 168.647121,189.599507 C169.435961,190.463668 170.58105,191.950757 171.178532,194.038382 C172.045746,197.062436 171.286425,199.685454 171.012621,200.634096 C164.886139,221.809596 147.137764,246.059025 147.137764,246.059025 C132.883693,265.533686 124.121979,289.52865 126.685961,292.876382 C128.727782,295.543168 139.332836,286.8924 148.429425,279.627954 C155.153389,274.259775 157.772336,271.438275 185.873336,240.545293 C189.509121,236.54715 196.946604,228.617025 202.699532,214.804704 C206.587746,205.468918 207.243246,199.232507 206.111389,193.209846 C205.458943,189.730811 204.213086,186.379007 199.086139,177.547061" id="Fill-3" fill="#6D5866"></path>
            <path d="M199.086139,177.547061 C198.607746,176.723614 198.158871,175.968364 197.719157,175.240596 L188.342657,175.240596 C188.6643,175.792275 188.988996,176.341918 189.298425,176.907846 C197.25705,191.463204 195.151104,204.677025 189.374764,216.51165 C180.410496,234.876846 166.041407,246.405096 155.298943,262.551364 C154.831746,263.253686 154.338086,261.180311 154.680086,260.666293 C166.96155,242.207454 185.527264,229.271507 192.612568,204.937596 C195.710925,194.296918 192.316371,184.187561 186.813836,175.240596 L179.199246,175.240596 C179.687818,176.091525 180.160104,176.957721 180.596764,177.858525 C186.691693,190.451454 183.0783,203.532954 178.512193,213.159846 C170.588175,229.867971 157.046604,239.674007 149.445246,256.770954 C149.009604,257.749114 148.394818,255.817221 148.669639,255.199382 C156.81555,236.877954 171.887979,226.797096 179.377371,207.802864 C182.156121,200.757257 184.558264,192.020989 181.583068,182.984454 C180.652746,180.160918 179.308157,177.602025 177.756943,175.240596 L172.2483,175.240596 C174.478425,178.101793 176.300389,181.452579 177.375246,185.412043 C179.213496,192.188936 177.6918,198.310329 175.336479,203.378239 C166.506568,222.376543 154.76355,238.536043 143.863318,255.168846 C143.401211,255.875239 142.905514,253.801864 143.244461,253.284793 C149.971479,243.020721 156.892907,232.986686 163.273854,222.304275 C166.162532,217.4664 168.800818,212.371007 171.584657,207.42015 C173.588818,203.856632 175.716139,200.206596 176.741121,195.748382 C178.707621,187.195329 175.635729,180.597579 170.580032,175.240596 L152.638264,175.240596 C158.656854,180.884614 164.061675,185.672614 168.647121,189.599507 C169.435961,190.463668 170.58105,191.950757 171.178532,194.038382 C172.045746,197.062436 171.286425,199.685454 171.012621,200.634096 C164.886139,221.809596 147.137764,246.059025 147.137764,246.059025 C132.883693,265.533686 124.121979,289.52865 126.685961,292.876382 C128.727782,295.543168 139.332836,286.8924 148.429425,279.627954 C155.153389,274.259775 157.772336,271.438275 185.873336,240.545293 C189.509121,236.54715 196.946604,228.617025 202.699532,214.804704 C206.587746,205.468918 207.243246,199.232507 206.111389,193.209846 C205.458943,189.730811 204.213086,186.379007 199.086139,177.547061" id="Fill-5" fill="#634D5D"></path>
            <path d="M146.528475,245.853621 C147.455743,249.050711 148.659868,251.146479 149.643118,252.508371 C151.233011,254.707961 151.975029,254.615336 153.905904,257.1783 C156.036279,260.004889 155.951796,261.202907 157.586475,263.124621 C158.624689,264.34605 160.340796,265.838229 163.164332,266.510014 C153.479421,276.881979 143.793493,287.253943 134.108582,297.625907 C134.108582,297.625907 138.633975,324.4953 138.567814,327.153943 C138.565779,327.226211 138.5556,327.284229 138.515904,327.333086 C137.469546,328.624746 123.23685,310.333854 110.817975,293.915818 L146.528475,245.853621 Z" id="Fill-7" fill="#BF3E37"></path>
            <path d="M160.930645,268.902284 C161.675716,268.105302 162.41977,267.307302 163.164841,266.51032 C160.340288,265.838534 158.625198,264.346355 157.585966,263.124927 C155.951288,261.203213 156.036788,260.005195 153.906413,257.178605 C151.97452,254.615641 151.232502,254.708266 149.643627,252.508677 C148.659359,251.146784 147.455234,249.051016 146.528984,245.853927 L144.440341,248.663213 C148.822216,256.939409 154.533413,263.834373 160.930645,268.902284" id="Fill-9" fill="#D1493B"></path>
            <path d="M138.564455,326.938361 C138.512545,325.453307 137.75017,320.240861 136.870741,314.609057 C135.127152,314.135754 133.380509,313.736754 131.632848,313.265486 C131.350902,313.189146 131.263366,312.444075 131.43233,312.262896 C132.802366,310.787004 134.338313,309.730468 135.948563,308.808289 C135.822348,308.026575 135.699187,307.262164 135.578063,306.518111 C133.819205,305.799504 132.03592,305.25495 130.295384,304.325646 C130.017509,304.177039 130.024634,303.440111 130.20683,303.299646 C131.595187,302.243111 133.141312,301.755557 134.753598,301.498039 C134.518473,300.075075 134.33017,298.947289 134.219223,298.288736 C133.095509,297.58845 131.958562,296.930914 130.817545,296.283557 C130.529491,296.119682 130.52542,295.298271 130.789045,295.245343 C132.76267,294.849396 134.789223,294.762879 136.82392,294.718093 C137.73592,293.74095 138.64792,292.764825 139.55992,291.7887 C137.013241,289.89345 134.221259,288.974325 131.401795,288.266914 C131.089313,288.188539 131.032312,287.355932 131.251152,287.216486 C135.492562,284.518146 140.464795,284.562932 145.476723,285.452539 C145.998884,284.892718 146.520027,284.333914 147.042188,283.775111 C144.45683,280.569879 141.545759,277.843039 139.097813,274.411843 C138.951241,274.205218 138.814848,273.387879 139.128348,273.432664 C143.615062,274.073914 148.046813,275.898932 152.460241,277.973325 C152.599688,277.8237 152.739134,277.674075 152.87858,277.525468 C150.262688,274.952325 147.334313,273.045879 144.854813,270.131754 C144.68483,269.931236 144.588134,269.114914 144.885348,269.153593 C149.034134,269.683896 153.532045,270.166361 157.68083,272.382236 C158.395366,271.617825 159.109902,270.852396 159.824438,270.086968 C153.552402,264.8847 147.969455,257.940879 143.684277,249.681986 L111.238045,293.352129 L138.564455,326.938361 Z" id="Fill-11" fill="#D1493B"></path>
            <path d="M190.184062,182.91697 C178.705687,181.022738 174.573187,181.489934 160.004598,179.711738 C153.321348,178.895416 154.671027,178.816023 143.583509,177.217988 C129.528937,175.192452 119.957009,173.812238 109.853759,173.300255 C95.2271518,172.559255 89.7235982,174.16747 77.4187232,174.650952 C38.2281696,176.191988 23.7084375,161.96438 13.0382411,168.620148 C1.0081875,176.123791 3.58947321,204.10672 21.9841875,218.041184 C37.0413482,229.447291 59.9533125,228.351059 105.115634,225.238452 C131.110687,223.446005 152.586455,220.378184 167.816652,217.790791 C169.159205,217.716488 171.258027,217.773488 173.203152,218.726202 C176.022616,220.107434 176.971259,222.614416 177.313259,223.521327 C184.963473,243.758363 183.083491,276.23513 183.083491,276.23513 C181.572991,302.316702 188.43742,326.826702 193.150098,326.96513 C196.902937,327.075059 201.810027,311.786845 206.12167,298.782702 C209.307562,289.171077 210.076045,284.912363 217.913545,238.781041 C218.928348,232.812327 221.162545,220.776166 217.913545,206.05388 C215.718027,196.102291 212.325509,191.137184 207.300348,187.871898 C204.398437,185.985809 200.990652,184.701273 190.184062,182.91697" id="Fill-13" fill="#6D5866"></path>
            <path d="M222.281068,190.138361 C216.307264,181.597521 206.789282,178.221289 206.789282,178.221289 C205.378532,177.721521 201.356979,176.3352 196.064121,176.433932 C193.099104,176.489914 191.38605,176.979504 188.318229,177.625843 C173.472782,180.7527 162.587818,180.016789 160.004496,179.711432 C157.986086,179.473254 155.823139,179.148557 155.823139,179.148557 C153.099354,178.731236 151.558318,178.367861 143.583407,177.217682 C128.929318,175.105629 124.319443,175.444575 109.853657,173.29995 C103.422836,172.347236 103.464568,172.184379 99.0684429,171.651021 C90.2884071,170.585325 83.8616571,169.805646 76.2755679,170.483539 C66.0807107,171.394521 64.7208536,173.960539 56.0619429,173.903539 C49.9792286,173.863843 45.031425,172.560986 41.8373893,171.485111 C50.8484786,181.954789 69.9964071,185.749361 84.8225143,187.779986 C99.9600857,189.854379 115.983193,191.070718 131.359961,190.833557 C147.451264,190.586218 164.166514,187.859379 180.066461,190.947557 C197.390389,194.312593 203.865996,205.454057 205.809086,218.803254 C208.823979,239.5197 202.050139,260.098736 201.863871,280.789736 C201.855729,281.690539 200.022568,280.656396 200.028675,279.997843 C200.241407,256.340807 210.264246,231.133575 201.518818,207.837879 C195.425925,191.610182 173.874836,190.607593 156.083711,191.278361 C140.475889,191.866682 125.40855,192.435664 109.795639,191.5257 C87.9676929,190.252361 52.6734964,187.983557 39.7222821,171.000611 C26.7832821,167.950093 19.2521571,164.743843 13.0381393,168.619843 C8.223675,171.622521 5.75435357,177.907789 5.69837143,185.257736 C24.3068357,194.590468 45.5098179,200.097075 67.2705857,202.430004 C88.280175,204.680486 109.810907,204.22245 130.705479,201.431486 C143.846014,199.675682 158.841086,195.812914 172.054907,199.158611 C186.259104,202.7547 191.154996,215.108432 192.867032,225.852932 C195.839175,244.499057 188.769139,263.147218 192.313318,281.788254 C192.516889,282.854968 190.654211,282.026432 190.525961,281.352611 C186.728336,261.376146 195.137871,241.208325 190.253175,221.326521 C188.442407,213.951129 185.160836,205.710557 176.354336,201.918021 C170.147443,199.245129 162.747621,199.251236 155.911693,199.7622 C139.030532,201.026379 122.689854,204.498289 105.662121,205.156843 C71.0101929,206.495325 35.3566929,201.359218 5.71160357,186.592146 C5.95690714,194.408271 8.84965714,203.246325 14.48655,210.572861 C23.5760143,214.104825 33.8054786,216.096771 43.8262821,217.169593 C61.7018893,219.081129 79.9327286,218.491789 97.82055,216.996557 C106.247389,216.2922 115.182139,215.811771 123.329068,213.850361 C133.152407,211.483843 142.271389,207.486718 152.25555,205.503932 C159.538318,204.058575 167.210925,203.921164 173.755746,207.275004 C179.970782,210.460896 182.429925,216.094736 183.378568,221.708218 C186.936996,242.75445 185.768496,264.322843 185.742032,285.495289 C185.741014,286.394057 183.905818,285.360932 183.906836,284.702379 C183.923121,271.638182 184.283443,258.564825 183.685961,245.5047 C183.415211,239.59095 182.727139,233.711807 182.278264,227.809254 C181.955604,223.560718 181.699104,219.143218 179.826246,215.112504 C170.763246,195.603236 138.018782,212.577021 122.568729,215.798539 C107.4678,218.946771 90.4074964,219.486236 74.8912821,219.805843 C56.2085143,220.190593 34.1719071,219.176807 16.2474429,212.693057 C17.9533714,214.625968 19.8577821,216.430629 21.9840857,218.041896 C37.0412464,229.448004 59.9532107,228.351771 105.115532,225.238146 C131.110586,223.446718 152.586354,220.377879 167.817568,217.790486 C169.159104,217.7172 171.257925,217.773182 173.20305,218.725896 C176.022514,220.107129 176.971157,222.615129 177.313157,223.521021 C184.963371,243.758057 183.083389,276.234825 183.083389,276.234825 C181.572889,302.316396 188.437318,326.826396 193.149996,326.964825 C196.902836,327.074754 201.810943,311.786539 206.121568,298.782396 C206.746532,296.898343 207.277854,295.218879 207.788818,293.389789 C213.040961,274.568593 215.301621,255.235414 217.914461,238.781754 C223.126907,205.947718 228.252836,198.675129 222.281068,190.138361" id="Fill-15" fill="#634D5D"></path>
            <g id="Group-19" transform="translate(177.107143, 276.054054)" fill="#BF3E37">
                <path d="M5.23941964,0.563994643 C8.23090179,2.01444107 10.7826696,2.44906607 12.6412768,2.55695893 C15.6419196,2.7310125 16.3177768,2.02258393 19.8935089,2.15490536 C23.8377054,2.30249464 24.5298482,3.22060179 27.3961339,3.1585125 C29.2170804,3.11983393 31.8859018,2.68520893 35.1206518,0.711583929 C32.2401161,16.4171196 29.3605982,32.1226554 26.4800625,47.8271732 C26.4800625,47.8271732 48.3812946,62.8497268 50.0383661,64.7816196 C50.0831518,64.8335304 50.1106339,64.8844232 50.1035089,64.9536375 C49.9019732,66.7705125 23.9374554,66.2076375 0.984776786,65.3933518 L5.23941964,0.563994643 Z" id="Fill-17"></path>
            </g>
            <path d="M211.563439,280.388191 C211.784314,279.181013 212.006207,277.972816 212.2281,276.765638 C208.99335,278.739263 206.324529,279.173888 204.503582,279.212566 C201.637296,279.274655 200.944136,278.356548 197.000957,278.208959 C193.425225,278.076638 192.749368,278.785066 189.747707,278.611013 C187.890118,278.50312 185.33835,278.068495 182.346868,276.618048 L182.097493,280.408548 C191.805814,282.446298 201.936546,282.358763 211.563439,280.388191" id="Fill-20" fill="#D1493B"></path>
            <path d="M227.0025,340.686354 C225.988714,339.684782 221.854179,336.669889 217.331839,333.461604 C215.297143,334.639264 213.307232,335.871889 211.268464,337.053621 C210.939696,337.243961 210.370714,336.794068 210.419571,336.520264 C210.822643,334.292175 211.659321,332.216764 212.658857,330.170871 C212.026768,329.729121 211.408929,329.29755 210.806357,328.878193 C208.597607,329.895032 206.476393,331.056407 204.148554,331.909371 C203.777036,332.044746 203.305768,331.519532 203.396357,331.262014 C204.0885,329.313836 205.304839,327.631318 206.735946,326.052621 C205.580679,325.252586 204.663589,324.621514 204.127179,324.252032 C202.558661,324.732461 201.005411,325.254621 199.454196,325.786961 C199.062321,325.921318 198.525911,325.345211 198.752893,325.07955 C200.452714,323.090657 202.407,321.272764 204.394875,319.478282 C204.665625,317.999336 204.937393,316.520389 205.208143,315.042461 C201.455304,315.913746 198.091286,317.6838 194.837196,319.627907 C194.476875,319.843693 193.880411,319.306264 194.007643,319.018211 C196.462714,313.440354 201.422732,309.163318 206.968018,305.448139 C207.122732,304.601282 207.278464,303.755443 207.433179,302.908586 C202.792768,302.889246 198.139125,303.489782 193.488536,303.19155 C193.208625,303.173229 192.543964,302.715193 192.884946,302.474979 C197.74725,299.038693 203.324089,296.485907 209.044446,294.122443 C209.086179,293.896479 209.127911,293.670514 209.168625,293.44455 C204.908893,293.897496 200.769268,295.091443 196.422,295.185086 C196.123768,295.191193 195.498804,294.699568 195.818411,294.468514 C200.274589,291.248014 205.047321,287.690604 210.596679,285.657943 C210.809411,284.499621 211.022143,283.340282 211.234875,282.181961 C201.644625,283.948961 191.609571,283.890943 182.008125,281.781943 L178.142304,340.686354 L227.0025,340.686354 Z" id="Fill-22" fill="#D1493B"></path>
            <path d="M69.9026625,189.259746 L69.9026625,177.366086 C72.5378946,177.832264 76.2510375,178.004282 79.1315732,175.920729 C82.8426804,173.237657 83.8391625,167.774818 82.9220732,156.018568 C81.1102875,132.768675 75.3054482,129.660139 74.3924304,110.527479 C74.1959839,106.392943 74.1807161,100.618639 72.4971804,92.5205679 C72.2091268,91.1352643 70.9999125,85.4851393 68.3443232,78.2736214 C66.8836982,74.3049964 65.3029661,69.854925 62.1598232,64.5783536 C58.9688411,59.2203536 56.0241804,54.2745857 50.2325732,50.0006036 C46.4909304,47.2391571 42.2637696,43.6898893 37.7444839,44.7688179 C34.4344125,45.558675 32.4841982,48.4178357 31.5213054,49.8743893 C13.2161625,77.5814786 8.54419821,93.6921214 8.54419821,93.6921214 C6.04739464,102.302175 3.43048393,111.936193 2.35359107,125.384121 C1.43548393,136.843157 0.528573214,155.366121 9.42973393,175.425032 C12.7398054,182.882871 19.9930554,195.468675 36.9454661,207.056979 C38.9211268,205.733764 41.4993589,204.086871 44.5498768,202.240479 C47.2125911,200.628193 50.0137339,199.029139 52.9777339,197.508461 C58.5698411,194.639121 64.3105554,191.986586 69.9026625,189.259746" id="Fill-24" fill="#933C37"></path>
            <polygon id="Fill-26" fill="#B24D42" points="117.096423 165.261321 117.096423 182.821393 200.215655 198.947304 200.215655 189.041518 206.827655 182.104821 200.215655 170.601 206.827655 163.067839"></polygon>
            <polygon id="Fill-28" fill="#9E433C" points="117.096423 165.261321 117.096423 162.564 195.445977 161.362929 195.445977 165.261321"></polygon>
            <polygon id="Fill-30" fill="#7C302E" points="111.312654 170.601204 111.312654 173.969293 117.096118 173.969293 117.096118 170.601204"></polygon>
            <polygon id="Fill-32" fill="#E5B958" points="198.233277 164.460675 199.77533 160.561264 190.702152 162.240729 190.402902 164.460675"></polygon>
            <path d="M50.1113464,62.46915 C50.1113464,62.46915 34.5625607,52.8025607 36.5137929,48.0817393 C38.465025,43.3609179 52.1368821,29.2330607 52.1368821,29.2330607 L53.57715,38.9831143 L63.929775,50.2131321 L50.1113464,62.46915 Z" id="Fill-34" fill="#F6C5A2"></path>
            <path d="M53.5769464,38.9829107 L52.1376964,29.2328571 C52.1376964,29.2328571 45.4178036,36.1766786 40.7285357,41.9560714 C40.9545,42.7958036 41.0725714,43.6864286 41.3046429,44.5129286 C42.8263393,49.9381071 46.8143036,51.4730357 51.7977321,52.51125 C52.3239643,52.6211786 53.0191607,53.4466607 52.7138036,54.000375 C51.4730357,56.2467857 50.2292143,58.4931964 48.9894643,60.7416429 C49.0993929,60.9838929 49.134,61.2312321 49.0210179,61.4093571 C48.9680893,61.4928214 48.9243214,61.5823929 48.8724107,61.666875 C49.6368214,62.1737679 50.1111429,62.4689464 50.1111429,62.4689464 L63.9295714,50.2129286 L53.5769464,38.9829107 Z" id="Fill-36" fill="#F4BE9A"></path>
            <path d="M176.895327,140.663887 C180.985077,135.258048 188.366577,135.653995 189.052613,135.693691 C197.939523,136.209745 212.811434,153.66803 208.886577,160.287155 C207.27938,162.995673 202.536166,163.865941 199.366559,162.666905 C195.764363,161.303995 196.244791,158.046852 192.761684,154.943405 C186.214827,149.109048 176.825095,153.911298 174.515577,149.390995 C172.791327,146.01578 176.369095,141.359084 176.895327,140.663887" id="Fill-38" fill="#F6C5A2"></path>
            <path d="M76.0250732,46.7024411 L89.2735018,49.3173161 C90.5448054,44.7257625 90.5916268,40.8110839 90.7616089,35.6474946 C90.9132696,30.9867268 91.2267696,24.1019411 91.9514839,15.4318339 C76.5472339,8.11344107 61.4860018,7.53122679 53.3645196,13.3187625 C51.3685018,14.7417268 46.1876089,18.4334946 44.5030554,24.8449768 C44.0104125,26.7178339 42.7767696,29.7032089 44.2027875,31.7206018 C45.5076804,33.5649589 47.6533232,32.8005482 49.2676446,34.2031554 C52.5288589,37.0348339 47.8680911,43.6977268 49.2035196,49.3814411 C50.9318411,56.7344411 62.7481446,62.7092625 72.7679304,63.2059768 L76.0250732,46.7024411 Z" id="Fill-40" fill="#F6C5A2"></path>
            <path d="M86.0218554,34.9379464 C86.6478375,37.0805357 86.0849625,40.5717857 85.9098911,42.7744286 C85.7561946,44.7032679 85.4610161,46.604625 85.1414089,48.5019107 L89.2739089,49.3172143 C90.5452125,44.7256607 90.5920339,40.8109821 90.7609982,35.6473929 C90.9136768,30.986625 91.2271768,24.1028571 91.9518911,15.4317321 C76.5476411,8.11333929 61.4853911,7.531125 53.3639089,13.3186607 C51.9541768,14.3243036 48.9555696,16.4699464 46.7223911,19.9021607 C47.2679625,19.9326964 47.8114982,19.8950357 48.3509625,19.7922321 C49.1041768,18.3621429 50.3266232,17.677125 52.1791232,18.4445893 C53.5715518,19.0217143 53.5165875,19.8797679 54.0336589,21.0777857 C55.0301411,23.3873036 55.8373018,23.3028214 58.3524268,23.1246964 C59.9016054,23.0147679 61.1678196,22.9201071 62.6762839,23.3333571 C64.3028196,23.7781607 65.7410518,24.6677679 67.2953196,25.2876429 C69.6587839,26.2322143 72.0273375,26.2902321 74.5149804,26.540625 C77.5105339,26.8408929 79.8780696,27.9452679 81.9483911,30.1336607 C83.1382661,31.3917321 85.5119089,33.1892679 86.0218554,34.9379464" id="Fill-42" fill="#F4BE9A"></path>
            <path d="M91.3046357,12.8298857 C95.2549393,12.1692964 96.6402429,6.15477857 97.3904036,6.422475 C98.5711179,6.84488571 97.7639571,22.7081893 90.2796536,25.5816 C88.616475,26.2208143 86.4168857,26.2279393 65.6475107,16.881975 C59.6696357,14.1927964 56.1051,12.7362429 53.8200107,14.1856714 C50.9292964,16.01985 53.69685,21.9651536 50.1516536,24.8070107 C48.7979036,25.8920464 46.5117964,26.6035286 45.2527071,25.7475107 C41.4957964,23.194725 44.2094036,5.49724286 54.288225,1.03190357 C57.9056893,-0.570203571 61.4264571,-0.00122142857 65.7839036,0.703135714 C74.5395107,2.118975 81.6217607,6.95990357 82.5592071,7.61336786 C87.2118321,10.8572786 88.6470107,13.2746893 91.3046357,12.8298857" id="Fill-44" fill="#2D1E23"></path>
            <path d="M55.6749536,10.8676607 C63.844275,9.28794643 71.1514714,14.8729286 77.8337036,18.6430714 C82.6909179,21.3831429 88.5456321,23.9573036 93.484275,23.1867857 C95.24415,21.09 96.3780429,18.118875 97.0437214,15.2525893 C95.6197393,17.4043393 93.5677393,19.0176429 90.9701679,19.4929821 C83.053275,20.940375 76.2947036,10.5276964 70.5712929,6.77180357 C60.153525,-0.0651428571 50.5785429,5.06689286 44.649525,13.8815357 C43.8382929,16.7183036 43.5258107,19.4950179 43.6856143,21.6823929 C46.1254179,16.2276964 49.8599357,11.9923929 55.6749536,10.8676607" id="Fill-46" fill="#56373F"></path>
            <path d="M61.9741661,12.5478375 C52.7004696,10.8683732 47.4513804,16.7719446 44.4110411,24.7275161 C44.6420946,25.1713018 44.9199696,25.5224625 45.2528089,25.7484268 C46.5118982,26.6044446 48.7980054,25.8919446 50.1517554,24.8069089 C53.6969518,21.9650518 50.9293982,16.0207661 53.8201125,14.1865875 C56.1052018,12.7361411 59.6697375,14.1926946 65.6476125,16.8828911 C86.4169875,26.2288554 88.6165768,26.2207125 90.2797554,25.5814982 C90.6003804,25.4583375 90.9037018,25.3036232 91.2009161,25.1356768 C81.6625768,24.1829625 69.6762911,13.9423018 61.9741661,12.5478375" id="Fill-48" fill="#56373F"></path>
            <path d="M82.4657679,8.21858571 C84.0261429,9.98355 85.9682143,11.4492643 87.9479464,11.7973714 C86.6196429,10.8466929 85.0521429,9.35146071 82.5594107,7.61397857 C82.3354821,7.45722857 81.75225,7.05822857 80.8891071,6.52894286 C81.4255179,7.07960357 81.9548036,7.64044286 82.4657679,8.21858571" id="Fill-50" fill="#56373F"></path>
            <path d="M97.3899964,6.42257679 C96.7772464,6.2037375 95.7390321,10.1754161 93.2259429,11.9973804 C92.6895321,12.4920589 92.0747464,12.9063268 91.3632643,13.2076125 C87.5259429,14.8361839 84.6810321,12.3678804 82.2900857,9.65834464 C80.7582107,7.92289821 79.0136036,6.10602321 77.1061393,4.44488036 C74.1228,2.9761125 70.1633357,1.41166607 65.7845143,0.7032375 C63.2663357,0.296094643 61.0311214,-0.0509946429 58.8915857,0.0243267857 C57.29355,0.877291071 55.7993357,2.00813036 54.407925,3.25704107 C55.2720857,2.9404875 56.1637286,2.68296964 57.0818357,2.49263036 C65.4526929,0.749041071 71.6117464,5.8403625 77.435925,11.0212554 C80.6197821,13.8539518 84.8825679,18.2388804 89.5250143,17.9518446 C93.8142643,17.6872018 97.001175,13.2829339 97.8307286,8.76771964 C97.8215679,7.41396964 97.6576929,6.51825536 97.3899964,6.42257679" id="Fill-52" fill="#56373F"></path>
            <path d="M59.1478821,1.16605714 C58.8791679,1.24341429 58.6084179,1.30448571 58.3376679,1.36148571 C58.3000071,1.22305714 58.1666679,1.10396786 58.0109357,1.1742 C57.7982036,1.27089643 57.5905607,1.35639643 57.3788464,1.45003929 C57.3829179,1.41441429 57.3992036,1.380825 57.3880071,1.34621786 C57.4572214,1.32586071 57.5244,1.30448571 57.5946321,1.28514643 C57.6943821,1.25766429 57.7524,1.19252143 57.7809,1.11618214 C57.7859893,1.11618214 57.7900607,1.11516429 57.79515,1.11414643 C57.8175429,1.11211071 57.8287393,1.09277143 57.8480786,1.08666429 C58.0200964,1.06834286 58.1910964,1.05002143 58.3631143,1.02966429 C58.7610964,0.983860714 58.7030786,0.448467857 58.3224,0.424039286 C57.6984536,0.385360714 57.0724714,0.472896429 56.4536143,0.627610714 C55.6108286,0.743646429 54.7945071,0.929914286 54.0239893,1.30652143 C54.1491857,1.20473571 54.2733643,1.09073571 54.3985607,0.990985714 C54.3619179,1.00727143 54.325275,1.01643214 54.2886321,1.03271786 C53.1099536,1.55386071 52.03815,2.264325 51.0610071,3.10303929 C50.2365429,3.66795 49.5199714,4.359075 49.0008643,5.23646786 C48.3942214,5.98255714 47.8344,6.77648571 47.3325964,7.61418214 C47.9178643,7.08184286 48.5306143,6.58818214 49.1606679,6.12302143 C49.2858643,6.12403929 49.4110607,6.07009286 49.4843464,5.92352143 C49.4965607,5.90011071 49.5118286,5.87873571 49.5240429,5.855325 C49.8253286,5.64259286 50.1317036,5.43902143 50.4411321,5.24155714 C50.1276321,5.48278929 49.8141321,5.7342 49.494525,6.00495 C49.4538107,6.040575 49.4833286,6.12709286 49.5423643,6.09961071 C50.0970964,5.83700357 50.563275,5.48787857 51.0559179,5.14078929 C51.1119,5.14689643 51.1709357,5.14486071 51.2360786,5.12450357 C52.00965,4.88327143 52.7140071,4.5087 53.40615,4.10664643 C53.6891143,4.00995 53.9730964,3.9102 54.2550429,3.79518214 C55.11615,3.44096786 55.9090607,2.97478929 56.6714357,2.44041429 C56.719275,2.40784286 56.7538821,2.37018214 56.7793286,2.32946786 C56.9798464,2.24396786 57.1783286,2.15541429 57.3757929,2.06380714 C57.5254179,2.02512857 57.6760607,1.98848571 57.8246679,1.94777143 C57.96615,1.90909286 58.2430071,1.80018214 58.457775,1.69330714 C58.7244536,1.62103929 58.9911321,1.54775357 59.2598464,1.48668214 C59.469525,1.43884286 59.3606143,1.10498571 59.1478821,1.16605714" id="Fill-54" fill="#56373F"></path>
            <path d="M87.2197714,43.7798679 C85.5433607,43.3401536 84.486825,44.6969571 83.0424857,44.2328143 C81.8953607,43.86435 81.7569321,43.1579571 80.4835929,42.9615107 C79.4637,42.8037429 78.6046286,43.1091 78.0071464,43.3218321 C76.9618071,43.69335 76.2737357,44.2144929 75.5225571,44.7926357 C73.9530214,46.0008321 73.4817536,46.8822964 72.1951821,47.02785 C71.9030571,47.0614393 71.6781107,47.0441357 71.5274679,47.0298857 C69.2627357,46.8181714 64.5958607,46.3835464 61.8456107,45.0888321 C55.2387,41.9792786 51.1662536,29.9024036 51.0156107,29.9125821 C51.0084857,29.9125821 50.9983071,29.9146179 50.94945,29.9217429 C49.5295393,30.1385464 49.2933964,30.0398143 49.161075,30.2006357 C48.8852357,30.5375464 49.7117357,31.2378321 49.8369321,32.2455107 C49.9947,33.5178321 48.8424857,34.5224571 48.6643607,34.9306179 C47.9915571,36.4767429 45.2026286,46.2257786 50.8100036,54.92235 C53.3454857,58.8543321 56.53545,60.9317786 57.9797893,61.8458143 C61.1605929,63.8581179 62.2629321,63.0652071 66.4168071,65.1314571 C71.6536821,67.7361536 72.0933964,70.1179393 75.1927714,70.1077607 C79.3344321,70.0935107 79.7161286,63.978225 87.8172536,53.0260821 C88.6071107,51.95835 90.2377179,49.6864929 89.8142893,47.14185 C89.5873071,45.7830107 88.59795,44.1412071 87.2197714,43.7798679" id="Fill-56" fill="#56373F"></path>
            <path d="M77.1769821,166.4058 C52.4267679,178.355443 42.928125,177.5778 39.5060893,173.294657 C31.9352679,163.817389 38.1411429,120.147246 51.9656786,89.8517464 C54.000375,85.3925143 59.101875,74.8047643 54.7454464,66.6680143 C52.2496607,62.0052107 46.0529464,58.2381214 39.7320536,58.3846929 C35.2178571,58.4895321 31.8853929,60.5964964 30.1926964,61.6968 C28.0195714,63.8475321 25.0423393,67.0089964 21.8930893,71.1272464 C17.8949464,76.3580143 4.332,95.28405 1.59701786,131.097354 C-0.814285714,162.681461 -3.22151786,194.214675 16.3284643,206.109354 C33.8926071,216.795836 63.9835179,208.467729 87.9621964,185.155746 C92.9904107,178.240425 91.8208929,169.601871 87.5967857,166.4058 C83.4378214,163.259604 77.4619821,166.257193 77.1769821,166.4058" id="Fill-58" fill="#7C302E"></path>
            <path d="M82.4160964,168.025109 C85.5969,166.413841 97.4244,160.776948 107.507293,163.824413 C109.972543,164.568466 111.751757,165.657573 113.071918,166.756859 C117.487382,170.434377 120.175543,177.079966 118.142882,179.293805 C117.718436,179.75693 116.300561,180.883698 111.497293,179.351823 L101.263757,175.41577 C96.3994179,178.60268 91.5340607,181.788573 86.6687036,184.975484 C85.2518464,179.325359 83.8339714,173.675234 82.4160964,168.025109" id="Fill-60" fill="#F6C5A2"></path>
        </g>
    </g>
</svg>