<?xml version="1.0" encoding="UTF-8"?>
<svg width="228px" height="227px" viewBox="0 0 228 227" version="1.1" xmlns="http://www.w3.org/2000/svg" xmlns:xlink="http://www.w3.org/1999/xlink">
    <!-- Generator: Sketch 46.2 (44496) - http://www.bohemiancoding.com/sketch -->
    <title>square</title>
    <desc>Created with Sketch.</desc>
    <defs>
        <polygon id="path-1" points="0 13.8914089 0 0.397676786 31.7135786 0.397676786 31.7135786 13.8914089"></polygon>
        <polygon id="path-3" points="184.010041 0.936609707 184.010041 174.575278 0.94063876 174.575278 0.94063876 0.936609707 184.010041 0.936609707"></polygon>
        <polygon id="path-5" points="39.644925 18.3214286 0.333021478 18.3214286 0.333021478 0.0459053571 39.644925 0.0459053571 39.644925 18.3214286"></polygon>
        <polygon id="path-7" points="0.493258128 0.960857143 66.2048997 0.960857143 66.2048997 71.9063169 0.493258128 71.9063169 0.493258128 0.960857143"></polygon>
    </defs>
    <g id="Page-1" stroke="none" stroke-width="1" fill="none" fill-rule="evenodd">
        <g id="square">
            <path d="M73.6394942,157.814496 C83.7547042,137.884779 99.0517232,98.0925475 84.7953595,90.0119142 C76.111306,85.0898147 59.9811495,93.9259709 53.749485,97.3400792 C10.6808732,120.934388 15.8309923,170.853885 17.2212586,184.329074 C18.4152521,195.901201 19.5673331,207.077238 26.0259382,209.292896 C38.4862004,213.568422 61.6750255,181.386404 73.6394942,157.814496" id="Fill-1" fill="#C6785D"></path>
            <g id="Group-5" transform="translate(0.000000, 199.500000)">
                <mask id="mask-2" fill="white">
                    <use xlink:href="#path-1"></use>
                </mask>
                <g id="Clip-4"></g>
                <path d="M22.4205429,0.397676786 C16.9393821,0.783444643 4.76784643,1.7035875 0.583435714,2.54230179 C-4.88143929,3.63853393 29.8254536,13.8914089 29.8254536,13.8914089 L31.7135786,9.61030179 C27.9475071,7.9308375 24.5315786,4.44569464 22.4205429,0.397676786" id="Fill-3" fill="#C6785D" mask="url(#mask-2)"></path>
            </g>
            <path d="M187.027478,150.497662 C183.92749,150.54567 181.372453,151.005325 179.124144,151.760181 C161.5129,157.671347 156.36602,168.811347 150.678279,167.766398 C138.451116,165.520216 147.892175,105.538274 129.327009,98.3972743 C122.095408,95.614828 113.117508,101.816088 103.741885,108.292119 C97.3425362,112.711959 83.0827961,122.56186 79.8069513,137.975632 C77.246803,150.025749 86.6500316,164.203559 105.455466,192.5602 C119.808247,214.20179 127.258647,220.758516 136.858181,224.297861 C144.857622,227.247826 151.545294,227.069071 157.723799,226.904617 C166.405196,226.671725 195.735458,225.888268 210.812115,204.125126 C211.651524,202.912657 226.515517,180.429388 216.266744,163.798041 C208.03828,150.446589 188.111246,150.480297 187.027478,150.497662" id="Fill-6" fill="#D88764"></path>
            <g id="Group-10" transform="translate(43.767857, 13.232143)">
                <mask id="mask-4" fill="white">
                    <use xlink:href="#path-3"></use>
                </mask>
                <g id="Clip-9"></g>
                <path d="M7.6819686,25.8121833 C23.4594046,-1.52865 75.9717064,-4.04619762 112.506987,7.25870714 C124.027637,10.8225881 160.483084,22.1029214 176.941156,56.4169214 C185.867203,75.0297786 184.623636,91.4813738 182.401592,120.868802 C180.826407,141.702302 179.349479,167.400945 164.928197,173.305255 C158.152548,176.078755 150.592889,173.657445 146.045425,172.200564 C132.777641,167.949707 129.763398,159.533993 120.202773,152.523969 C100.000695,137.711493 84.2682939,157.918421 65.4070165,142.068826 C50.2334525,129.318302 41.3810981,108.41416 28.6997856,110.276469 C26.6875612,110.57235 23.1707743,111.64735 18.8710007,110.276469 C16.1034246,109.393945 11.4280222,106.994136 6.85804152,98.2600167 C4.59300967,93.93135 -1.46106324,80.7590167 1.97077217,52.6861595 C3.69743676,38.5616833 4.43948289,31.4318738 7.6819686,25.8121833" id="Fill-8" fill="#462F35" mask="url(#mask-4)"></path>
            </g>
            <path d="M119.250186,90.0514689 C139.998361,82.1419699 211.775279,174.074764 188.96951,210.973449 C181.133839,223.651217 162.034199,229.990101 147.816604,225.589095 C104.729129,212.250664 98.7316572,97.8727426 119.250186,90.0514689" id="Fill-11" fill="#D88764"></path>
            <path d="M70.8443136,143.521797 C89.1524353,118.048123 112.53447,85.1082573 126.33392,91.3636056 C135.76448,95.6393358 136.885781,114.89952 137.319406,122.34121 C138.849844,148.621432 121.216135,158.287767 78.7730036,208.123302 C76.8732197,210.353052 70.7667714,217.542568 61.7728965,218.652338 C60.2026669,218.846318 55.0236642,219.485432 50.9935103,216.362352 C50.4252076,215.922323 47.8601932,213.981501 46.6562485,209.46789 C40.3763506,185.913599 70.8443136,143.521797 70.8443136,143.521797" id="Fill-13" fill="#D88764"></path>
            <path d="M70.8354122,59.2201042 C74.1486486,80.669061 65.3963183,90.0311063 70.1631761,100.080783 C76.9508224,114.38864 98.3165051,103.051964 105.025605,118.3184 C108.271516,125.704789 107.00661,136.861859 103.084383,140.941461 C99.1172719,145.0693 91.0565594,143.384091 83.1957835,141.741987 C82.9173002,141.683487 82.710223,141.638329 82.6520781,141.624987 C77.2660287,140.431382 54.4987491,132.51952 44.8987281,112.103036 C30.7205651,81.9499021 48.9668275,32.4076254 58.7423031,32.5718357 C64.2670841,32.6642041 69.2063362,48.6747178 70.8354122,59.2201042" id="Fill-15" fill="#2D1E25"></path>
            <path d="M164.732436,67.1618222 C162.758015,86.5572754 182.871155,97.2302154 178.17424,107.705033 C172.460477,120.446452 140.361823,109.879245 131.481015,125.945628 C127.694664,132.795732 128.899551,143.090905 134.079852,148.574684 C137.843721,152.559713 143.484924,153.770004 150.556868,153.693014 C162.068194,153.566749 206.53764,153.080169 221.43471,119.737112 C237.055326,84.778281 208.76244,39.2255533 189.812288,38.68354 C178.805809,38.3683921 166.164199,53.1002726 164.732436,67.1618222" id="Fill-17" fill="#2D1E25"></path>
            <path d="M94.1751204,117.142571 C89.2760803,120.312177 85.9533843,127.537517 88.3113617,131.936133 C90.3152402,135.67377 95.9536631,136.501028 97.1075028,136.670404 C102.295254,137.430531 104.49429,135.064429 107.075591,136.670404 C110.68398,138.914638 109.22131,145.302392 110.593444,145.546129 C112.648626,145.911733 122.354158,132.733441 115.870726,122.468625 C111.265427,115.175122 100.729976,112.903003 94.1751204,117.142571" id="Fill-19" fill="#F6C5A2"></path>
            <g id="Group-23" transform="translate(21.375000, 208.660714)">
                <mask id="mask-6" fill="white">
                    <use xlink:href="#path-5"></use>
                </mask>
                <g id="Clip-22"></g>
                <path d="M25.0580143,0.0459053571 C18.9193179,3.71324464 5.31565714,11.9578875 0.860496429,15.6231911 C-4.95859286,20.4111911 39.288675,17.3688161 39.288675,17.3688161 L39.644925,9.51095893 C34.6044964,8.93892321 29.199675,5.30415536 25.0580143,0.0459053571" id="Fill-21" fill="#A74639" mask="url(#mask-6)"></path>
            </g>
            <g id="Group-26" transform="translate(76.339286, 0.000000)">
                <mask id="mask-8" fill="white">
                    <use xlink:href="#path-7"></use>
                </mask>
                <g id="Clip-25"></g>
                <path d="M66.0098679,28.0835946 C66.0098679,28.0835946 65.7625286,25.4931482 64.6886893,23.1968625 C56.7891,6.31264821 38.8656536,1.9999875 38.8656536,1.9999875 C32.0704393,0.364291071 25.1032071,0.747005357 19.0235464,2.5343625 C15.2768143,3.63466607 9.15542143,5.62152321 4.50992143,11.4945589 C3.34243929,12.9704518 1.67417143,15.1252554 0.840546429,18.4149696 C-0.262810714,22.7703804 1.6131,23.1388446 1.6416,30.6852375 C1.6416,30.6852375 1.70368929,40.6531125 3.27526071,43.0868089 C4.10176071,44.3672732 4.43765357,44.1932196 5.94102857,46.3093446 C7.633725,48.6931661 8.65056429,50.7543268 9.31420714,52.5844339 C12.6965464,61.9029161 12.6090107,62.7457018 13.8141536,64.6663982 C18.5217429,72.1680054 32.7900643,74.2820946 38.0106536,68.9098446 C39.8662071,67.0003446 40.2692786,64.4628268 43.5620464,62.4495054 C44.3081357,61.9935054 44.9046,61.7247911 45.4267607,61.5476839 C47.5398321,60.8311125 48.7714393,60.5074339 49.3994571,60.3008089 C52.022475,59.4397018 55.0465286,48.6168268 56.3646536,43.9031304 C57.7275643,39.0296304 58.449225,36.5715054 60.4177607,35.5587375 C62.1857786,34.6497911 63.67185,35.2126661 65.0439214,34.0268625 C65.873475,33.3102911 66.5534036,31.7499161 66.0098679,28.0835946" id="Fill-24" fill="#F6C5A2" mask="url(#mask-8)"></path>
            </g>
            <path d="M143.322547,28.3196904 C143.322547,28.3196904 143.074855,25.7218287 141.999483,23.4199905 C136.015114,10.6103377 124.29203,5.01855523 118.934537,3.05357143 C117.969251,7.91958585 117.573759,13.2398433 119.533892,17.6475316 C121.086301,21.1395885 124.097342,23.7864472 126.251144,26.8977566 C130.261109,32.6916517 131.162179,39.8799197 129.898235,46.7415411 C129.407947,49.4067737 127.833113,54.4595891 125.122768,55.9233745 C124.41027,56.3082051 123.689618,55.9856415 122.984256,56.2275642 C120.506313,57.0758247 120.157709,59.2296511 118.553316,60.7883681 C116.603376,62.6808772 113.975595,62.7543727 111.386547,62.6390256 C105.833347,62.3909783 101.673543,61.8315959 97.059127,65.6982757 C96.6238816,66.0637116 96.0224888,65.4532907 95.7839703,65.1521633 C93.1531313,61.8295543 90.4020138,58.6682272 87.5357143,55.6579741 C89.9229381,62.4185391 89.9779809,63.2923189 91.0523336,65.0072139 C95.766642,72.5302947 110.055329,74.6504356 115.283369,69.2628073 C117.141571,67.3478413 117.545218,64.8030597 120.842686,62.783975 C121.58984,62.3266697 122.187155,62.0571862 122.710061,61.8795721 C124.826149,61.1609495 126.059514,60.8363443 126.688428,60.6291279 C129.31519,59.7665765 132.34356,48.9116998 133.663566,44.1845102 C135.028422,39.2970596 135.751113,36.8318981 137.722458,35.8162312 C139.492999,34.9046828 140.981192,35.4691691 142.355222,34.2799711 C143.185959,33.5613485 143.866858,31.9965068 143.322547,28.3196904" id="Fill-27" fill="#F4BE9A"></path>
            <path d="M103.448511,44.8072181 C102.551371,43.1287191 102.785362,42.3050884 103.001515,41.9208663 C103.990992,40.1569846 108.6855,40.3454513 111.726332,42.3654811 C113.730469,43.6962017 114.601377,45.5402598 115.08195,46.5835948 C115.792317,48.1288134 116.418741,50.37063 115.752444,50.8006672 C115.238294,51.133868 114.438738,50.069708 113.291868,50.3570937 C112.191166,50.6330256 112.114568,51.9002298 111.501785,51.9106424 C110.395837,51.9304261 110.405281,47.8643353 107.922669,45.9171932 C106.544956,44.8374144 104.791598,44.7155879 103.448511,44.8072181" id="Fill-29" fill="#2D1E25"></path>
            <path d="M130.87773,33.8427499 C131.099605,34.3676552 131.639166,34.6750414 132.170658,34.5943653 C132.759636,34.5055195 133.211455,33.961211 133.196327,33.324993 C132.588187,32.1853152 131.030017,28.8929127 131.903399,24.9428467 C132.200914,23.5958619 132.70921,22.5011177 133.193301,21.6769958 C133.424254,21.418628 134.214937,20.5975698 135.343475,20.5883789 C136.140209,20.5822516 136.717085,20.9835897 137.387754,21.4635616 C137.912186,21.8383481 138.295425,22.1038644 138.663537,22.4755873 C139.197046,23.0137684 139.48851,23.5233556 139.629703,23.761299 C141.050714,26.1642218 141.760715,27.3651726 141.971496,27.3243239 C142.538287,27.2140325 142.965901,23.5836073 141.515643,20.1696801 C140.941793,18.8175892 140.21263,17.7024206 139.116364,16.3646268 C137.824445,14.7899107 134.675832,11.4597232 128.428025,7.81806459 C125.751401,6.25764554 122.429323,4.35511891 121.372389,5.378378 C120.481862,6.24028486 122.300232,8.09379309 122.060203,12.5228097 C121.984563,13.9177917 121.743526,14.8562898 122.23266,16.1828502 C122.631027,17.2653399 123.175631,17.6830175 124.12566,18.9707717 C124.821542,19.9143759 125.334881,20.8784044 126.362567,22.804419 C128.742684,27.2661146 130.612488,33.018628 130.87773,33.8427499" id="Fill-31" fill="#2D1E25"></path>
            <path d="M136.878451,126.303285 C141.777491,129.472892 145.100187,136.698231 142.74221,141.096848 C140.738331,144.834484 135.099908,145.661742 133.946069,145.831118 C128.758317,146.591246 126.559282,144.225143 123.977981,145.831118 C120.369591,148.075353 121.832261,154.463106 120.460128,154.706843 C118.404945,155.072448 108.699414,141.894155 115.182846,131.629339 C119.788145,124.335836 130.323596,122.063717 136.878451,126.303285" id="Fill-33" fill="#F6C5A2"></path>
            <path d="M101.140775,44.8072181 C102.037915,43.1287191 101.803924,42.3050884 101.587771,41.9208663 C100.598294,40.1569846 95.9037858,40.3454513 92.8629535,42.3654811 C90.8588163,43.6962017 89.9879085,45.5402598 89.5073353,46.5835948 C88.7969684,48.1288134 88.1705443,50.37063 88.8368412,50.8006672 C89.3509916,51.133868 90.1505479,50.069708 91.2974181,50.3570937 C92.3981196,50.6330256 92.4747175,51.9002298 93.0875008,51.9106424 C94.1934488,51.9304261 94.1840052,47.8643353 96.666617,45.9171932 C98.0443302,44.8374144 99.7976879,44.7155879 101.140775,44.8072181" id="Fill-35" fill="#2D1E25"></path>
            <path d="M92.625,11.1964286 C96.2280774,10.6023042 98.9170194,9.7209336 100.819721,8.95425485 C102.024241,8.46862275 103.565272,7.7660061 105.067516,8.38699523 C106.127368,8.82406411 107.066663,9.87902235 106.841274,10.4400824 C106.628465,10.9691114 105.298146,11.2542911 100.819721,10.4566146" id="Fill-37" fill="#2D1E25"></path>
            <path d="M93.6428571,7.125 C97.2459346,6.53078805 99.9348766,5.64928754 101.837578,4.88249577 C103.042098,4.39679209 104.584178,3.69510529 106.085373,4.31515254 C107.145225,4.75228585 108.08452,5.80739959 107.859131,6.36854235 C107.646322,6.89764934 106.316003,7.18287108 101.837578,6.38507695" id="Fill-39" fill="#2D1E25"></path>
        </g>
    </g>
</svg>