<?xml version="1.0" encoding="UTF-8"?>
<svg width="128px" height="128px" viewBox="0 0 128 128" version="1.1" xmlns="http://www.w3.org/2000/svg" xmlns:xlink="http://www.w3.org/1999/xlink">
    <!-- Generator: Sketch 46.2 (44496) - http://www.bohemiancoding.com/sketch -->
    <title>square</title>
    <desc>Created with Sketch.</desc>
    <defs>
        <polygon id="path-1" points="0 7.79868571 0 0.223257143 17.8041143 0.223257143 17.8041143 7.79868571"></polygon>
        <polygon id="path-3" points="103.303883 0.525815976 103.303883 98.0071738 0.5280779 98.0071738 0.5280779 0.525815976 103.303883 0.525815976"></polygon>
        <polygon id="path-5" points="22.2568 10.2857143 0.186959426 10.2857143 0.186959426 0.0257714286 22.2568 0.0257714286 22.2568 10.2857143"></polygon>
        <polygon id="path-7" points="0.276916844 0.539428571 37.167663 0.539428571 37.167663 40.3684586 0.276916844 40.3684586 0.276916844 0.539428571"></polygon>
    </defs>
    <g id="Page-1" stroke="none" stroke-width="1" fill="none" fill-rule="evenodd">
        <g id="square">
            <polygon id="square-a" fill="#D8D8D8" points="0 0 64 0 128 0 128 64 128 128 64 128 0 128 0 64"></polygon>
            <g>
                <path d="M41.3414704,88.5976119 C47.0201848,77.4089988 55.6079849,55.0695003 47.6044123,50.5330045 C42.7291542,47.7697205 33.6736278,52.7303696 30.1751495,54.647062 C5.9962797,67.8929898 8.88757461,95.9179706 9.66807502,103.482989 C10.3383871,109.979622 10.9851695,116.253888 14.611053,117.497766 C21.6062879,119.898062 34.6245757,101.830964 41.3414704,88.5976119" id="Fill-1" fill="#C6785D"></path>
                <g id="Group-5" transform="translate(0.000000, 112.000000)">
                    <mask id="mask-2" fill="white">
                        <use xlink:href="#path-1"></use>
                    </mask>
                    <g id="Clip-4"></g>
                    <path d="M12.5869714,0.223257143 C9.50982857,0.439828571 2.67668571,0.9564 0.327542857,1.42725714 C-2.74045714,2.04268571 16.7441143,7.79868571 16.7441143,7.79868571 L17.8041143,5.39525714 C15.6898286,4.4524 13.7721143,2.49582857 12.5869714,0.223257143" id="Fill-3" fill="#C6785D" mask="url(#mask-2)"></path>
                </g>
                <path d="M104.997882,84.4899153 C103.257538,84.5168674 101.823132,84.7749194 100.560923,85.1986982 C90.6739088,88.5172477 87.7844325,94.7712826 84.5913143,94.1846442 C77.7269425,92.9236299 83.0271858,59.2495571 72.6046368,55.240575 C68.5447906,53.6784999 63.5045658,57.1599089 58.241058,60.7955756 C54.6484413,63.2768895 46.6429732,68.8066583 44.8039025,77.4600038 C43.3666262,84.2249818 48.6456318,92.1844541 59.2030688,108.103972 C67.2607702,120.253636 71.4434508,123.934605 76.8326628,125.921606 C81.3235772,127.577727 85.0780596,127.477373 88.546694,127.385048 C93.4204611,127.254302 109.886573,126.814466 118.350661,114.596562 C118.821908,113.915878 127.166606,101.293692 121.412909,91.9567948 C116.79342,84.4612428 105.606314,84.4801666 104.997882,84.4899153" id="Fill-6" fill="#D88764"></path>
                <g id="Group-10" transform="translate(24.571429, 7.428571)">
                    <mask id="mask-4" fill="white">
                        <use xlink:href="#path-3"></use>
                    </mask>
                    <g id="Clip-9"></g>
                    <path d="M4.31268413,14.4910503 C13.1701921,-0.858189474 42.6507825,-2.27154954 63.1618175,4.07506366 C69.6295508,6.07583893 90.0957667,12.4086576 99.3353857,31.6726576 C104.3465,42.121981 103.648357,51.3579642 102.400894,67.8561698 C101.516579,79.5521698 100.687427,93.979478 92.5912683,97.2941781 C88.7873952,98.8512307 84.5433762,97.4918991 81.9904143,96.674001 C74.5418333,94.2875549 72.849627,89.5629434 67.4822587,85.6274914 C56.1407413,77.3117153 47.3085159,88.6559559 36.7197286,79.7579375 C28.2012365,72.5997487 23.2314937,60.8640896 16.1121603,61.9095967 C14.9824905,62.0757053 13.008154,62.679214 10.594246,61.9095967 C9.04051905,61.4141447 6.41573175,60.0668832 3.85012857,55.1635181 C2.57853175,52.7333895 -0.820246032,45.3383953 1.10639841,29.5781948 C2.07575397,21.6486643 2.49234127,17.6459642 4.31268413,14.4910503" id="Fill-8" fill="#462F35" mask="url(#mask-4)"></path>
                </g>
                <path d="M66.9474728,50.5552106 C78.5955713,46.1147901 118.891385,97.7261834 106.088146,118.441235 C101.689173,125.558578 90.9665679,129.117249 82.9847599,126.64651 C58.7953003,119.158267 55.4282988,54.9461011 66.9474728,50.5552106" id="Fill-11" fill="#D88764"></path>
                <path d="M39.7722463,80.5736402 C50.05049,66.2726306 63.1772461,47.7800743 70.9243062,51.2918488 C76.2186557,53.6922587 76.848158,64.5049935 77.0915961,68.6827843 C77.9507895,83.4365933 68.0511636,88.863308 44.2234406,116.841152 C43.1568953,118.092942 39.7287138,122.129161 34.6795208,122.75219 C33.7979884,122.861091 30.8904781,123.219892 28.6279356,121.466584 C28.3088885,121.21955 26.8688804,120.129966 26.1929816,117.596009 C22.6674249,104.372547 39.7722463,80.5736402 39.7722463,80.5736402" id="Fill-13" fill="#D88764"></path>
                <path d="M39.7672489,33.2463743 C41.6273115,45.2878939 36.7137226,50.543779 39.3898532,56.1857025 C43.2004617,64.2181837 55.195231,57.8537344 58.9617431,66.4243648 C60.7840088,70.5711095 60.0738864,76.8347278 57.8719343,79.1250307 C55.6447842,81.4424139 51.1194719,80.4963316 46.7064048,79.5744486 C46.5500633,79.5416066 46.4338094,79.5162548 46.4011667,79.5087645 C43.3774196,78.8386708 30.5957889,74.3969236 25.2063035,62.9350379 C17.246633,46.0069626 27.4901488,18.1937546 32.9781351,18.2859429 C36.0797665,18.3377988 38.85268,27.3261574 39.7672489,33.2463743" id="Fill-15" fill="#2D1E25"></path>
                <path d="M92.4813679,37.7048826 C91.3729208,48.5935581 102.664508,54.5853841 100.027643,60.4659835 C96.8199168,67.6190606 78.79962,61.6865939 73.8139032,70.7063177 C71.6882322,74.5519899 72.3646603,80.3317362 75.2728995,83.4103487 C77.3859484,85.6475583 80.55294,86.32702 84.5231541,86.2837972 C90.9856528,86.2129119 115.950956,85.9397441 124.314223,67.220835 C133.083692,47.5948244 117.199967,22.0213633 106.561285,21.7170751 C100.382209,21.54015 93.2851641,29.8106793 92.4813679,37.7048826" id="Fill-17" fill="#2D1E25"></path>
                <path d="M52.8702431,65.7642502 C50.1199047,67.5436785 48.2545316,71.6000095 49.5783083,74.0694083 C50.7032927,76.1677305 53.8687232,76.632156 54.5164928,76.7272444 C57.4289147,77.1539825 58.6634608,75.8256442 60.1126123,76.7272444 C62.1383749,77.9871654 61.3172266,81.5732728 62.0875473,81.7101073 C63.241334,81.915359 68.6900535,74.5170194 65.050232,68.7543159 C62.4648011,64.6597176 56.5501618,63.3841418 52.8702431,65.7642502" id="Fill-19" fill="#F6C5A2"></path>
                <g id="Group-23" transform="translate(12.000000, 117.142857)">
                    <mask id="mask-6" fill="white">
                        <use xlink:href="#path-5"></use>
                    </mask>
                    <g id="Clip-22"></g>
                    <path d="M14.0676571,0.0257714286 C10.6213714,2.08462857 2.98422857,6.7132 0.483085714,8.77091429 C-2.78377143,11.4589143 22.0568,9.75091429 22.0568,9.75091429 L22.2568,5.33948571 C19.4270857,5.01834286 16.3928,2.97777143 14.0676571,0.0257714286" id="Fill-21" fill="#A74639" mask="url(#mask-6)"></path>
                </g>
                <g id="Group-26" transform="translate(42.857143, 0.000000)">
                    <mask id="mask-8" fill="white">
                        <use xlink:href="#path-7"></use>
                    </mask>
                    <g id="Clip-25"></g>
                    <path d="M37.0581714,15.7662286 C37.0581714,15.7662286 36.9193143,14.3119429 36.3164571,13.0228 C31.8816,3.54394286 21.8193143,1.1228 21.8193143,1.1228 C18.0044571,0.204514286 14.0930286,0.419371429 10.6798857,1.4228 C8.57645714,2.04051429 5.13988571,3.15594286 2.53188571,6.45308571 C1.87645714,7.28165714 0.939885714,8.49137143 0.471885714,10.3382286 C-0.147542857,12.7833714 0.9056,12.9902286 0.9216,17.2268 C0.9216,17.2268 0.956457143,22.8228 1.83874286,24.1890857 C2.30274286,24.9079429 2.49131429,24.8102286 3.33531429,25.9982286 C4.2856,27.3365143 4.85645714,28.4936571 5.22902857,29.5210857 C7.12788571,34.7525143 7.07874286,35.2256571 7.75531429,36.3039429 C10.3981714,40.5153714 18.4084571,41.7022286 21.3393143,38.6862286 C22.3810286,37.6142286 22.6073143,36.1896571 24.4558857,35.0593714 C24.8747429,34.8033714 25.2096,34.6525143 25.5027429,34.5530857 C26.6890286,34.1508 27.3804571,33.9690857 27.7330286,33.8530857 C29.2056,33.3696571 30.9033143,27.2936571 31.6433143,24.6473714 C32.4084571,21.9113714 32.8136,20.5313714 33.9187429,19.9628 C34.9113143,19.4525143 35.7456,19.7685143 36.5158857,19.1028 C36.9816,18.7005143 37.3633143,17.8245143 37.0581714,15.7662286" id="Fill-24" fill="#F6C5A2" mask="url(#mask-8)"></path>
                </g>
                <path d="M80.4617807,15.8987735 C80.4617807,15.8987735 80.3227254,14.4403249 79.7190078,13.1480649 C76.3593622,5.95668081 69.777982,2.81743451 66.7702666,1.71428571 C66.2283514,4.44608329 66.0063207,7.43289448 67.1067462,9.90738617 C67.9782741,11.8678392 69.6686834,13.3537949 70.8778353,15.100495 C73.1290439,18.353208 73.6349077,22.3887269 72.925325,26.2408652 C72.6500755,27.7371361 71.7659583,30.5738044 70.244361,31.3955786 C69.8443623,31.6116239 69.4397857,31.4305356 69.0437927,31.5663518 C67.6526671,32.0425683 67.4569596,33.251734 66.5562473,34.1268032 C65.4615442,35.1892644 63.9862987,35.230525 62.5327985,35.1657688 C59.4152123,35.0265141 57.0798838,34.7124749 54.4893344,36.8832425 C54.2449862,37.0883995 53.9073621,36.7457071 53.773457,36.5766531 C52.2964948,34.7113288 50.7520078,32.9365486 49.1428571,31.2465819 C50.483053,35.0419869 50.5139542,35.5325299 51.1170995,36.495278 C53.7637288,40.7187619 61.7854476,41.9090165 64.720488,38.8843831 C65.7636891,37.8093144 65.9902978,36.3806651 67.8415077,35.2471439 C68.2609627,34.9904111 68.5962978,34.8391221 68.889859,34.7394089 C70.077838,34.3359716 70.7702534,34.1537372 71.1233281,34.0374051 C72.5980013,33.5531658 74.2981387,27.4591999 75.0391949,24.8053391 C75.8054299,22.0615071 76.211151,20.6775568 77.3178712,20.1073578 C78.3118594,19.5956114 79.1473358,19.912516 79.918721,19.2448961 C80.3851,18.8414588 80.7673591,17.9629512 80.4617807,15.8987735" id="Fill-27" fill="#F4BE9A"></path>
                <path d="M58.0763571,25.1549295 C57.5726996,24.2126143 57.7040629,23.7502251 57.825412,23.5345214 C58.3809079,22.5442721 61.016421,22.6500779 62.7235549,23.7841297 C63.8486846,24.531201 64.3376153,25.5664617 64.6074108,26.1521936 C65.0062133,27.0196847 65.3578899,28.2782484 64.9838285,28.5196728 C64.6951826,28.7067329 64.2463089,28.1093098 63.602452,28.2706491 C62.9845143,28.4255582 62.941512,29.1369711 62.5974933,29.1428168 C61.9766102,29.1539235 61.9819119,26.8712058 60.5881649,25.7780734 C59.8147119,25.1718818 58.8303707,25.1034879 58.0763571,25.1549295" id="Fill-29" fill="#2D1E25"></path>
                <path d="M73.4752168,18.9994385 C73.5997784,19.2941222 73.9026895,19.4666899 74.2010711,19.4213981 C74.5317255,19.3715197 74.7853782,19.065943 74.7768854,18.708768 C74.4354734,18.0689489 73.5607113,16.2205826 74.051031,14.0030017 C74.2180568,13.2467997 74.5034161,12.6322064 74.7751868,12.1695415 C74.9048441,12.0244929 75.3487363,11.563548 75.9823018,11.5583881 C76.4295911,11.5549483 76.7534513,11.7802609 77.129967,12.0497188 C77.4243853,12.2601252 77.6395371,12.409187 77.8461961,12.6178736 C78.1457101,12.9200104 78.3093387,13.2060943 78.3886052,13.3396767 C79.1863655,14.6886859 79.5849626,15.3629039 79.7032961,15.3399713 C80.0214943,15.2780534 80.2615585,13.2399199 79.4473787,11.3233292 C79.1252171,10.5642606 78.7158624,9.93820104 78.100415,9.1871589 C77.3751268,8.30310776 75.6074847,6.43352881 72.0999437,4.38908889 C70.597278,3.51306416 68.7322513,2.44497904 68.1388852,3.01944028 C67.6389403,3.50331781 68.6597791,4.54388384 68.5250261,7.03034932 C68.482562,7.81349708 68.3472428,8.34037321 68.6218445,9.0851089 C68.8454891,9.69282239 69.1512312,9.92730807 69.6845813,10.6502578 C70.0752517,11.1800005 70.3634419,11.7212095 70.9403885,12.8024809 C72.2765946,15.3072924 73.3263091,18.5367736 73.4752168,18.9994385" id="Fill-31" fill="#2D1E25"></path>
                <path d="M76.8440427,70.9071074 C79.594381,72.6865356 81.4597542,76.7428666 80.1359774,79.2122654 C79.010993,81.3105876 75.8455626,81.7750131 75.1977929,81.8701015 C72.285371,82.2968396 71.0508249,80.9685014 69.6016734,81.8701015 C67.5759108,83.1300225 68.3970591,86.7161299 67.6267384,86.8529644 C66.4729518,87.0582162 61.0242323,79.6598766 64.6640537,73.897173 C67.2494846,69.8025747 73.1641239,68.5269989 76.8440427,70.9071074" id="Fill-33" fill="#F6C5A2"></path>
                <path d="M56.7807858,25.1549295 C57.2844433,24.2126143 57.15308,23.7502251 57.0317309,23.5345214 C56.4762349,22.5442721 53.8407218,22.6500779 52.1335879,23.7841297 C51.0084583,24.531201 50.5195276,25.5664617 50.2497321,26.1521936 C49.8509296,27.0196847 49.499253,28.2782484 49.8733144,28.5196728 C50.1619602,28.7067329 50.6108339,28.1093098 51.2546908,28.2706491 C51.8726285,28.4255582 51.9156309,29.1369711 52.2596496,29.1428168 C52.8805326,29.1539235 52.875231,26.8712058 54.268978,25.7780734 C55.042431,25.1718818 56.0267722,25.1034879 56.7807858,25.1549295" id="Fill-35" fill="#2D1E25"></path>
                <path d="M52,6.28571429 C54.0227803,5.95217078 55.5323618,5.45736623 56.6005452,5.02695009 C57.276767,4.75431453 58.1419073,4.35986307 58.9852719,4.70848855 C59.5802765,4.95386056 60.1076001,5.54611781 59.981066,5.8610989 C59.8615942,6.15809764 59.1147487,6.31819852 56.6005452,5.87038011" id="Fill-37" fill="#2D1E25"></path>
                <path d="M52.5714286,4 C54.5942089,3.66640733 56.1037904,3.17152985 57.1719737,2.74105026 C57.8481956,2.46837451 58.7139244,2.07444507 59.5567005,2.42254178 C60.1517051,2.66794995 60.6790287,3.26029451 60.5524946,3.57532202 C60.4330228,3.87236454 59.6861772,4.03248903 57.1719737,3.5846046" id="Fill-39" fill="#2D1E25"></path>
            </g>
        </g>
    </g>
</svg>